<svg xmlns="http://www.w3.org/2000/svg">
<defs>
<font id="Podkova-Regular" horiz-adv-x="0" >
  <font-face 
    font-family="Podkova"
    font-weight="400"
    font-stretch="normal"
    units-per-em="1000"
    panose-1="0 0 5 0 0 0 0 0 0 0"
    ascent="800"
    descent="-200"
    x-height="429"
    cap-height="589"
    bbox="-409.003 -301.13 1301.37 969"
    underline-thickness="50"
    underline-position="-50"
    unicode-range="U+000D-U+FB02"
  />
<missing-glyph horiz-adv-x="965" 
d="M945 567l-64 -66.001l-1 1c-1.33301 -158 -81.666 -291 -240.999 -399c0 -5.33301 -1.33301 -10.666 -4 -15.999s-7.33398 -8 -14.001 -8l-12 -12c41.333 -14.667 73 -27.334 95 -38.001c3.33301 0 10.333 0.166992 21 0.5s21.334 -1 32.001 -4s20.667 -7.83301 30 -14.5
c0 -2.66699 -0.5 -4.33398 -1.5 -5.00098s-1.83301 -1.33398 -2.5 -2.00098c-10 4.66699 -18.167 8.16699 -24.5 10.5s-13.833 3.5 -22.5 3.5l-11 -1c8.66699 -4.66699 15.834 -9 21.501 -13s10.834 -9.66699 15.501 -17c-0.666992 -2.66699 -3.66699 -4.66699 -9 -6
c-22 22 -43.333 32.667 -64 32c-8.66699 0 -15.667 -0.666992 -21 -2s-11 -3.33301 -17 -6s-10.333 -4.66699 -13 -6c-0.666992 0.666992 -1.66699 1.16699 -3 1.5s-2.33301 1.83301 -3 4.5c4.66699 5.33301 9 9 13 11s8.83301 3.83301 14.5 5.5l15.5 4.5
c-12.667 7.33301 -25.5 13.333 -38.5 18s-20.833 7.33398 -23.5 8.00098c-6.66699 2 -12.5 4 -17.5 6s-7.5 4 -7.5 6c0 4 3.66699 9 11 15c-4.66699 0 -8.83398 2.33301 -12.501 7s-5.83398 8.66699 -6.50098 12h-27c-20 0 -38.333 1.33301 -55 4
c-6.66699 -17.333 -15.667 -25 -27 -23c-8 -4.66699 -13 -8 -15 -10l33 -21c18 -11.333 35 -23.333 51 -36c4.66699 -0.666992 12 -1.83398 22 -3.50098s19.167 -4.66699 27.5 -9s15.833 -11.166 22.5 -20.499c0 -2 -0.666992 -3.5 -2 -4.5s-2.33301 -1.83301 -3 -2.5
c-8.66699 8 -15.834 13.333 -21.501 16s-14.834 5 -27.501 7c13.333 -8 22.333 -21 27 -39c-1.33301 -3.33301 -4 -4.66602 -8 -3.99902c-8 12.667 -16.167 23.167 -24.5 31.5s-17.833 13.5 -28.5 15.5c-4.66699 0.666992 -11.334 1 -20.001 1c-16 0 -32.667 -2 -50 -6

<glyph glyph-name="fi" unicode="fi" horiz-adv-x="663" 
d="M167 613.5c31.333 29.667 75.332 44.498 131.999 44.498c24 0 47 -3.66699 69 -11s40.667 -17.666 56 -30.999l-31 -55c-11.333 10.667 -25.666 18.834 -42.999 24.501s-36 8.5 -56 8.5c-30 0 -53.5 -10.667 -70.5 -32s-25.5 -51 -25.5 -89v-44h124v-62h-124v-305h90v-62
h-252v62h84v305h-84v62h84v60c0 53.333 15.667 94.833 47 124.5zM394.999 428.998h162v-367h83v-62h-245v62h83v305h-83v62zM551.999 624.998c11.333 -11.333 17 -26.333 17 -45s-5.66699 -33.667 -17 -45s-26.333 -17 -45 -17s-33.5 5.66699 -44.5 17
s-16.5 26.333 -16.5 45s5.5 33.667 16.5 45s25.833 17 44.5 17s33.667 -5.66699 45 -17z" />
    <glyph glyph-name="fl" unicode="fl" horiz-adv-x="641" 
d="M618 62l-0.000976562 -62h-246v62h84v494c-43.333 28 -87.666 42 -132.999 42c-38 0 -68.333 -10.333 -91 -31s-34 -52 -34 -94v-44h124v-62h-124v-305h90v-62h-252v62h84v305h-84v62h84v60c0 34 8.66699 64.5 26 91.5s41.333 48.333 72 64s65.667 23.5 105 23.5
c40 0 77.167 -5.83301 111.5 -17.5s67.5 -30.167 99.5 -55.5v-533h84z" />
    <glyph glyph-name=".notdef" horiz-adv-x="965" 
d="M945 567l-64 -66.001l-1 1c-1.33301 -158 -81.666 -291 -240.999 -399c0 -5.33301 -1.33301 -10.666 -4 -15.999s-7.33398 -8 -14.001 -8l-12 -12c41.333 -14.667 73 -27.334 95 -38.001c3.33301 0 10.333 0.166992 21 0.5s21.334 -1 32.001 -4s20.667 -7.83301 30 -14.5
c0 -2.66699 -0.5 -4.33398 -1.5 -5.00098s-1.83301 -1.33398 -2.5 -2.00098c-10 4.66699 -18.167 8.16699 -24.5 10.5s-13.833 3.5 -22.5 3.5l-11 -1c8.66699 -4.66699 15.834 -9 21.501 -13s10.834 -9.66699 15.501 -17c-0.666992 -2.66699 -3.66699 -4.66699 -9 -6
c-22 22 -43.333 32.667 -64 32c-8.66699 0 -15.667 -0.666992 -21 -2s-11 -3.33301 -17 -6s-10.333 -4.66699 -13 -6c-0.666992 0.666992 -1.66699 1.16699 -3 1.5s-2.33301 1.83301 -3 4.5c4.66699 5.33301 9 9 13 11s8.83301 3.83301 14.5 5.5l15.5 4.5
c-12.667 7.33301 -25.5 13.333 -38.5 18s-20.833 7.33398 -23.5 8.00098c-6.66699 2 -12.5 4 -17.5 6s-7.5 4 -7.5 6c0 4 3.66699 9 11 15c-4.66699 0 -8.83398 2.33301 -12.501 7s-5.83398 8.66699 -6.50098 12h-27c-20 0 -38.333 1.33301 -55 4
c-6.66699 -17.333 -15.667 -25 -27 -23c-8 -4.66699 -13 -8 -15 -10l33 -21c18 -11.333 35 -23.333 51 -36c4.66699 -0.666992 12 -1.83398 22 -3.50098s19.167 -4.66699 27.5 -9s15.833 -11.166 22.5 -20.499c0 -2 -0.666992 -3.5 -2 -4.5s-2.33301 -1.83301 -3 -2.5
c-8.66699 8 -15.834 13.333 -21.501 16s-14.834 5 -27.501 7c13.333 -8 22.333 -21 27 -39c-1.33301 -3.33301 -4 -4.66602 -8 -3.99902c-8 12.667 -16.167 23.167 -24.5 31.5s-17.833 13.5 -28.5 15.5c-4.66699 0.666992 -11.334 1 -20.001 1c-16 0 -32.667 -2 -50 -6
c-2 2.66699 -3 5.33398 -3 8.00098c7.33301 4.66699 14.833 7.66699 22.5 9s19.167 2.33301 34.5 3c-11.333 9.33301 -26 19.666 -44 30.999c-20.667 12.667 -31 21.334 -31 26.001c0 3.33301 1.5 6 4.5 8s5.83301 4 8.5 6c-5.33301 5.33301 -8 13 -8 23l1 9
c-36 19.333 -67.5 42.333 -94.5 69s-48.833 51.834 -65.5 75.501s-34.667 51.5 -54 83.5c-7.33301 2 -14 4.33301 -20 7c-42 14 -75.833 26.333 -101.5 37s-47.167 23 -64.5 37c-4 3.33301 -6 7 -6 11c0 7.33301 4 11 12 11l256 -22c56.667 11.333 96.334 19 119.001 23
c78.667 15.333 132 27.166 160 35.499s47.333 20.5 58 36.5c20 35.333 40.5 60.5 61.5 75.5s45.833 22.5 74.5 22.5c16 0 31.667 -2.33301 47 -7v1l74 26c2 0 3 -0.666992 3 -2v-1l-25 -69l70 3c2.66699 0 3.33398 -1 2.00098 -3zM678 203.499
c8 9.66699 11.665 15.8311 10.998 18.498c-3.33301 3.33301 -14.333 13 -33 29l-57 49l39 51c16 20.667 27.333 36 34 46c-14.667 12.667 -27 21.334 -37 26.001l-74 -93c-38 30.667 -70.333 55 -97 73c-13.333 -15.333 -22 -28.333 -26 -39l91 -72l-72 -93
c0.666992 -2.66699 5.83398 -8 15.501 -16s15.834 -11.667 18.501 -11l78 88l93 -72c2.66699 0.666992 8 5.83398 16 15.501z" />
    <glyph glyph-name="NULL" 
 />
    <glyph glyph-name="NULL" 
 />
    <glyph glyph-name="nonmarkingreturn" unicode="&#xd;" horiz-adv-x="251" 
 />
    <glyph glyph-name="space" unicode=" " horiz-adv-x="251" 
 />
    <glyph glyph-name="exclam" unicode="!" horiz-adv-x="205" 
d="M64 589h79l-12 -403h-58zM145.5 90.5c12.333 -12.333 18.5 -26.833 18.5 -43.5s-6.16699 -31.167 -18.5 -43.5s-26.833 -18.5 -43.5 -18.5s-31.167 6.16699 -43.5 18.5s-18.5 26.833 -18.5 43.5s6.16699 31.167 18.5 43.5s26.833 18.5 43.5 18.5
s31.167 -6.16699 43.5 -18.5z" />
    <glyph glyph-name="quotedbl" unicode="&#x22;" horiz-adv-x="334" 
d="M56 589h80l-19 -186h-42zM198 589h80l-19 -186h-42z" />
    <glyph glyph-name="numbersign" unicode="#" horiz-adv-x="594" 
d="M258 589h63l-54 -196h134l55 196h63l-54 -196h123v-54h-139l-44 -162h148v-54h-163l-52 -190h-64l51 190h-133l-52 -190h-65l53 190h-122v54h137l45 162h-148v54h163zM252 339l-45 -162h134l44 162h-133z" />
    <glyph glyph-name="dollar" unicode="$" horiz-adv-x="442" 
d="M186 59v197.999c-45.333 5.33301 -81.666 21.833 -108.999 49.5s-41 62.167 -41 103.5c0 45.333 12.833 80.666 38.5 105.999s62.834 40.666 111.501 45.999v90h65v-89c32.667 -2.66699 57.5 -6.16699 74.5 -10.5s36.5 -12.166 58.5 -23.499l16 -112l-60 -6l-12 74
c-22.667 10 -48.334 16 -77.001 18v-190l23 -3c92 -12 138 -58.667 138 -140c0 -54 -13.333 -95.167 -40 -123.5s-67.334 -43.833 -122.001 -46.5v-83h-64v84c-48 4.66699 -83.667 12.334 -107 23.001s-35.333 16 -36 16l-17 104l62 7l11 -70
c30 -11.333 59 -18.666 87 -21.999zM100 413.999c0 -26 7.33301 -46.833 22 -62.5s36 -25.167 64 -28.5v180c-57.333 -8 -86 -37.667 -86 -89zM342 159.999c0 26 -8 46.667 -24 62s-38.667 24 -68 26v-189c61.333 10 92 43.667 92 101z" />
    <glyph glyph-name="percent" unicode="%" horiz-adv-x="774" 
d="M325 428c0 -116.667 -44.333 -175 -133 -175s-133 58.333 -133 175c0 117.333 44.333 176 133 176s133 -58.667 133 -176zM490 604h73l-291 -625h-74zM142 514c-12 -16 -18 -44.667 -18 -86s6 -69.833 18 -85.5s28.667 -23.5 50 -23.5s38 7.83301 50 23.5
s18 44.167 18 85.5s-6 70 -18 86s-28.667 24 -50 24s-38 -8 -50 -24zM715 159c0 -116.667 -44.333 -175 -133 -175s-133 58.333 -133 175c0 117.333 44.333 176 133 176s133 -58.667 133 -176zM532 245c-12 -16 -18 -44.667 -18 -86s6 -69.833 18 -85.5
s28.667 -23.5 50 -23.5s38 7.83301 50 23.5s18 44.167 18 85.5s-6 70 -18 86s-28.667 24 -50 24s-38 -8 -50 -24z" />
    <glyph glyph-name="ampersand" unicode="&#x26;" horiz-adv-x="704" 
d="M256 -15c-28 0 -57.667 5.16699 -89 15.5s-58.333 28.833 -81 55.5s-34 62.334 -34 107.001c0 30.667 6.83301 57.667 20.5 81s30.667 42.833 51 58.5s45.5 32.5 75.5 50.5c-38 51.333 -57 95 -57 131c0 44.667 12.833 75.834 38.5 93.501s55.5 26.5 89.5 26.5
c37.333 0 68 -9.33301 92 -28s36 -45.667 36 -81c0 -30.667 -9.5 -57.334 -28.5 -80.001s-45.833 -46 -80.5 -70c40 -46.667 96.667 -99.667 170 -159c12.667 26.667 23.334 55.5 32.001 86.5s17 65.833 25 104.5l109 35l19 -59l-71 -24
c-12.667 -43.333 -23.167 -77.833 -31.5 -103.5s-19.5 -51.834 -33.5 -78.501c60 -46 109.333 -81.333 148 -106l-33 -56c-2.66699 2 -17.834 12.667 -45.501 32l-102.5 75c-54 -71.333 -127 -107 -219 -107zM215 485c0 -27.333 13.6689 -59.999 41.002 -97.999
c23.333 15.333 41.166 30.666 53.499 45.999s18.5 33.333 18.5 54c0 22 -4.33301 37.833 -13 47.5s-23.334 14.5 -44.001 14.5c-37.333 0 -56 -21.333 -56 -64zM157.002 240.501c-18 -22.333 -27.001 -48.165 -27.001 -77.498c0 -30.667 8.16699 -54.834 24.5 -72.501
s34.5 -29.834 54.5 -36.501s36.667 -10 50 -10c68.667 0 124.334 29 167.001 87c-78 62 -142 121 -192 177c-33.333 -22.667 -59 -45.167 -77 -67.5z" />
    <glyph glyph-name="quotesingle" unicode="'" horiz-adv-x="192" 
d="M51 589h90l-14 -206h-62z" />
    <glyph glyph-name="parenleft" unicode="(" horiz-adv-x="217" 
d="M122 436c-18.667 -62 -28 -119.664 -28 -172.997c0 -52.667 9.33301 -110 28 -172s53 -117.667 103 -167l-38 -49c-29.333 19.333 -57.333 48.666 -84 87.999s-48.167 85.166 -64.5 137.499s-24.5 106.5 -24.5 162.5s8.16699 110.333 24.5 163s37.833 98.667 64.5 138
s54.667 68.666 84 87.999l38 -49c-50 -49.333 -84.333 -105 -103 -167z" />
    <glyph glyph-name="parenright" unicode=")" horiz-adv-x="217" 
d="M114 564c26.667 -39.333 48.167 -85.3359 64.5 -138.003s24.5 -107 24.5 -163s-8.16699 -110.167 -24.5 -162.5s-37.833 -98.166 -64.5 -137.499s-54.667 -68.666 -84 -87.999l-38 49c50 49.333 84.333 105 103 167s28 119.333 28 172c0 53.333 -9.33301 111 -28 173
s-53 117.667 -103 167l38 49c29.333 -19.333 57.333 -48.666 84 -87.999z" />
    <glyph glyph-name="asterisk" unicode="*" horiz-adv-x="406" 
d="M162 652h75l-7 -146l139 54l25 -72l-145 -39l92 -113l-62 -46l-78 122l-79 -122l-63 44l95 116l-141 37l23 73l134 -53z" />
    <glyph glyph-name="plus" unicode="+" horiz-adv-x="466" 
d="M195 483h76v-145h145v-69h-145v-145h-76v145h-145v69h145v145z" />
    <glyph glyph-name="comma" unicode="," horiz-adv-x="212" 
d="M53 -91c3.33301 4.66699 10.167 15.333 20.5 32s18.833 32.667 25.5 48c-16.667 1.33301 -30.167 7.5 -40.5 18.5s-15.5 24.167 -15.5 39.5c0 18 6.16699 32.833 18.5 44.5s27.833 17.5 46.5 17.5c18 0 33.833 -6.66699 47.5 -20s20.5 -29.333 20.5 -48
c0 -22.667 -6.5 -46 -19.5 -70s-27.667 -45.667 -44 -65s-24.5 -28.333 -24.5 -27z" />
    <glyph glyph-name="hyphen" unicode="-" horiz-adv-x="397" 
d="M45 266h307v-69h-307v69z" />
    <glyph glyph-name="period" unicode="." horiz-adv-x="222" 
d="M154.5 90.5c12.333 -12.333 18.5 -26.833 18.5 -43.5s-6.16699 -31.167 -18.5 -43.5s-26.833 -18.5 -43.5 -18.5s-31.167 6.16699 -43.5 18.5s-18.5 26.833 -18.5 43.5s6.16699 31.167 18.5 43.5s26.833 18.5 43.5 18.5s31.167 -6.16699 43.5 -18.5z" />
    <glyph glyph-name="slash" unicode="/" horiz-adv-x="349" 
d="M302 589h73l-327 -720h-74z" />
    <glyph glyph-name="zero" unicode="0" horiz-adv-x="595" 
d="M471 531.5c41.333 -48.333 62 -127.5 62 -237.5c0 -109.333 -20.667 -188.166 -62 -236.499s-99.333 -72.5 -174 -72.5c-74 0 -131.667 24.167 -173 72.5s-62 127.166 -62 236.499c0 110 20.5 189.167 61.5 237.5s98.833 72.5 173.5 72.5s132.667 -24.167 174 -72.5z
M188 484c-26 -34.667 -39 -98 -39 -190c0 -91.333 13 -154.333 39 -189s62.667 -52 110 -52c46.667 0 83.167 17.5 109.5 52.5s39.5 97.833 39.5 188.5c0 92 -13.167 155.333 -39.5 190s-62.833 52 -109.5 52c-47.333 0 -84 -17.333 -110 -52z" />
    <glyph glyph-name="one" unicode="1" horiz-adv-x="494" 
d="M260 589h50l-2 -520h156v-69h-400v69h166l1 403l-143 -118l-44 54z" />
    <glyph glyph-name="two" unicode="2" horiz-adv-x="544" 
d="M34 80c34 30.667 82.334 71.667 145.001 123c54 44 91.333 76 112 96c25.333 24 44.166 46.333 56.499 67s18.5 42.334 18.5 65.001c0 33.333 -11.167 59 -33.5 77s-50.5 27 -84.5 27c-24 0 -48.5 -4.83301 -73.5 -14.5s-47.167 -23.834 -66.5 -42.501l-50 47
c26 28 56.167 49 90.5 63s69.5 21 105.5 21c35.333 0 68 -6.66699 98 -20s54 -32.833 72 -58.5s27 -56.167 27 -91.5c0 -29.333 -9.16699 -58.833 -27.5 -88.5s-44.833 -60.834 -79.5 -93.501c-24.667 -23.333 -67 -59.666 -127 -108.999l-95 -79h274l52 83l57 -30l-71 -122
h-373z" />
    <glyph glyph-name="three" unicode="3" horiz-adv-x="510" 
d="M325 367.5c18.667 19.667 28 45.5 28 77.5c0 27.333 -10 49.166 -30 65.499s-46.667 24.5 -80 24.5c-26 0 -51.5 -5 -76.5 -15s-45.5 -23 -61.5 -39l-54 52c22 22.667 50.167 40.167 84.5 52.5s72.166 18.5 113.499 18.5c56.667 0 102.334 -14.667 137.001 -44
s52 -67.666 52 -114.999c0 -32.667 -8.83301 -62 -26.5 -88s-41.167 -44.667 -70.5 -56c36.667 -6 66.5 -21.833 89.5 -47.5s34.5 -56.167 34.5 -91.5c0 -34.667 -9 -65.5 -27 -92.5s-43.5 -47.833 -76.5 -62.5s-71.167 -22 -114.5 -22c-90.667 0 -160 23 -208 69l51 57
c28.667 -20.667 54.5 -35.334 77.5 -44.001s50.5 -13 82.5 -13c38.667 0 70 9.83301 94 29.5s36 45.5 36 77.5c0 32.667 -14 58.834 -42 78.501s-65 29.5 -111 29.5h-46v69h68c32 0 57.333 9.83301 76 29.5z" />
    <glyph glyph-name="four" unicode="4" horiz-adv-x="552" 
d="M222 0v69h105v96h-301l-1 37l202 420l66 -37l-169 -352h203v269h81l-1 -269l94 1v-69h-94v-96h90v-69h-275z" />
    <glyph glyph-name="five" unicode="5" horiz-adv-x="515" 
d="M277 395c57.333 0 103.833 -16.6689 139.5 -50.002s53.5 -80.666 53.5 -141.999c0 -70.667 -19 -124.667 -57 -162s-92.667 -56 -164 -56c-39.333 0 -77 7.5 -113 22.5s-65 36.5 -87 64.5l61 41c16 -19.333 36.167 -34.166 60.5 -44.499s51.5 -15.5 81.5 -15.5
c43.333 0 76.333 12.167 99 36.5s34 58.5 34 102.5c0 42 -12.833 74.833 -38.5 98.5s-57.167 35.5 -94.5 35.5c-22 0 -43.833 -4.5 -65.5 -13.5s-41.167 -22.167 -58.5 -39.5l-46 21v295h346v-70h-265v-159c35.333 23.333 73.333 35 114 35z" />
    <glyph glyph-name="six" unicode="6" horiz-adv-x="551" 
d="M403.5 518.5c-24.333 11.667 -50.1689 17.5 -77.502 17.5c-62.667 0 -107.667 -23.5 -135 -70.5s-42 -103.167 -44 -168.5c14 19.333 35.333 36.166 64 50.499s60.334 21.5 95.001 21.5c58 0 105.833 -14.667 143.5 -44s56.5 -78.666 56.5 -147.999
c0 -28 -6.5 -56.667 -19.5 -86s-35.667 -54.333 -68 -75s-75.5 -31 -129.5 -31c-150 0 -225 101.333 -225 304c0 58 10.5 111 31.5 159s51.167 86 90.5 114s85.333 42 138 42c26.667 0 51.334 -3.33301 74.001 -10s41.667 -14.167 57 -22.5s23 -12.833 23 -13.5l-36 -58z
M208.497 282c-28.333 -12.667 -48.166 -30.001 -59.499 -52.001c4.66699 -69.333 20.167 -116.166 46.5 -140.499s59.833 -36.5 100.5 -36.5c27.333 0 50.666 6 69.999 18s33.833 27.5 43.5 46.5s14.5 38.833 14.5 59.5c0 40 -9.83301 70.667 -29.5 92s-49.167 32 -88.5 32
c-36.667 0 -69.167 -6.33301 -97.5 -19z" />
    <glyph glyph-name="seven" unicode="7" horiz-adv-x="512" 
d="M336.5 272c-33.667 -96.667 -53.165 -187.332 -58.498 -271.999h-82c9.33301 81.333 29.166 166.166 59.499 254.499s73.166 176.833 128.499 265.5h-268l-14 -62l-69 15l22 116h437v-43c-70 -86 -121.833 -177.333 -155.5 -274z" />
    <glyph glyph-name="eight" unicode="8" horiz-adv-x="532" 
d="M406.5 559c37.667 -30 56.499 -71.3311 56.499 -123.998c0 -29.333 -9 -56.5 -27 -81.5s-42.333 -41.5 -73 -49.5c32 -4.66699 58.5 -20.5 79.5 -47.5s31.5 -58.167 31.5 -93.5c0 -38 -9.5 -70.5 -28.5 -97.5s-44.333 -47.167 -76 -60.5s-66.167 -20 -103.5 -20
s-71.833 6.66699 -103.5 20s-57 33.5 -76 60.5s-28.5 59.5 -28.5 97.5c0 35.333 10.5 66.5 31.5 93.5s47.5 42.833 79.5 47.5c-30.667 8 -55 24.5 -73 49.5s-27 52.167 -27 81.5c0 35.333 8.66699 65.666 26 90.999s41 44.666 71 57.999s63 20 99 20
c56.667 0 103.834 -15 141.501 -45zM183.999 507.502c-20 -19 -30 -43.167 -30 -72.5c0 -30 10 -54.333 30 -73s47.333 -28 82 -28s62 9.33301 82 28s30 43 30 73c0 29.333 -10 53.5 -30 72.5s-47.333 28.5 -82 28.5s-62 -9.5 -82 -28.5zM175.499 240.002
c-21 -20 -31.5 -45.667 -31.5 -77c0 -32 11.333 -58.333 34 -79s52 -31 88 -31s65.333 10.333 88 31s34 47 34 79c0 31.333 -10.5 57 -31.5 77s-51.167 30 -90.5 30s-69.5 -10 -90.5 -30z" />
    <glyph glyph-name="nine" unicode="9" horiz-adv-x="553" 
d="M157.5 71c25 -12 55.8311 -18 92.498 -18c58.667 0 99.5 20.167 122.5 60.5s36.167 91.833 39.5 154.5c-15.333 -20.667 -37.166 -38.5 -65.499 -53.5s-59.5 -22.5 -93.5 -22.5c-58 0 -105.833 16.333 -143.5 49s-56.5 87.334 -56.5 164.001
c0 29.333 6.5 59.166 19.5 89.499s35.667 56.166 68 77.499s75.5 32 129.5 32c76.667 0 134.167 -26.167 172.5 -78.5s57.5 -128.166 57.5 -227.499c0 -79.333 -13.167 -142.333 -39.5 -189s-58.666 -79 -96.999 -97s-78.5 -27 -120.5 -27c-28.667 0 -55 3.33301 -79 10
s-43.833 14.167 -59.5 22.5s-23.5 12.833 -23.5 13.5l37 58c1.33301 0 14.5 -6 39.5 -18zM167.998 495.5c-22 -27 -33 -61.167 -33 -102.5c0 -38 10.167 -69.667 30.5 -95s49.5 -38 87.5 -38c40.667 0 74.5 7.5 101.5 22.5s46.167 35.5 57.5 61.5c-4 76 -19.333 127 -46 153
s-61 39 -103 39c-41.333 0 -73 -13.5 -95 -40.5z" />
    <glyph glyph-name="colon" unicode=":" horiz-adv-x="208" 
d="M147.5 425.5c12.333 -12.333 18.5 -26.833 18.5 -43.5s-6.16699 -31.167 -18.5 -43.5s-26.833 -18.5 -43.5 -18.5s-31.167 6.16699 -43.5 18.5s-18.5 26.833 -18.5 43.5s6.16699 31.167 18.5 43.5s26.833 18.5 43.5 18.5s31.167 -6.16699 43.5 -18.5zM147.5 90.5
c12.333 -12.333 18.5 -26.833 18.5 -43.5s-6.16699 -31.167 -18.5 -43.5s-26.833 -18.5 -43.5 -18.5s-31.167 6.16699 -43.5 18.5s-18.5 26.833 -18.5 43.5s6.16699 31.167 18.5 43.5s26.833 18.5 43.5 18.5s31.167 -6.16699 43.5 -18.5z" />
    <glyph glyph-name="semicolon" unicode=";" horiz-adv-x="208" 
d="M146.5 425.5c12.333 -12.333 18.5 -26.833 18.5 -43.5s-6.16699 -31.167 -18.5 -43.5s-26.833 -18.5 -43.5 -18.5s-31.167 6.16699 -43.5 18.5s-18.5 26.833 -18.5 43.5s6.16699 31.167 18.5 43.5s26.833 18.5 43.5 18.5s31.167 -6.16699 43.5 -18.5zM71.5 -59
c10.333 16.667 18.834 32.666 25.501 47.999c-16.667 1.33301 -30.167 7.5 -40.5 18.5s-15.5 24.167 -15.5 39.5c0 18 6.16699 32.833 18.5 44.5s27.833 17.5 46.5 17.5c18 0 33.833 -6.66699 47.5 -20s20.5 -29.333 20.5 -48c0 -22.667 -6.5 -46 -19.5 -70
s-27.667 -45.667 -44 -65s-24.5 -28.333 -24.5 -27l-35 30c3.33301 4.66699 10.166 15.334 20.499 32.001z" />
    <glyph glyph-name="less" unicode="&#x3c;" horiz-adv-x="466" 
d="M394 517l31 -64l-287 -139v-6l287 -155l-33 -64l-351 195v61z" />
    <glyph glyph-name="equal" unicode="=" horiz-adv-x="466" 
d="M50 347v69h366v-69h-366zM50 197v69h366v-69h-366z" />
    <glyph glyph-name="greater" unicode="&#x3e;" horiz-adv-x="466" 
d="M72 517l353 -172v-61l-351 -195l-33 64l287 155v6l-287 139z" />
    <glyph glyph-name="question" unicode="?" horiz-adv-x="373" 
d="M89 592.5c30.667 7 62.665 10.502 95.998 10.502c55.333 0 99.833 -12.833 133.5 -38.5s50.5 -58.834 50.5 -99.501c0 -29.333 -9 -54 -27 -74s-47 -40.667 -87 -62c-30 -15.333 -50.5 -28.166 -61.5 -38.499s-16.5 -21.166 -16.5 -32.499
c0 -9.33301 3.5 -17.833 10.5 -25.5s18.167 -15.834 33.5 -24.501l-39 -53c-32 17.333 -53.5 34.5 -64.5 51.5s-16.5 34.5 -16.5 52.5c0 24 7 44.167 21 60.5s38.333 34.166 73 53.499c26.667 15.333 46.334 27.666 59.001 36.999s21.167 18.333 25.5 27s6.5 19.667 6.5 33
c0 19.333 -10.5 35.5 -31.5 48.5s-48.167 19.5 -81.5 19.5c-30 0 -60 -6.33301 -90 -19l-13 -84l-66 7l17 123c14.667 11.333 37.334 20.5 68.001 27.5zM221.498 90.502c12.333 -12.333 18.5 -26.833 18.5 -43.5s-6.16699 -31.167 -18.5 -43.5s-26.833 -18.5 -43.5 -18.5
s-31.167 6.16699 -43.5 18.5s-18.5 26.833 -18.5 43.5s6.16699 31.167 18.5 43.5s26.833 18.5 43.5 18.5s31.167 -6.16699 43.5 -18.5z" />
    <glyph glyph-name="at" unicode="@" horiz-adv-x="751" 
d="M513 -74c-14.667 -8 -34.002 -15.3291 -58.002 -21.9961s-50.667 -10 -80 -10c-68 0 -125.167 13.833 -171.5 41.5s-81 65.5 -104 113.5s-34.5 102.667 -34.5 164c0 50 11.333 99.667 34 149s58 90.333 106 123s107.333 49 178 49c65.333 0 121.166 -14.333 167.499 -43
s81.333 -66.5 105 -113.5s35.5 -97.5 35.5 -151.5c0 -39.333 -6.83301 -73.833 -20.5 -103.5s-31.5 -52.334 -53.5 -68.001s-45 -23.5 -69 -23.5c-34 0 -62.667 15 -86 45c0 -1.33301 -3.66699 -5.33301 -11 -12s-17.5 -13 -30.5 -19s-28.167 -9 -45.5 -9
c-39.333 0 -72.833 13.667 -100.5 41s-41.5 68.666 -41.5 123.999c0 56 14.833 97.333 44.5 124s68.5 40 116.5 40c18 0 35.333 -2.66699 52 -8s30.334 -10.833 41.001 -16.5s17.334 -9.5 20.001 -11.5v-216c4 -6.66699 9.83301 -12.167 17.5 -16.5s16.167 -6.5 25.5 -6.5
c19.333 0 35.666 10.5 48.999 31.5s20 55.5 20 103.5c0 41.333 -7.83301 80.666 -23.5 117.999s-41.167 68.166 -76.5 92.499s-80.666 36.5 -135.999 36.5c-45.333 0 -86.333 -10.5 -123 -31.5s-65.5 -51 -86.5 -90s-31.5 -84.833 -31.5 -137.5
c0 -92 21.833 -157.833 65.5 -197.5s100.167 -59.5 169.5 -59.5c18.667 0 37.334 2.33301 56.001 7s34 9.5 46 14.5s19.667 8.5 23 10.5l33 -48c0 -1.33301 -7.33301 -6 -22 -14zM426.498 300.504c-11 3.66699 -22.501 5.5 -34.501 5.5c-28 0 -48.833 -8.5 -62.5 -25.5
s-20.5 -43.833 -20.5 -80.5c0 -34.667 6.83301 -60.834 20.5 -78.501s30.834 -26.5 51.501 -26.5c14.667 0 26.5 2.16699 35.5 6.5s15.667 8.83301 20 13.5s6.5 7.66699 6.5 9v170c0 0.666992 -5.5 2.83398 -16.5 6.50098z" />
    <glyph glyph-name="A" unicode="A" horiz-adv-x="651" 
d="M10 0v69h96l166 451h-101v69h194l181 -520h95v-69h-243v69h63l-32 91h-216l-34 -91h64v-69h-233zM238 229h167l-79 259z" />
    <glyph glyph-name="B" unicode="B" horiz-adv-x="556" 
d="M37 69l95.001 0.000976562v451h-95v69h255c71.333 0 125.833 -13.167 163.5 -39.5s56.5 -64.5 56.5 -114.5c0 -27.333 -7.33301 -52.833 -22 -76.5s-34.334 -41.834 -59.001 -54.501c29.333 -10.667 53.333 -28.5 72 -53.5s28 -54.833 28 -89.5
c0 -48.667 -16.5 -87.667 -49.5 -117s-82.167 -44 -147.5 -44h-297v69zM337.001 328.001c28.667 0 50.833 8.5 66.5 25.5s23.5 40.5 23.5 70.5c0 64 -41.333 96 -124 96h-91v-192h125zM330 70.001c38 0 66.833 8.49902 86.5 25.499s29.5 42.5 29.5 76.5
c0 30.667 -9.5 54.334 -28.5 71.001s-46.167 25 -81.5 25h-124l-1 -198h119z" />
    <glyph glyph-name="C" unicode="C" horiz-adv-x="575" 
d="M328 536c-64 0 -113.167 -21.3301 -147.5 -63.9971s-51.5 -101.667 -51.5 -177c0 -76 17.5 -135.333 52.5 -178s83.833 -64 146.5 -64c39.333 0 78.333 7 117 21l19 80l68 -16l-25 -116c0 -0.666992 -8.5 -4.33398 -25.5 -11.001s-38.833 -12.667 -65.5 -18
s-56 -8 -88 -8c-57.333 0 -107.333 12.833 -150 38.5s-75.667 62 -99 109s-35 101.833 -35 164.5c0 61.333 11.667 115.166 35 161.499s56.166 82.166 98.499 107.499s91.5 38 147.5 38c39.333 0 72.833 -3.5 100.5 -10.5s48.834 -14.5 63.501 -22.5s22 -12.667 22 -14
l22 -116l-68 -15l-20 86c-29.333 16 -68.333 24 -117 24z" />
    <glyph glyph-name="D" unicode="D" horiz-adv-x="649" 
d="M526 508.5c53.333 -53.667 80.001 -128.168 80.001 -223.501c0 -89.333 -26 -159.166 -78 -209.499s-124.333 -75.5 -217 -75.5h-274v69h95v451h-95v69h266c95.333 0 169.666 -26.833 222.999 -80.5zM463.001 123.499c38.667 36.333 57.999 90.167 57.999 161.5
c0 77.333 -18.5 135.833 -55.5 175.5s-91.167 59.5 -162.5 59.5h-91v-451h81c74.667 0 131.334 18.167 170.001 54.5z" />
    <glyph glyph-name="E" unicode="E" horiz-adv-x="587" 
d="M38 589h444l51 -154l-65 -22l-40 107h-214v-181h187v-69h-187l-1 -201h235l40 107l65 -22l-51 -154h-465v69h96l1 451h-96v69z" />
    <glyph glyph-name="F" unicode="F" horiz-adv-x="560" 
d="M38 589h443l51 -154l-65 -22l-40 107h-214v-187h165v-69h-166v-195h122v-69h-297v69h96l1 451h-96v69z" />
    <glyph glyph-name="G" unicode="G" horiz-adv-x="592" 
d="M434 0c-28 -10 -65.6631 -15.001 -112.996 -15.001c-52.667 0 -100 11.5 -142 34.5s-75 57.667 -99 104s-36 103.5 -36 171.5c0 62.667 11.833 117.334 35.5 164.001s57 82.5 100 107.5s93.167 37.5 150.5 37.5c75.333 0 136.666 -19 183.999 -57l23 -106l-69 -15l-18 77
c-18.667 11.333 -36.167 19.666 -52.5 24.999s-38.5 8 -66.5 8c-36 0 -69.333 -9.5 -100 -28.5s-55.334 -46.667 -74.001 -83s-28 -79.5 -28 -129.5c0 -82 18.167 -142.833 54.5 -182.5s82.166 -59.5 137.499 -59.5c31.333 0 56.666 2.83301 75.999 8.5
s39.333 15.834 60 30.501v129h-128v69h203v-236c-37.333 -26 -70 -44 -98 -54z" />
    <glyph glyph-name="H" unicode="H" horiz-adv-x="714" 
d="M38 589h240v-69h-64l-1 -184h288l1 184h-64v69h239v-69h-95l-3 -451h96v-69h-238v69h64v198h-288l-1 -198h64v-69h-239v69h96l1 451h-96v69z" />
    <glyph glyph-name="I" unicode="I" horiz-adv-x="345" 
d="M38 589h270v-69h-93l-2 -451h95v-69h-271v69h97v451h-96v69z" />
    <glyph glyph-name="J" unicode="J" horiz-adv-x="514" 
d="M339 51.5c-36 -43.667 -86.001 -65.499 -150.001 -65.499c-43.333 0 -89.666 9.66699 -138.999 29l-25 126l68 16l21 -89c27.333 -11.333 53 -17 77 -17c38 0 67.667 15.167 89 45.5s32 74.166 32 131.499l1 292h-132v69h306v-69h-94v-284
c0 -79.333 -18 -140.833 -54 -184.5z" />
    <glyph glyph-name="K" unicode="K" horiz-adv-x="669" 
d="M37 589h237v-69h-64v-188h93l138 188h-74v69h246v-69h-91l-151 -205l165 -246h100v-69h-269v69h81l-129 194h-109l1 -194h63v-69h-237v69h94v451h-94v69z" />
    <glyph glyph-name="L" unicode="L" horiz-adv-x="552" 
d="M37 589h308v-69h-113l-2 -451h189l39 106l66 -22l-53 -153h-434v69h114l1 451h-115v69z" />
    <glyph glyph-name="M" unicode="M" horiz-adv-x="845" 
d="M40 589h221l168 -429l166 429h213v-69h-94v-451h94v-69h-238v69h64v451l-45 -130l-122 -319h-86l-128 321l-46 128l-3 -451h66v-69h-234v69h96l1 451h-93v69z" />
    <glyph glyph-name="N" unicode="N" horiz-adv-x="718" 
d="M38 589h221l255 -467v398h-84v69h261v-69h-97v-520h-98l-284 520l2 -451h84v-69h-261v69h96l-1 451h-94v69z" />
    <glyph glyph-name="O" unicode="O" horiz-adv-x="636" 
d="M461 565.5c41.333 -25.667 73.502 -61.834 96.502 -108.501s34.5 -100.667 34.5 -162s-11.333 -115.5 -34 -162.5s-54.834 -83.333 -96.501 -109s-89.5 -38.5 -143.5 -38.5s-101.833 12.833 -143.5 38.5s-73.834 62 -96.501 109s-34 101.167 -34 162.5
s11.333 115.333 34 162s54.667 82.834 96 108.501s89 38.5 143 38.5c54.667 0 102.667 -12.833 144 -38.5zM179.002 471c-33.333 -42 -50 -100.667 -50 -176c0 -76 16.667 -135 50 -177s79.666 -63 138.999 -63s105.666 21 138.999 63s50 101 50 177
c0 75.333 -16.667 134 -50 176s-79.666 63 -138.999 63s-105.666 -21 -138.999 -63z" />
    <glyph glyph-name="P" unicode="P" horiz-adv-x="542" 
d="M465.5 542c37.667 -31.333 56.5 -77 56.5 -137c0 -60.667 -18.833 -107 -56.5 -139s-92.167 -48 -163.5 -48h-92v-149h120v-69h-293v69h93v451h-93v69h265c71.333 0 125.833 -15.667 163.5 -47zM437 404c0 77.333 -45.333 116 -136 116h-90v-232h90
c90.667 0 136 38.667 136 116z" />
    <glyph glyph-name="Q" unicode="Q" horiz-adv-x="663" 
d="M318 -15c-54 0 -101.667 12.666 -143 37.999s-73.5 61.333 -96.5 108s-34.5 101.334 -34.5 164.001s11.5 117.334 34.5 164.001s55 82.5 96 107.5s88.5 37.5 142.5 37.5c54.667 0 102.667 -12.5 144 -37.5s73.5 -60.833 96.5 -107.5s34.5 -101.334 34.5 -164.001
c0 -48 -6.83301 -91.333 -20.5 -130s-33.5 -71.667 -59.5 -99l134 -79l-53 -66l-125 106c-43.333 -28 -93.333 -42 -150 -42zM176.5 473.499c-31.667 -41.667 -47.5 -101.167 -47.5 -178.5s15.833 -137 47.5 -179s78.834 -63 141.501 -63s109.834 21 141.501 63
s47.5 101.667 47.5 179s-15.833 136.833 -47.5 178.5s-78.834 62.5 -141.501 62.5s-109.834 -20.833 -141.501 -62.5z" />
    <glyph glyph-name="R" unicode="R" horiz-adv-x="614" 
d="M587 69v-69h-149l-126 230h-10h-91v-161h63v-69h-237v69h94v451h-94v69h265c78 0 133.667 -14.5 167 -43.5s50 -73.833 50 -134.5c0 -46.667 -9.5 -84.167 -28.5 -112.5s-50.167 -47.833 -93.5 -58.5l99 -171h91zM302 301c30.667 0 55.333 2.83203 74 8.49902
s33 16.334 43 32.001s15 38.5 15 68.5c0 43.333 -10.5 72.5 -31.5 87.5s-54.5 22.5 -100.5 22.5h-90v-219h90z" />
    <glyph glyph-name="S" unicode="S" horiz-adv-x="536" 
d="M62 24l-18.999 122.005l66 6l14 -75c24 -8 47 -14 69 -18s48.667 -6 80 -6c40.667 0 74 8.66699 100 26s39 44.666 39 81.999c0 28.667 -7.66699 52.167 -23 70.5s-41.333 30.166 -78 35.499l-76 11c-56.667 8.66699 -100.334 27.5 -131.001 56.5s-46 65.833 -46 110.5
c0 47.333 17.833 85.666 53.5 114.999s88.167 44 157.5 44c38.667 0 71.667 -2.33301 99 -7s57.666 -13.334 90.999 -26.001l17 -124l-66 -7l-13 80c-30.667 11.333 -73 17 -127 17c-43.333 0 -77.333 -7.83301 -102 -23.5s-37 -37.834 -37 -66.501
c0 -54 34.667 -85.667 104 -95l91 -14c55.333 -8 96.833 -26.5 124.5 -55.5s41.5 -65.833 41.5 -110.5c0 -40 -9.66699 -74 -29 -102s-45.666 -49.167 -78.999 -63.5s-70 -21.5 -110 -21.5c-74 0 -144.333 13 -211 39z" />
    <glyph glyph-name="T" unicode="T" horiz-adv-x="587" 
d="M36 589h515v-164h-76v95h-141l-2 -451h95v-69h-270v69h95l1 451h-141v-95h-76v164z" />
    <glyph glyph-name="U" unicode="U" horiz-adv-x="678" 
d="M500 46c-36.667 -40.667 -92 -61.001 -166 -61.001c-71.333 0 -124.333 20.333 -159 61s-52 97 -52 169v305h-96v69h240v-69h-64v-332c0 -45.333 11.667 -79.166 35 -101.499s55.333 -33.5 96 -33.5c44 0 78.5 12.167 103.5 36.5s37.5 60.5 37.5 108.5v322h-64v69h240
v-69h-96v-305c0 -72 -18.333 -128.333 -55 -169z" />
    <glyph glyph-name="V" unicode="V" horiz-adv-x="660" 
d="M4 589h245v-69h-64l103 -274l53 -157l47 149l99 282h-64v69h233v-69h-94l-177 -520h-90l-196 520h-95v69z" />
    <glyph glyph-name="W" unicode="W" horiz-adv-x="912" 
d="M1 589h243v-69h-64l84 -283l44 -146l30 141l82 282h88l70 -276l32 -146l43 146l93 282h-64v69h229v-69h-95l-164 -520h-92l-71 269l-32 135l-39 -140l-70 -264h-86l-166 520h-95v69z" />
    <glyph glyph-name="X" unicode="X" horiz-adv-x="664" 
d="M20 0v69h85l173 232l-174 219h-85v69h252v-69h-64l126 -159l118 159h-69v69h250v-69h-95l-159 -215l187 -236h85v-69h-261v69h74l-141 176l-131 -176h74v-69h-245z" />
    <glyph glyph-name="Y" unicode="Y" horiz-adv-x="651" 
d="M4 589h239v-69h-53l139 -196l156 196h-75v69h237v-69h-68l-213 -263l-2 -188h94v-69h-267v69h94l1 185l-198 266h-84v69z" />
    <glyph glyph-name="Z" unicode="Z" horiz-adv-x="534" 
d="M61 589h419v-52l-337 -468h251l40 107l66 -22l-52 -154h-407v56l334 464h-258l-20 -97l-64 9z" />
    <glyph glyph-name="bracketleft" unicode="[" horiz-adv-x="231" 
d="M56 652h180v-63h-103v-650h103v-63h-180v776z" />
    <glyph glyph-name="backslash" unicode="\" horiz-adv-x="349" 
d="M-26 589h73l328 -720h-74z" />
    <glyph glyph-name="bracketright" unicode="]" horiz-adv-x="231" 
d="M-5 652h180v-776h-180v63h103v650h-103v63z" />
    <glyph glyph-name="asciicircum" unicode="^" horiz-adv-x="466" 
d="M270 717l188 -290l-57 -42l-155 234h-7l-155 -234l-57 42l188 290h55z" />
    <glyph glyph-name="underscore" unicode="_" horiz-adv-x="587" 
d="M64 -19h459v-69h-459v69z" />
    <glyph glyph-name="grave" unicode="`" horiz-adv-x="285" 
d="M198 484l-148 164l59 44l126 -180z" />
    <glyph glyph-name="a" unicode="a" horiz-adv-x="525" 
d="M208 -15c-56.667 0 -99.5 11.4971 -128.5 34.4971s-43.5 56.5 -43.5 100.5c0 42.667 14 74.834 42 96.501s69.333 32.5 124 32.5l129 -1c0 44.667 -8.33301 77.834 -25 99.501s-42 32.5 -76 32.5c-33.333 0 -63.333 -4 -90 -12l-10 -55l-64 12l16 91
c52 18.667 100.333 28 145 28c60 0 105.333 -16.167 136 -48.5s46 -80.166 46 -143.499v-174l95 -31l-20 -64l-135 46c-43.333 -29.333 -90.333 -44 -141 -44zM138.5 168.997c-15 -11.333 -22.499 -28 -22.499 -50c0 -22.667 8.16699 -40 24.5 -52s40.166 -18 71.499 -18
c46 0 85.667 12.667 119 38v98l-126 1c-29.333 0 -51.5 -5.66699 -66.5 -17z" />
    <glyph glyph-name="b" unicode="b" horiz-adv-x="516" 
d="M152 -1c-32.667 9.33301 -61.334 23.333 -86.001 42v513l-95 33l21 62l151 -52v-186c41.333 22 80 33 116 33c72.667 0 126.334 -17.667 161.001 -53s52 -90.333 52 -165c0 -82.667 -17.5 -143.5 -52.5 -182.5s-89.833 -58.5 -164.5 -58.5c-36 0 -70.333 4.66699 -103 14
zM358.5 92c22.333 28.667 33.501 73.333 33.501 134c0 52.667 -10.833 91.5 -32.5 116.5s-55.5 37.5 -101.5 37.5c-36 0 -74.333 -12.333 -115 -37v-269c29.333 -16.667 66.333 -25 111 -25c47.333 0 82.166 14.333 104.499 43z" />
    <glyph glyph-name="c" unicode="c" horiz-adv-x="469" 
d="M267 383c-46 0 -81.999 -14.335 -107.999 -43.002s-39 -70.334 -39 -125.001c0 -52 14 -92.333 42 -121s63.333 -43 106 -43c44 0 86 13.667 126 41l33 -49c-28.667 -20.667 -54.334 -35.5 -77.001 -44.5s-53.334 -13.5 -92.001 -13.5c-42.667 0 -80.5 9.33301 -113.5 28
s-58.667 45.334 -77 80.001s-27.5 75.334 -27.5 122.001c0 48 10 89.5 30 124.5s47.333 61.5 82 79.5s73.334 27 116.001 27c23.333 0 44.5 -2.16699 63.5 -6.5s48.5 -12.166 88.5 -23.499l14 -108l-64 -14l-13 75c-28.667 9.33301 -58.667 14 -90 14z" />
    <glyph glyph-name="d" unicode="d" horiz-adv-x="563" 
d="M389 29c-19.333 -14 -40.5 -24.833 -63.5 -32.5s-45.167 -11.5 -66.5 -11.5c-68.667 0 -122.167 21 -160.5 63s-57.5 100.667 -57.5 176c0 69.333 19.167 123.333 57.5 162s91.833 58 160.5 58c37.333 0 74.333 -7 111 -21v131l-95 33l21 62l152 -52v-518l94 -32l-20 -64
zM315 59c20 6.66699 38.333 15.667 55 27v269c-15.333 7.33301 -33 13.333 -53 18s-39 7 -57 7c-41.333 0 -74.833 -14.167 -100.5 -42.5s-38.5 -65.833 -38.5 -112.5c0 -52.667 12.833 -95.167 38.5 -127.5s59.167 -48.5 100.5 -48.5c16.667 0 35 3.33301 55 10z" />
    <glyph glyph-name="e" unicode="e" horiz-adv-x="491" 
d="M364 1c-28 -10.667 -59.334 -15.999 -94.001 -15.999c-71.333 0 -127.666 20.333 -168.999 61s-62 97 -62 169c0 45.333 9 85.333 27 120s43.5 61.5 76.5 80.5s71.167 28.5 114.5 28.5c60 0 107.333 -18.833 142 -56.5s52 -88.5 52 -152.5c0 -8 -0.666992 -20.667 -2 -38
l-333 -2c2.66699 -48.667 18.167 -85 46.5 -109s63.166 -36 104.499 -36c56.667 0 104.334 16 143.001 48l36 -47c-26.667 -22.667 -54 -39.334 -82 -50.001zM341.499 348.501c-21 23 -48.834 34.499 -83.501 34.499c-36 0 -67.167 -11.667 -93.5 -35
s-42.166 -53.666 -47.499 -90.999l257 1c-0.666992 37.333 -11.5 67.5 -32.5 90.5z" />
    <glyph glyph-name="f" unicode="f" horiz-adv-x="349" 
d="M167 613.5c31.333 29.667 75.332 44.498 131.999 44.498c24 0 47 -3.66699 69 -11s40.667 -17.666 56 -30.999l-31 -55c-11.333 10.667 -25.666 18.834 -42.999 24.501s-36 8.5 -56 8.5c-30 0 -53.5 -10.667 -70.5 -32s-25.5 -51 -25.5 -89v-44h124v-62h-124v-305h90v-62
h-252v62h84v305h-84v62h84v60c0 53.333 15.667 94.833 47 124.5z" />
    <glyph glyph-name="g" unicode="g" horiz-adv-x="535" 
d="M450 -89c0 -42 -18.832 -74.8301 -56.499 -98.4971s-89.834 -35.5 -156.501 -35.5c-32 0 -71 5.16699 -117 15.5s-78.333 21.166 -97 32.499l28 59c23.333 -12 52.666 -21.833 87.999 -29.5s68 -11.5 98 -11.5c43.333 0 76.833 5 100.5 15s35.5 25.333 35.5 46
c0 40.667 -34.667 61 -104 61h-143v171c-30 12.667 -53 31.167 -69 55.5s-24 53.166 -24 86.499c0 50.667 17.667 91 53 121s83.333 45 144 45c48.667 0 89.334 -9.33301 122.001 -28l142 53l23 -66l-118 -27c20 -24.667 30 -55.667 30 -93
c0 -50.667 -18 -90.834 -54 -120.501s-84.667 -44.5 -146 -44.5c-12 0 -21 0.333008 -27 1v-92h88c106.667 0 160 -38.667 160 -116zM142.501 354.003c-20.333 -17.333 -30.5 -41.666 -30.5 -72.999c0 -29.333 10.833 -53.166 32.5 -71.499s50.5 -27.5 86.5 -27.5
s64.833 9.16699 86.5 27.5s32.5 42.166 32.5 71.499c0 31.333 -10.167 55.666 -30.5 72.999s-49.833 26 -88.5 26s-68.167 -8.66699 -88.5 -26z" />
    <glyph glyph-name="h" unicode="h" horiz-adv-x="600" 
d="M21 62l84 0.000976562v493l-95 33l21 62l152 -52v-196c20.667 13.333 42.334 23.666 65.001 30.999s44.667 11 66 11c61.333 0 106.5 -13.667 135.5 -41s43.5 -70 43.5 -128v-213h84v-62h-207v62h45v197c0 42.667 -8.33301 73.5 -25 92.5s-43.667 28.5 -81 28.5
c-22 0 -44.833 -3.16699 -68.5 -9.5s-42.834 -14.5 -57.501 -24.5v-284h45v-62h-207v62z" />
    <glyph glyph-name="i" unicode="i" horiz-adv-x="304" 
d="M36 429h162v-367h83v-62h-245v62h83v305h-83v62zM193 625c11.333 -11.333 17 -26.333 17 -45s-5.66699 -33.667 -17 -45s-26.333 -17 -45 -17s-33.5 5.66699 -44.5 17s-16.5 26.333 -16.5 45s5.5 33.667 16.5 45s25.833 17 44.5 17s33.667 -5.66699 45 -17z" />
    <glyph glyph-name="j" unicode="j" horiz-adv-x="254" 
d="M175.5 -127c-6.33301 -26 -22.833 -48.5 -49.5 -67.5s-67.667 -28.5 -123 -28.5c-6 0 -14.667 0.5 -26 1.5s-19 1.83301 -23 2.5l10 61c17.333 -1.33301 31.333 -2 42 -2c33.333 0 57.333 6.16699 72 18.5s23.167 26 25.5 41s3.5 36.167 3.5 63.5v404h-84v62h162v-460
c0 -38 -3.16699 -70 -9.5 -96zM181 625c11.333 -11.333 17 -26.333 17 -45s-5.66699 -33.667 -17 -45s-26.333 -17 -45 -17s-33.5 5.66699 -44.5 17s-16.5 26.333 -16.5 45s5.5 33.667 16.5 45s25.833 17 44.5 17s33.667 -5.66699 45 -17z" />
    <glyph glyph-name="k" unicode="k" horiz-adv-x="551" 
d="M33 651l152 -52v-350h91l69 118h-52v62h210v-62h-84l-83 -143l97 -162h86v-62h-133l-113 187h-88v-125h45v-62h-207v62h84v494l-95 33z" />
    <glyph glyph-name="l" unicode="l" horiz-adv-x="292" 
d="M23 0v62h84v504l-100 22l17 64l161 -37v-553h84v-62h-246z" />
    <glyph glyph-name="m" unicode="m" horiz-adv-x="883" 
d="M42 62h83.999v287l-96 33l21 62l132 -46c18.667 14 40.167 25.167 64.5 33.5s47.833 12.5 70.5 12.5c67.333 0 115.333 -17.333 144 -52c16.667 15.333 38.167 27.833 64.5 37.5s52.166 14.5 77.499 14.5c60.667 0 104.5 -13.333 131.5 -40s40.5 -69.667 40.5 -129v-213
h84v-62h-207v62h45v197c0 44 -7.5 75.167 -22.5 93.5s-40.5 27.5 -76.5 27.5c-21.333 0 -42.166 -3.16699 -62.499 -9.5s-35.833 -14.5 -46.5 -24.5v-284h45v-62h-168v62h45v197c0 44 -7.5 75.167 -22.5 93.5s-40.5 27.5 -76.5 27.5
c-21.333 0 -42.166 -3.16699 -62.499 -9.5s-35.833 -14.5 -46.5 -24.5v-284h45v-62h-207v62z" />
    <glyph glyph-name="n" unicode="n" horiz-adv-x="621" 
d="M42 62h83.999v287l-96 33l21 62l133 -46c46.667 30.667 97.334 46 152.001 46c50.667 0 93 -14.667 127 -44s51 -71 51 -125v-213h84v-62h-207v62h45v197c0 40.667 -10.333 71 -31 91s-48 30 -82 30c-38 0 -77.667 -11.333 -119 -34v-284h45v-62h-207v62z" />
    <glyph glyph-name="o" unicode="o" horiz-adv-x="521" 
d="M375.5 416c33.667 -18.667 59.666 -45.1709 77.999 -79.5039s27.5 -75.166 27.5 -122.499c0 -70.667 -20.167 -126.5 -60.5 -167.5s-94.166 -61.5 -161.499 -61.5c-42.667 0 -80.5 9.16699 -113.5 27.5s-58.667 44.833 -77 79.5s-27.5 75.334 -27.5 122.001
s9.16699 87.334 27.5 122.001s44 61.334 77 80.001s70.833 28 113.5 28c44 0 82.833 -9.33301 116.5 -28zM156.499 336.996c-23.667 -28.667 -35.5 -69.667 -35.5 -123s11.833 -94.166 35.5 -122.499s58.167 -42.5 103.5 -42.5c46.667 0 81.834 14.167 105.501 42.5
s35.5 69.166 35.5 122.499s-11.833 94.333 -35.5 123s-58.834 43 -105.501 43c-45.333 0 -79.833 -14.333 -103.5 -43z" />
    <glyph glyph-name="p" unicode="p" horiz-adv-x="561" 
d="M30 -146l84 0.00195312v498l-94 31l20 64l134 -46c22 13.333 44.5 23.833 67.5 31.5s44.833 11.5 65.5 11.5c66 0 118.167 -19.333 156.5 -58s57.5 -91.334 57.5 -158.001c0 -47.333 -9.16699 -89.333 -27.5 -126s-44 -65.334 -77 -86.001s-70.833 -31 -113.5 -31
c-38 0 -75 5.66699 -111 17v-148h84v-62h-246v62zM404 96.502c24.667 31.667 37.0029 75.5 37.0029 131.5c0 101.333 -45 152 -135 152c-20.667 0 -41.834 -3.5 -63.501 -10.5s-38.5 -15.833 -50.5 -26.5v-269c11.333 -7.33301 27.166 -13.333 47.499 -18
s41.166 -7 62.499 -7c43.333 0 77.333 15.833 102 47.5z" />
    <glyph glyph-name="q" unicode="q" horiz-adv-x="514" 
d="M287 -146h84.001v163c-17.333 -10 -36 -17.833 -56 -23.5s-38.667 -8.5 -56 -8.5c-68.667 0 -122.167 21 -160.5 63s-57.5 100.667 -57.5 176c0 68 20.667 121.667 62 161s96.666 59 165.999 59c77.333 0 137.333 -19 180 -57v-533h84v-62h-246v62zM317.501 59.5
c20.333 7 38.166 16.167 53.499 27.5v267c-17.333 8.66699 -34.166 15.167 -50.499 19.5s-36.5 6.5 -60.5 6.5c-41.333 0 -74.833 -14.167 -100.5 -42.5s-38.5 -65.833 -38.5 -112.5c0 -52.667 12.833 -95.167 38.5 -127.5s59.167 -48.5 100.5 -48.5
c18 0 37.167 3.5 57.5 10.5z" />
    <glyph glyph-name="r" unicode="r" horiz-adv-x="418" 
d="M261.5 431.5c29 8.33301 57.834 12.5 86.501 12.5c24 0 36.667 -0.666992 38 -2l17 -105l-65 -14l-10 56c-20.667 0 -41.834 -3 -63.501 -9s-41.5 -14.333 -59.5 -25v-283h98v-62h-260v62h84v286l-96 33l21 62l133 -46c22 14.667 47.5 26.167 76.5 34.5z" />
    <glyph glyph-name="s" unicode="s" horiz-adv-x="450" 
d="M271 380.5c-13.333 3 -29.999 4.50293 -49.999 4.50293c-26.667 0 -49.834 -6 -69.501 -18s-29.5 -27.667 -29.5 -47c0 -38.667 32.333 -61.334 97 -68.001l41 -4c52.667 -5.33301 90.5 -18.5 113.5 -39.5s34.5 -49.833 34.5 -86.5c0 -40.667 -16.667 -73.667 -50 -99
s-76.666 -38 -129.999 -38c-32 0 -63.5 4.16699 -94.5 12.5s-58.167 19.166 -81.5 32.499l-17 101l69 17l15 -70c31.333 -18 66.666 -27 105.999 -27c31.333 0 57.666 6.16699 78.999 18.5s32 29.166 32 50.499c0 19.333 -6.5 33.333 -19.5 42s-36.5 15 -70.5 19l-44 5
c-48.667 5.33301 -86.167 19.5 -112.5 42.5s-39.5 51.833 -39.5 86.5c0 41.333 17 73.333 51 96s74.333 34 121 34c30.667 0 58.334 -2.83301 83.001 -8.5s48.667 -14.5 72 -26.5l18 -95l-63 -14l-17 65c-16 6.66699 -30.667 11.5 -44 14.5z" />
    <glyph glyph-name="t" unicode="t" horiz-adv-x="363" 
d="M145.5 22.5c-26.333 25 -39.501 67.167 -39.501 126.5v218h-83v62h83v97l76 18v-115h125v-62h-125v-174c0 -50 4.83301 -87.333 14.5 -112s28.167 -37 55.5 -37c20.667 0 44 6 70 18l15 -56c-35.333 -14 -65.333 -21 -90 -21c-41.333 0 -75.166 12.5 -101.499 37.5z" />
    <glyph glyph-name="u" unicode="u" horiz-adv-x="609" 
d="M361 -3c-26.667 -8 -51.667 -12 -75 -12c-61.333 0 -106.5 13.667 -135.5 41s-43.5 70 -43.5 128v213h-84v62h162v-259c0 -42.667 8.33301 -73.5 25 -92.5s43.667 -28.5 81 -28.5c21.333 0 44 3.16699 68 9.5s43.333 14.5 58 24.5v284h-84v62h162v-351l94 -32l-20 -64
l-136 47c-21.333 -13.333 -45.333 -24 -72 -32z" />
    <glyph glyph-name="v" unicode="v" horiz-adv-x="576" 
d="M2 429h210v-62h-46l126 -298l126 298h-44v62h200v-62h-78l-164 -367h-88l-159 367h-83v62z" />
    <glyph glyph-name="w" unicode="w" horiz-adv-x="741" 
d="M206 0l-120 367h-84v62h226v-62h-65l55 -171l33 -104l31 102l54 174h76l55 -179l31 -99l30 94l59 183h-54v62h206v-62h-85l-117 -367h-76l-87 270l-90 -270h-78z" />
    <glyph glyph-name="x" unicode="x" horiz-adv-x="591" 
d="M25 0v62h87l130 155l-142 150h-75v62h227v-62h-54l107 -113l93 113h-44v62h200v-62h-75l-132 -157l141 -148h84v-62h-228v62h45l-104 109l-92 -109h44v-62h-212z" />
    <glyph glyph-name="y" unicode="y" horiz-adv-x="543" 
d="M542 429l0.000976562 -62h-72l-163 -457c-31.333 -89.333 -83 -134 -155 -134c-22 0 -44 3.66699 -66 11l12 60c18 -5.33301 34 -8 48 -8c19.333 0 34.833 2.83301 46.5 8.5s22.167 16.5 31.5 32.5s19.666 40.333 30.999 73l5 14l-188 400h-71v62h208v-62h-57l138 -313
l107 313h-55v62h200z" />
    <glyph glyph-name="z" unicode="z" horiz-adv-x="452" 
d="M42 0v53l268 314h-204l-11 -56l-65 14l19 104h351v-50l-270 -317h212l10 60l67 -12l-21 -110h-356z" />
    <glyph glyph-name="braceleft" unicode="{" horiz-adv-x="237" 
d="M80 304.5c2.66699 14.333 4 33.5 4 57.5v122c0 52.667 12 92.834 36 120.501s62.333 43.5 115 47.5l8 -61c-34.667 -4 -58 -16.333 -70 -37s-18 -49.334 -18 -86.001v-126c0 -42.667 -17 -71.667 -51 -87c34 -14 51 -42.667 51 -86v-116c0 -36.667 6 -65.334 18 -86.001
s35.333 -33 70 -37l-8 -61c-52.667 4 -91 19.833 -115 47.5s-36 67.834 -36 120.501v112c0 24 -1.33301 43.167 -4 57.5s-10.334 21.5 -23.001 21.5h-72v55h72c12.667 0 20.334 7.16699 23.001 21.5z" />
    <glyph glyph-name="bar" unicode="|" horiz-adv-x="288" 
d="M109 653h70v-860h-70v860z" />
    <glyph glyph-name="braceright" unicode="}" horiz-adv-x="238" 
d="M158 206.5c-2.66699 -14.333 -4 -33.5 -4 -57.5v-112c0 -52.667 -12 -92.834 -36 -120.501s-62.333 -43.5 -115 -47.5l-9 61c35.333 4 59 16.333 71 37s18 49.334 18 86.001v116c0 43.333 17 72 51 86c-34 15.333 -51 44.333 -51 87v126c0 36.667 -6 65.334 -18 86.001
s-35.667 33 -71 37l9 61c52.667 -4 91 -19.833 115 -47.5s36 -67.834 36 -120.501v-122c0 -24 1.33301 -43.167 4 -57.5s10.334 -21.5 23.001 -21.5h72v-55h-72c-12.667 0 -20.334 -7.16699 -23.001 -21.5z" />
    <glyph glyph-name="asciitilde" unicode="~" horiz-adv-x="466" 
d="M42 308c22.667 15.333 42.001 25.999 58.001 31.999s34.667 9 56 9c16 0 30.667 -1.83301 44 -5.5s28.333 -9.16699 45 -16.5c13.333 -6 25.333 -10.667 36 -14s21.667 -5 33 -5c14 0 26.5 1.83301 37.5 5.5s23.833 11.834 38.5 24.501l34 -54
c-28.667 -18.667 -49.667 -30.5 -63 -35.5s-32.333 -7.5 -57 -7.5c-18.667 0 -42.667 7 -72 21c-16 6.66699 -28.833 11.667 -38.5 15s-19.834 5 -30.501 5c-17.333 0 -32 -2.16699 -44 -6.5s-26 -11.5 -42 -21.5z" />
    <glyph glyph-name="uni00A0" unicode="&#xa0;" horiz-adv-x="251" 
 />
    <glyph glyph-name="exclamdown" unicode="&#xa1;" horiz-adv-x="205" 
d="M145.5 425.5c12.333 -12.333 18.5 -26.833 18.5 -43.5s-6.16699 -31.167 -18.5 -43.5s-26.833 -18.5 -43.5 -18.5s-31.167 6.16699 -43.5 18.5s-18.5 26.833 -18.5 43.5c0 17.333 6.16699 32 18.5 44s26.833 18 43.5 18s31.167 -6.16699 43.5 -18.5zM73 243h58l12 -451
h-79z" />
    <glyph glyph-name="cent" unicode="&#xa2;" horiz-adv-x="425" 
d="M296.5 453c-9.66699 2.66699 -18.499 3.99707 -26.499 3.99707v-327c17.333 3.33301 36 8.83301 56 16.5s36.333 15.834 49 24.501l33 -49c-53.333 -32.667 -99.333 -51.334 -138 -56.001v-101h-69v101c-56 8.66699 -100 33 -132 73s-48 91.333 -48 154
c0 62 16.167 113.333 48.5 154s76.166 64.667 131.499 72v102h69v-100c21.333 -1.33301 41.833 -4.16602 61.5 -8.49902s34.5 -9.16602 44.5 -14.499l21 -108l-64 -14l-13 69c-6 2.66699 -13.833 5.33398 -23.5 8.00098zM126.501 401.997
c-17 -27.333 -25.5 -63.6699 -25.5 -109.003s8.5 -81.666 25.5 -108.999s41.833 -44.666 74.5 -51.999v322c-32.667 -7.33301 -57.5 -24.666 -74.5 -51.999z" />
    <glyph glyph-name="sterling" unicode="&#xa3;" horiz-adv-x="537" 
d="M517 30c-14 -12 -33.3369 -22.502 -58.0039 -31.502s-47 -13.5 -67 -13.5c-23.333 0 -43.333 2.16699 -60 6.5s-34.667 10.833 -54 19.5c-17.333 6.66699 -31.666 11.667 -42.999 15s-24.333 5 -39 5c-23.333 0 -45.166 -3.33301 -65.499 -10s-42.166 -18 -65.499 -34
l-40 53c36.667 24 63.334 50.167 80.001 78.5s25 61.166 25 98.499c0 8.66699 -1.33301 24.334 -4 47.001h-91v59h80c-3.33301 26.667 -5 49.334 -5 68.001c0 68.667 17.167 121.334 51.5 158.001s84.833 55 151.5 55c32.667 0 60.167 -3.5 82.5 -10.5
s49.5 -19.833 81.5 -38.5l20 -130l-67 -9l-22 101c-15.333 10 -30.5 16.833 -45.5 20.5s-33.5 5.5 -55.5 5.5c-35.333 0 -63.833 -13 -85.5 -39s-32.5 -63.667 -32.5 -113c0 -20 2 -42.667 6 -68h165v-59h-154c3.33301 -22 5 -39.667 5 -53c0 -26 -5.66699 -48.333 -17 -67
s-31 -41 -59 -67l2 -3c25.333 16.667 54 25 86 25c17.333 0 33 -1.83301 47 -5.5s29.667 -9.16699 47 -16.5c18 -6.66699 32.667 -11.667 44 -15s24 -5 38 -5c13.333 0 27.5 3 42.5 9s27.833 13.333 38.5 22z" />
    <glyph glyph-name="currency" unicode="&#xa4;" horiz-adv-x="497" 
d="M42 152l66.998 44c-21.333 29.333 -32 62 -32 98c0 38 11 71.333 33 100l-68 46l36 53l82 -56c24.667 15.333 53.334 23 86.001 23s62.334 -7.33301 89.001 -22l81 55l35 -52l-66 -45c24 -28.667 36 -62.667 36 -102c0 -38 -11 -71 -33 -99l64 -42l-36 -53l-79 52
c-28 -14.667 -58 -22 -90 -22s-61.667 7.66699 -89 23l-80 -54zM323.998 218c20.667 20.667 31 46 31 76s-10.333 55.667 -31 77s-46 32 -76 32c-29.333 0 -54.333 -10.667 -75 -32s-31 -47 -31 -77c0 -29.333 10.333 -54.5 31 -75.5s45.667 -31.5 75 -31.5
c30 0 55.333 10.333 76 31z" />
    <glyph glyph-name="yen" unicode="&#xa5;" horiz-adv-x="657" 
d="M194 0v69h94v63h-164v58h164v46h-164v58h150l-183 226h-84v69h239v-69h-53l141 -176l134 176h-55v69h237v-69h-96l-173 -226h150v-58h-163v-46h163v-58h-163l-1 -63h94v-69h-267z" />
    <glyph glyph-name="brokenbar" unicode="&#xa6;" horiz-adv-x="288" 
d="M109 653h70v-353h-70v353zM109 144h70v-353h-70v353z" />
    <glyph glyph-name="section" unicode="&#xa7;" horiz-adv-x="519" 
d="M386 159c16 -12 27.667 -26 35 -42s11 -34.333 11 -55c0 -28 -8.33301 -52.833 -25 -74.5s-38.834 -38.5 -66.501 -50.5s-57.5 -18 -89.5 -18c-64.667 0 -121.334 16 -170.001 48l-14 88l61 12l11 -52c24.667 -21.333 61.667 -32 111 -32c32 0 57 6.16699 75 18.5
s27 30.166 27 53.499c0 18.667 -10 34.5 -30 47.5s-52.333 26.167 -97 39.5c-43.333 14 -77.5 33.333 -102.5 58s-37.5 52.667 -37.5 84c0 24 6.66699 44.833 20 62.5s31 29.834 53 36.501c-41.333 28 -62 61.667 -62 101c0 42.667 16.833 75 50.5 97s76.5 33 128.5 33
c27.333 0 54.333 -4.33301 81 -13s50.334 -20.667 71.001 -36l14 -92l-72 -12l-11 67c-27.333 14.667 -55.666 22 -84.999 22c-30.667 0 -54.667 -4.66699 -72 -14s-26 -24 -26 -44c0 -16.667 8.83301 -32 26.5 -46s46.5 -27 86.5 -39c46.667 -14 83 -34 109 -60
s39 -56.333 39 -91c0 -36.667 -16.667 -69 -50 -97zM336 186c14 16 20.999 35.001 20.999 57.001c0 22.667 -8.66699 42.167 -26 58.5s-47 30.833 -89 43.5c-13.333 4 -26.666 8.66699 -39.999 14c-12 -4.66699 -21.333 -12.834 -28 -24.501s-10 -24.5 -10 -38.5
c0 -20 9 -37 27 -51s47.667 -27.333 89 -40c24 -6.66699 42.667 -13 56 -19z" />
    <glyph glyph-name="dieresis" unicode="&#xa8;" horiz-adv-x="353" 
d="M125.5 582.5c11 -11 16.5 -24.167 16.5 -39.5s-5.5 -28.5 -16.5 -39.5s-24.167 -16.5 -39.5 -16.5s-28.5 5.5 -39.5 16.5s-16.5 24.167 -16.5 39.5s5.5 28.5 16.5 39.5s24.167 16.5 39.5 16.5s28.5 -5.5 39.5 -16.5zM303.5 582.5c11 -11 16.5 -24.167 16.5 -39.5
s-5.5 -28.5 -16.5 -39.5s-24.167 -16.5 -39.5 -16.5s-28.5 5.5 -39.5 16.5s-16.5 24.167 -16.5 39.5s5.5 28.5 16.5 39.5s24.167 16.5 39.5 16.5s28.5 -5.5 39.5 -16.5z" />
    <glyph glyph-name="copyright" unicode="&#xa9;" horiz-adv-x="839" 
d="M604.5 606c54.333 -30.667 96.667 -73.167 127 -127.5s45.5 -116.166 45.5 -185.499c0 -67.333 -15.333 -128.166 -46 -182.499s-73 -96.833 -127 -127.5s-115 -46 -183 -46c-68.667 0 -130.167 15.333 -184.5 46s-97 73.167 -128 127.5s-46.5 115.166 -46.5 182.499
c0 69.333 15.5 131.166 46.5 185.499s73.667 96.833 128 127.5s115.833 46 184.5 46c68 0 129.167 -15.333 183.5 -46zM264.501 549.5c-44.333 -26.333 -78.666 -62.332 -102.999 -107.999s-36.5 -96.834 -36.5 -153.501c0 -54 12.167 -103 36.5 -147
s58.666 -78.5 102.999 -103.5s95.166 -37.5 152.499 -37.5c56.667 0 107.667 12.667 153 38s80.666 59.833 105.999 103.5s38 92.5 38 146.5c0 56 -12.667 107 -38 153s-60.666 82.167 -105.999 108.5s-96.333 39.5 -153 39.5c-57.333 0 -108.166 -13.167 -152.499 -39.5z
M494.501 413.501c-5 2.33301 -12.1699 4.66895 -21.5029 7.00195s-20.666 3.5 -33.999 3.5c-42.667 0 -74.167 -11.833 -94.5 -35.5s-30.5 -55.167 -30.5 -94.5c0 -38.667 10.667 -70 32 -94s52.333 -36 93 -36c14.667 0 29.334 2.16699 44.001 6.5s22 7.16602 22 8.49902
l15 47l58 -17l-26 -80c-2.66699 -1.33301 -9 -3.83301 -19 -7.5s-23.833 -7.33398 -41.5 -11.001s-37.167 -5.5 -58.5 -5.5c-58.667 0 -104.667 16 -138 48s-50.666 78.667 -51.999 140c0 62 16.833 109.333 50.5 142s80.167 49 139.5 49c23.333 0 43.833 -2.66699 61.5 -8
s32 -11 43 -17s16.5 -9.33301 16.5 -10l23 -71l-55 -17l-18 48c-1.33301 0.666992 -4.5 2.16699 -9.5 4.5z" />
    <glyph glyph-name="ordfeminine" unicode="&#xaa;" horiz-adv-x="354" 
d="M244 186c-18 -9.33301 -33.833 -16.167 -47.5 -20.5s-28.5 -6.5 -44.5 -6.5c-33.333 0 -59.5 8.16699 -78.5 24.5s-28.5 37.166 -28.5 62.499c0 26.667 9.66699 46.667 29 60s44 20 74 20l74 -1c0 28 -3.83301 47 -11.5 57s-22.834 15 -45.501 15
c-17.333 0 -33.666 -2.33301 -48.999 -7l-8 -34l-47 9l11 61c2 0.666992 7 2.5 15 5.5s18.833 5.83301 32.5 8.5s28.167 4 43.5 4c34.667 0 60.5 -5.83301 77.5 -17.5s27.667 -25.667 32 -42s6.5 -36.166 6.5 -59.499v-103l44 -16l-15 -46zM222 229.999v51.001h-72
c-14.667 0 -26.167 -2.5 -34.5 -7.5s-12.5 -14.833 -12.5 -29.5c0 -12.667 4.83301 -22.334 14.5 -29.001s22.167 -10 37.5 -10c24.667 0 47 8.33301 67 25z" />
    <glyph glyph-name="guillemotleft" unicode="&#xab;" horiz-adv-x="314" 
d="M152 432l50 -35l-128 -180l128 -180l-50 -35l-159 215zM247 365l56 -32l-78 -116l78 -116l-56 -32l-101 148z" />
    <glyph glyph-name="logicalnot" unicode="&#xac;" horiz-adv-x="466" 
d="M50 338h366v-206h-78v137h-288v69z" />
    <glyph glyph-name="uni00AD" unicode="&#xad;" horiz-adv-x="352" 
d="M46 310h260v-75h-260v75z" />
    <glyph glyph-name="registered" unicode="&#xae;" horiz-adv-x="649" 
d="M192.5 105.5c-39 22.333 -69.667 53 -92 92s-33.5 82.833 -33.5 131.5s11.167 92.667 33.5 132s53 70.166 92 92.499s82.833 33.5 131.5 33.5s92.667 -11.167 132 -33.5s70.166 -53.166 92.499 -92.499s33.5 -83.333 33.5 -132s-11.167 -92.5 -33.5 -131.5
s-53.166 -69.667 -92.499 -92s-83.333 -33.5 -132 -33.5s-92.5 11.167 -131.5 33.5zM427 148.5c30.667 17.667 54.5 41.998 71.5 72.998s25.5 65.5 25.5 103.5c0 39.333 -8.5 75 -25.5 107s-40.833 57.333 -71.5 76s-65.334 28 -104.001 28s-73 -9.16699 -103 -27.5
s-53.333 -43.666 -70 -75.999s-25 -68.166 -25 -107.499c0 -38 8.33301 -72.5 25 -103.5s40 -55.333 70 -73s64.333 -26.5 103 -26.5s73.334 8.83301 104.001 26.5zM208 238.998h41v188h-41v43h126c38 0 64.667 -7 80 -21s23 -36.333 23 -67c0 -38.667 -17.667 -64 -53 -76
l39 -67h44v-44h-78l-56 102h-35v-58h30v-44h-120v44zM335 341.998c14.667 0 26.667 2.66797 36 8.00098s14 15.666 14 30.999c0 18.667 -4.33301 31 -13 37s-21.667 9 -39 9h-34v-85h36z" />
    <glyph glyph-name="macron" unicode="&#xaf;" horiz-adv-x="366" 
d="M36 589h299v-59h-299v59z" />
    <glyph glyph-name="degree" unicode="&#xb0;" horiz-adv-x="377" 
d="M260.5 576.5c19.667 -18.333 29.5 -43.5 29.5 -75.5c0 -31.333 -9.83301 -56.166 -29.5 -74.499s-43.834 -27.5 -72.501 -27.5c-28 0 -52 9.16699 -72 27.5s-30 43.166 -30 74.499s10 56.333 30 75s44 28 72 28c28.667 0 52.834 -9.16699 72.501 -27.5zM153.5 539.5
c-9.66699 -9.66699 -14.5 -22.5 -14.5 -38.5s4.83301 -28.833 14.5 -38.5s21.167 -14.5 34.5 -14.5s24.666 4.83301 33.999 14.5s14 22.5 14 38.5s-4.66699 28.833 -14 38.5s-20.666 14.5 -33.999 14.5s-24.833 -4.83301 -34.5 -14.5z" />
    <glyph glyph-name="plusminus" unicode="&#xb1;" horiz-adv-x="466" 
d="M195 483h76v-125h145v-69h-145v-105h-76v105h-145v69h145v125zM416 148v-69h-366v69h366z" />
    <glyph glyph-name="uni00B2" unicode="&#xb2;" horiz-adv-x="388" 
d="M29 290l24 14.998c59.333 36.667 97.333 61 114 73c50.667 36 76 73 76 111c0 16.667 -6.5 29.334 -19.5 38.001s-29.833 13 -50.5 13c-18 0 -36.5 -3.5 -55.5 -10.5s-35.5 -16.833 -49.5 -29.5l-44 44c24.667 20 48 34.5 70 43.5s47 13.5 75 13.5
c46 0 82.167 -10.167 108.5 -30.5s39.5 -47.833 39.5 -82.5c0 -27.333 -9.5 -53.166 -28.5 -77.499s-45.5 -47.833 -79.5 -70.5c-18 -12 -52.667 -32.667 -104 -62h166l37 50l51 -30l-54 -80h-252z" />
    <glyph glyph-name="uni00B3" unicode="&#xb3;" horiz-adv-x="393" 
d="M236.5 454c13 10 19.5 23.001 19.5 39.001c0 14.667 -6.83301 26.5 -20.5 35.5s-31.5 13.5 -53.5 13.5c-18.667 0 -37.167 -3 -55.5 -9s-33.5 -14.333 -45.5 -25l-45 43c17.333 16.667 38.666 29.167 63.999 37.5s53 12.5 83 12.5c44.667 0 80 -9.5 106 -28.5
s39 -43.833 39 -74.5c0 -20 -6.66699 -38 -20 -54s-30.666 -26.667 -51.999 -32c27.333 -5.33301 49.333 -16 66 -32s25 -35.333 25 -58c0 -34.667 -14.667 -62.667 -44 -84s-68 -32 -116 -32c-34 0 -63.667 4.16699 -89 12.5s-48.333 20.833 -69 37.5l43 52
c19.333 -14.667 37.666 -25.334 54.999 -32.001s37.333 -10 60 -10c26 0 46.833 5.33301 62.5 16s23.5 24.667 23.5 42c0 16.667 -7.66699 30.167 -23 40.5s-36.666 15.5 -63.999 15.5h-49v59h49c20.667 0 37.5 5 50.5 15z" />
    <glyph glyph-name="acute" unicode="&#xb4;" horiz-adv-x="285" 
d="M176 692l59 -44l-148 -164l-37 28z" />
    <glyph glyph-name="uni00B5" unicode="&#xb5;" horiz-adv-x="622" 
d="M136 -180.5c-23.333 29 -35.002 76.833 -35.002 143.5v466h78v-207c0 -43.333 3.33301 -77.5 10 -102.5s17.667 -43 33 -54s36.333 -16.5 63 -16.5c21.333 0 44.5 4.33301 69.5 13s43.833 19.334 56.5 32.001v335h78v-350l94 -32l-20 -64l-136 47
c-20.667 -14 -44.334 -25 -71.001 -33s-52 -12 -76 -12c-20 0 -39 3.5 -57 10.5s-33.333 16.833 -46 29.5v-61c0 -46.667 6.33301 -79.334 19 -98.001s34.334 -28 65.001 -28c18.667 0 35.334 2.66699 50.001 8l13 -60c-24.667 -6.66699 -49 -10 -73 -10
c-53.333 0 -91.666 14.5 -114.999 43.5z" />
    <glyph glyph-name="paragraph" unicode="&#xb6;" horiz-adv-x="601" 
d="M92.5 336.5c-27 24.333 -40.5 61.833 -40.5 112.5c0 44.667 15 79.167 45 103.5s68.667 36.5 116 36.5h351v-69h-92v-451h88v-69h-156v520h-72v-520h-165v69h97v231h-36c-63.333 0 -108.5 12.167 -135.5 36.5z" />
    <glyph glyph-name="periodcentered" unicode="&#xb7;" horiz-adv-x="221" 
d="M154 263.5c12 -12.333 18 -26.833 18 -43.5s-6 -31.167 -18 -43.5s-26.333 -18.5 -43 -18.5s-31.167 6.16699 -43.5 18.5s-18.5 26.833 -18.5 43.5c0 17.333 6.16699 32 18.5 44s26.833 18 43.5 18s31 -6.16699 43 -18.5z" />
    <glyph glyph-name="cedilla" unicode="&#xb8;" horiz-adv-x="254" 
d="M44 -204.5c-16 12.333 -24.335 18.5 -25.002 18.5l22 37c11.333 -7.33301 24.833 -13.5 40.5 -18.5s29.834 -7.5 42.501 -7.5c36.667 0 55 11.333 55 34c0 12.667 -5 21.5 -15 26.5s-27 7.5 -51 7.5h-37v107h50v-63c72 0 108 -26 108 -78
c0 -25.333 -9.66699 -45.333 -29 -60s-45.666 -22 -78.999 -22c-38.667 0 -66 6.16699 -82 18.5z" />
    <glyph glyph-name="uni00B9" unicode="&#xb9;" horiz-adv-x="369" 
d="M193 589h46l-2 -311h112v-60h-299v60h117l1 216l-101 -67l-33 44z" />
    <glyph glyph-name="ordmasculine" unicode="&#xba;" horiz-adv-x="360" 
d="M278.5 406.5c25 -25 37.5 -59.833 37.5 -104.5c0 -44 -12.5 -78.5 -37.5 -103.5s-58.167 -37.5 -99.5 -37.5c-40 0 -72.5 12.5 -97.5 37.5s-37.5 59.5 -37.5 103.5s12.5 78.667 37.5 104s57.5 38 97.5 38c41.333 0 74.5 -12.5 99.5 -37.5zM121 371.5
c-13.333 -16.333 -20 -39.5 -20 -69.5s6.66699 -53 20 -69s33 -24 59 -24s45.667 8 59 24s20 39 20 69s-6.66699 53.167 -20 69.5s-33 24.5 -59 24.5s-45.667 -8.16699 -59 -24.5z" />
    <glyph glyph-name="guillemotright" unicode="&#xbb;" horiz-adv-x="314" 
d="M161 432l160 -215l-160 -215l-49 35l128 180l-128 180zM66 365l101 -148l-101 -148l-55 32l79 116l-79 116z" />
    <glyph glyph-name="onequarter" unicode="&#xbc;" horiz-adv-x="945" 
d="M193 589h46l-2 -311h112v-60h-299v60h117l1 216l-101 -67l-33 44zM661 652h69l-440 -728h-70zM691 0v60h80v45h-219l-1 54l157 237l57 -34l-134 -197h140v135h72v-135h61v-60h-61v-45h59v-60h-211z" />
    <glyph glyph-name="onehalf" unicode="&#xbd;" horiz-adv-x="944" 
d="M193 589h46l-2 -311h112v-60h-299v60h117l1 216l-101 -67l-33 44zM661 652h69l-440 -728h-70zM585 72l24 14.998c59.333 36.667 97.333 61 114 73c50.667 36 76 73 76 111c0 16.667 -6.5 29.334 -19.5 38.001s-29.833 13 -50.5 13c-18 0 -36.5 -3.5 -55.5 -10.5
s-35.5 -16.833 -49.5 -29.5l-44 44c24.667 20 48 34.5 70 43.5s47 13.5 75 13.5c46 0 82.167 -10.167 108.5 -30.5s39.5 -47.833 39.5 -82.5c0 -27.333 -9.5 -53.166 -28.5 -77.499s-45.5 -47.833 -79.5 -70.5c-18 -12 -52.667 -32.667 -104 -62h166l37 50l51 -30l-54 -80
h-252z" />
    <glyph glyph-name="threequarters" unicode="&#xbe;" horiz-adv-x="929" 
d="M236.5 454c13 10 19.5 23.001 19.5 39.001c0 14.667 -6.83301 26.5 -20.5 35.5s-31.5 13.5 -53.5 13.5c-18.667 0 -37.167 -3 -55.5 -9s-33.5 -14.333 -45.5 -25l-45 43c17.333 16.667 38.666 29.167 63.999 37.5s53 12.5 83 12.5c44.667 0 80 -9.5 106 -28.5
s39 -43.833 39 -74.5c0 -20 -6.66699 -38 -20 -54s-30.666 -26.667 -51.999 -32c27.333 -5.33301 49.333 -16 66 -32s25 -35.333 25 -58c0 -34.667 -14.667 -62.667 -44 -84s-68 -32 -116 -32c-34 0 -63.667 4.16699 -89 12.5s-48.333 20.833 -69 37.5l43 52
c19.333 -14.667 37.666 -25.334 54.999 -32.001s37.333 -10 60 -10c26 0 46.833 5.33301 62.5 16s23.5 24.667 23.5 42c0 16.667 -7.66699 30.167 -23 40.5s-36.666 15.5 -63.999 15.5h-49v59h49c20.667 0 37.5 5 50.5 15zM645 652.001h69l-440 -728h-70zM675 0.000976562
v60h80v45h-219l-1 54l157 237l57 -34l-134 -197h140v135h72v-135h61v-60h-61v-45h59v-60h-211z" />
    <glyph glyph-name="questiondown" unicode="&#xbf;" horiz-adv-x="373" 
d="M151.5 295.5c-12.333 12.333 -18.5 26.833 -18.5 43.5s6.16699 31.167 18.5 43.5s26.833 18.5 43.5 18.5c17.333 0 32 -6 44 -18s18 -26.667 18 -44c0 -16.667 -6.16699 -31.167 -18.5 -43.5s-26.833 -18.5 -43.5 -18.5s-31.167 6.16699 -43.5 18.5zM284 -206.5
c-30.667 -7 -62.665 -10.502 -95.998 -10.502c-55.333 0 -99.833 12.833 -133.5 38.5s-50.5 58.834 -50.5 99.501c0 29.333 9 54 27 74s47 40.667 87 62c30 15.333 50.5 28.166 61.5 38.499s16.5 21.166 16.5 32.499c0 9.33301 -3.5 17.833 -10.5 25.5
s-18.167 15.834 -33.5 24.501l39 53c32 -17.333 53.5 -34.5 64.5 -51.5s16.5 -34.5 16.5 -52.5c0 -24 -7 -44.167 -21 -60.5s-38.333 -34.166 -73 -53.499c-26.667 -15.333 -46.334 -27.666 -59.001 -36.999s-21.167 -18.333 -25.5 -27s-6.5 -19.667 -6.5 -33
c0 -19.333 10.5 -35.5 31.5 -48.5s48.167 -19.5 81.5 -19.5c30 0 60 6.33301 90 19l13 84l66 -7l-17 -123c-14.667 -11.333 -37.334 -20.5 -68.001 -27.5z" />
    <glyph glyph-name="Agrave" unicode="&#xc0;" horiz-adv-x="651" 
d="M10 0v69h96l166 451h-101v69h194l181 -520h95v-69h-243v69h63l-32 91h-216l-34 -91h64v-69h-233zM238 229h167l-79 259zM135 762l243 -84l-9 -36l-252 47z" />
    <glyph glyph-name="Aacute" unicode="&#xc1;" horiz-adv-x="651" 
d="M10 0v69h96l166 451h-101v69h194l181 -520h95v-69h-243v69h63l-32 91h-216l-34 -91h64v-69h-233zM238 229h167l-79 259zM470 768l18 -73l-252 -47l-9 36z" />
    <glyph glyph-name="Acircumflex" unicode="&#xc2;" horiz-adv-x="651" 
d="M10 0v69h96l166 451h-101v69h194l181 -520h95v-69h-243v69h63l-32 91h-216l-34 -91h64v-69h-233zM238 229h167l-79 259zM318 778l171 -97l-18 -32l-153 56l-153 -56l-18 32z" />
    <glyph glyph-name="Atilde" unicode="&#xc3;" horiz-adv-x="651" 
d="M10 0v69h96l166 451h-101v69h194l181 -520h95v-69h-243v69h63l-32 91h-216l-34 -91h64v-69h-233zM238 229h167l-79 259zM177 709c23.333 15.333 42.3301 25.999 56.9971 31.999s32.334 9 53.001 9c14.667 0 27.334 -1.83301 38.001 -5.5s23.334 -9.5 38.001 -17.5
c10 -6 18.667 -10.333 26 -13s15 -4 23 -4c10 0 18.667 2 26 6s20.333 13 39 27l24 -56c-19.333 -16.667 -35.833 -28 -49.5 -34s-28.5 -9 -44.5 -9c-10 0 -19.5 1.83301 -28.5 5.5s-19.5 8.83398 -31.5 15.501c-11.333 6.66699 -21.5 11.667 -30.5 15s-17.833 5 -26.5 5
c-14.667 0 -27 -1.5 -37 -4.5s-20.5 -7.16699 -31.5 -12.5s-18.833 -9 -23.5 -11z" />
    <glyph glyph-name="Adieresis" unicode="&#xc4;" horiz-adv-x="651" 
d="M10 0v69h96l166 451h-101v69h194l181 -520h95v-69h-243v69h63l-32 91h-216l-34 -91h64v-69h-233zM238 229h167l-79 259zM268 762.5c11.333 -11 17 -24.167 17 -39.5s-5.5 -28.5 -16.5 -39.5s-24.167 -16.5 -39.5 -16.5s-28.5 5.5 -39.5 16.5s-16.5 24.167 -16.5 39.5
s5.5 28.5 16.5 39.5s24.167 16.5 39.5 16.5c14.667 0 27.667 -5.5 39 -16.5zM446 762.5c11.333 -11 17 -24.167 17 -39.5s-5.5 -28.5 -16.5 -39.5s-24.167 -16.5 -39.5 -16.5s-28.5 5.5 -39.5 16.5s-16.5 24.167 -16.5 39.5s5.5 28.5 16.5 39.5s24.167 16.5 39.5 16.5
c14.667 0 27.667 -5.5 39 -16.5z" />
    <glyph glyph-name="Aring" unicode="&#xc5;" horiz-adv-x="685" 
d="M641 69v-68.999h-243v69h63l-32 91h-216l-34 -91h64v-69h-233v69h96l166 451h-101v69h102c-16.667 15.333 -25 36.666 -25 63.999c0 26 7.83301 46.833 23.5 62.5s36.5 23.5 62.5 23.5s46.833 -7.83301 62.5 -23.5s23.5 -36.5 23.5 -62.5
c0 -19.333 -4.33301 -35.833 -13 -49.5s-21 -23.5 -37 -29.5l176 -505h95zM306 681.001c-7.33301 -7.33301 -11 -16.666 -11 -27.999s3.66699 -20.666 11 -27.999s16.666 -11 27.999 -11s20.666 3.66699 27.999 11s11 16.666 11 27.999s-3.66699 20.666 -11 27.999
s-16.666 11 -27.999 11s-20.666 -3.66699 -27.999 -11zM238 229.001h167l-79 259z" />
    <glyph glyph-name="AE" unicode="&#xc6;" horiz-adv-x="919" 
d="M27 0v69h100l286 451h-103v69h503l52 -154l-66 -22l-40 107h-187v-191h160v-69h-161v-191h208l40 107l66 -22l-51 -154h-438v69h95v91h-226l-56 -91h58v-69h-240zM308 229h183l1 291z" />
    <glyph glyph-name="Ccedilla" unicode="&#xc7;" horiz-adv-x="575" 
d="M464 154l67.9961 -15.998l-25 -116l-23.5 -9.5c-12.333 -5 -29.666 -10.167 -51.999 -15.5s-47.166 -9 -74.499 -11v-49c72 0 108 -26 108 -78c0 -25.333 -9.66699 -45.333 -29 -60s-45.666 -22 -78.999 -22c-38.667 0 -66 6.16699 -82 18.5s-24.333 18.5 -25 18.5l22 37
c11.333 -7.33301 24.833 -13.5 40.5 -18.5s29.834 -7.5 42.501 -7.5c36.667 0 55 11.333 55 34c0 12.667 -5 21.5 -15 26.5s-27 7.5 -51 7.5h-37v93c-53.333 2.66699 -99.833 17.167 -139.5 43.5s-70.167 62.5 -91.5 108.5s-32 99 -32 159
c0 61.333 11.667 115.166 35 161.499s56.166 82.166 98.499 107.499s91.5 38 147.5 38c39.333 0 72.833 -3.5 100.5 -10.5s48.834 -14.5 63.501 -22.5s22 -12.667 22 -14l22 -116l-68 -15l-20 86c-29.333 16 -68.333 24 -117 24c-64 0 -113.167 -21.333 -147.5 -64
s-51.5 -101.667 -51.5 -177c0 -76 17.5 -135.333 52.5 -178s83.833 -64 146.5 -64c39.333 0 78.333 7 117 21z" />
    <glyph glyph-name="Egrave" unicode="&#xc8;" horiz-adv-x="587" 
d="M38 589h444l51 -154l-65 -22l-40 107h-214v-181h187v-69h-187l-1 -201h235l40 107l65 -22l-51 -154h-465v69h96l1 451h-96v69zM110 762l243 -84l-9 -36l-252 47z" />
    <glyph glyph-name="Eacute" unicode="&#xc9;" horiz-adv-x="587" 
d="M38 589h444l51 -154l-65 -22l-40 107h-214v-181h187v-69h-187l-1 -201h235l40 107l65 -22l-51 -154h-465v69h96l1 451h-96v69zM445 768l18 -73l-252 -47l-9 36z" />
    <glyph glyph-name="Ecircumflex" unicode="&#xca;" horiz-adv-x="587" 
d="M38 589h444l51 -154l-65 -22l-40 107h-214v-181h187v-69h-187l-1 -201h235l40 107l65 -22l-51 -154h-465v69h96l1 451h-96v69zM293 778l171 -97l-18 -32l-153 56l-153 -56l-18 32z" />
    <glyph glyph-name="Edieresis" unicode="&#xcb;" horiz-adv-x="587" 
d="M38 589h444l51 -154l-65 -22l-40 107h-214v-181h187v-69h-187l-1 -201h235l40 107l65 -22l-51 -154h-465v69h96l1 451h-96v69zM243 762.5c11.333 -11 17 -24.167 17 -39.5s-5.5 -28.5 -16.5 -39.5s-24.167 -16.5 -39.5 -16.5s-28.5 5.5 -39.5 16.5
s-16.5 24.167 -16.5 39.5s5.5 28.5 16.5 39.5s24.167 16.5 39.5 16.5c14.667 0 27.667 -5.5 39 -16.5zM421 762.5c11.333 -11 17 -24.167 17 -39.5s-5.5 -28.5 -16.5 -39.5s-24.167 -16.5 -39.5 -16.5s-28.5 5.5 -39.5 16.5s-16.5 24.167 -16.5 39.5s5.5 28.5 16.5 39.5
s24.167 16.5 39.5 16.5c14.667 0 27.667 -5.5 39 -16.5z" />
    <glyph glyph-name="Igrave" unicode="&#xcc;" horiz-adv-x="345" 
d="M38 589h270v-69h-93l-2 -451h95v-69h-271v69h97v451h-96v69zM-10 762l243 -84l-9 -36l-252 47z" />
    <glyph glyph-name="Iacute" unicode="&#xcd;" horiz-adv-x="345" 
d="M38 589h270v-69h-93l-2 -451h95v-69h-271v69h97v451h-96v69zM325 768l18 -73l-252 -47l-9 36z" />
    <glyph glyph-name="Icircumflex" unicode="&#xce;" horiz-adv-x="345" 
d="M38 589h270v-69h-93l-2 -451h95v-69h-271v69h97v451h-96v69zM173 778l171 -97l-18 -32l-153 56l-153 -56l-18 32z" />
    <glyph glyph-name="Idieresis" unicode="&#xcf;" horiz-adv-x="345" 
d="M38 589h270v-69h-93l-2 -451h95v-69h-271v69h97v451h-96v69zM123 762.5c11.333 -11 17 -24.167 17 -39.5s-5.5 -28.5 -16.5 -39.5s-24.167 -16.5 -39.5 -16.5s-28.5 5.5 -39.5 16.5s-16.5 24.167 -16.5 39.5s5.5 28.5 16.5 39.5s24.167 16.5 39.5 16.5
c14.667 0 27.667 -5.5 39 -16.5zM301 762.5c11.333 -11 17 -24.167 17 -39.5s-5.5 -28.5 -16.5 -39.5s-24.167 -16.5 -39.5 -16.5s-28.5 5.5 -39.5 16.5s-16.5 24.167 -16.5 39.5s5.5 28.5 16.5 39.5s24.167 16.5 39.5 16.5c14.667 0 27.667 -5.5 39 -16.5z" />
    <glyph glyph-name="Eth" unicode="&#xd0;" horiz-adv-x="661" 
d="M539 519.5c52.667 -46.333 78.999 -124.5 78.999 -234.5c0 -57.333 -12.833 -107.5 -38.5 -150.5s-61 -76.167 -106 -99.5s-95.167 -35 -150.5 -35h-274v69h95v203h-95v64h95v184h-95v69h266c96.667 0 171.334 -23.167 224.001 -69.5zM474.999 124
c38.667 36.667 57.998 90.333 57.998 161c0 62.667 -8.16699 111 -24.5 145s-40.166 57.5 -71.499 70.5s-72 19.5 -122 19.5h-91v-184h113v-64h-113v-203h81c74.667 0 131.334 18.333 170.001 55z" />
    <glyph glyph-name="Ntilde" unicode="&#xd1;" horiz-adv-x="718" 
d="M38 589h221l255 -467v398h-84v69h261v-69h-97v-520h-98l-284 520l2 -451h84v-69h-261v69h96l-1 451h-94v69zM217 709c23.333 15.333 42.3301 25.999 56.9971 31.999s32.334 9 53.001 9c14.667 0 27.334 -1.83301 38.001 -5.5s23.334 -9.5 38.001 -17.5
c10 -6 18.667 -10.333 26 -13s15 -4 23 -4c10 0 18.667 2 26 6s20.333 13 39 27l24 -56c-19.333 -16.667 -35.833 -28 -49.5 -34s-28.5 -9 -44.5 -9c-10 0 -19.5 1.83301 -28.5 5.5s-19.5 8.83398 -31.5 15.501c-11.333 6.66699 -21.5 11.667 -30.5 15s-17.833 5 -26.5 5
c-14.667 0 -27 -1.5 -37 -4.5s-20.5 -7.16699 -31.5 -12.5s-18.833 -9 -23.5 -11z" />
    <glyph glyph-name="Ograve" unicode="&#xd2;" horiz-adv-x="636" 
d="M461 565.5c41.333 -25.667 73.502 -61.834 96.502 -108.501s34.5 -100.667 34.5 -162s-11.333 -115.5 -34 -162.5s-54.834 -83.333 -96.501 -109s-89.5 -38.5 -143.5 -38.5s-101.833 12.833 -143.5 38.5s-73.834 62 -96.501 109s-34 101.167 -34 162.5
s11.333 115.333 34 162s54.667 82.834 96 108.501s89 38.5 143 38.5c54.667 0 102.667 -12.833 144 -38.5zM179.002 471c-33.333 -42 -50 -100.667 -50 -176c0 -76 16.667 -135 50 -177s79.666 -63 138.999 -63s105.666 21 138.999 63s50 101 50 177
c0 75.333 -16.667 134 -50 176s-79.666 63 -138.999 63s-105.666 -21 -138.999 -63zM135.002 762l243 -84l-9 -36l-252 47z" />
    <glyph glyph-name="Oacute" unicode="&#xd3;" horiz-adv-x="636" 
d="M461 565.5c41.333 -25.667 73.502 -61.834 96.502 -108.501s34.5 -100.667 34.5 -162s-11.333 -115.5 -34 -162.5s-54.834 -83.333 -96.501 -109s-89.5 -38.5 -143.5 -38.5s-101.833 12.833 -143.5 38.5s-73.834 62 -96.501 109s-34 101.167 -34 162.5
s11.333 115.333 34 162s54.667 82.834 96 108.501s89 38.5 143 38.5c54.667 0 102.667 -12.833 144 -38.5zM179.002 471c-33.333 -42 -50 -100.667 -50 -176c0 -76 16.667 -135 50 -177s79.666 -63 138.999 -63s105.666 21 138.999 63s50 101 50 177
c0 75.333 -16.667 134 -50 176s-79.666 63 -138.999 63s-105.666 -21 -138.999 -63zM470.002 768l18 -73l-252 -47l-9 36z" />
    <glyph glyph-name="Ocircumflex" unicode="&#xd4;" horiz-adv-x="636" 
d="M461 565.5c41.333 -25.667 73.502 -61.834 96.502 -108.501s34.5 -100.667 34.5 -162s-11.333 -115.5 -34 -162.5s-54.834 -83.333 -96.501 -109s-89.5 -38.5 -143.5 -38.5s-101.833 12.833 -143.5 38.5s-73.834 62 -96.501 109s-34 101.167 -34 162.5
s11.333 115.333 34 162s54.667 82.834 96 108.501s89 38.5 143 38.5c54.667 0 102.667 -12.833 144 -38.5zM179.002 471c-33.333 -42 -50 -100.667 -50 -176c0 -76 16.667 -135 50 -177s79.666 -63 138.999 -63s105.666 21 138.999 63s50 101 50 177
c0 75.333 -16.667 134 -50 176s-79.666 63 -138.999 63s-105.666 -21 -138.999 -63zM318.002 778l171 -97l-18 -32l-153 56l-153 -56l-18 32z" />
    <glyph glyph-name="Otilde" unicode="&#xd5;" horiz-adv-x="636" 
d="M461 565.5c41.333 -25.667 73.502 -61.834 96.502 -108.501s34.5 -100.667 34.5 -162s-11.333 -115.5 -34 -162.5s-54.834 -83.333 -96.501 -109s-89.5 -38.5 -143.5 -38.5s-101.833 12.833 -143.5 38.5s-73.834 62 -96.501 109s-34 101.167 -34 162.5
s11.333 115.333 34 162s54.667 82.834 96 108.501s89 38.5 143 38.5c54.667 0 102.667 -12.833 144 -38.5zM179.002 471c-33.333 -42 -50 -100.667 -50 -176c0 -76 16.667 -135 50 -177s79.666 -63 138.999 -63s105.666 21 138.999 63s50 101 50 177
c0 75.333 -16.667 134 -50 176s-79.666 63 -138.999 63s-105.666 -21 -138.999 -63zM177.002 709c23.333 15.333 42.3301 25.999 56.9971 31.999s32.334 9 53.001 9c14.667 0 27.334 -1.83301 38.001 -5.5s23.334 -9.5 38.001 -17.5c10 -6 18.667 -10.333 26 -13
s15 -4 23 -4c10 0 18.667 2 26 6s20.333 13 39 27l24 -56c-19.333 -16.667 -35.833 -28 -49.5 -34s-28.5 -9 -44.5 -9c-10 0 -19.5 1.83301 -28.5 5.5s-19.5 8.83398 -31.5 15.501c-11.333 6.66699 -21.5 11.667 -30.5 15s-17.833 5 -26.5 5c-14.667 0 -27 -1.5 -37 -4.5
s-20.5 -7.16699 -31.5 -12.5s-18.833 -9 -23.5 -11z" />
    <glyph glyph-name="Odieresis" unicode="&#xd6;" horiz-adv-x="636" 
d="M461 565.5c41.333 -25.667 73.502 -61.834 96.502 -108.501s34.5 -100.667 34.5 -162s-11.333 -115.5 -34 -162.5s-54.834 -83.333 -96.501 -109s-89.5 -38.5 -143.5 -38.5s-101.833 12.833 -143.5 38.5s-73.834 62 -96.501 109s-34 101.167 -34 162.5
s11.333 115.333 34 162s54.667 82.834 96 108.501s89 38.5 143 38.5c54.667 0 102.667 -12.833 144 -38.5zM179.002 471c-33.333 -42 -50 -100.667 -50 -176c0 -76 16.667 -135 50 -177s79.666 -63 138.999 -63s105.666 21 138.999 63s50 101 50 177
c0 75.333 -16.667 134 -50 176s-79.666 63 -138.999 63s-105.666 -21 -138.999 -63zM268.002 762.5c11.333 -11 17 -24.167 17 -39.5s-5.5 -28.5 -16.5 -39.5s-24.167 -16.5 -39.5 -16.5s-28.5 5.5 -39.5 16.5s-16.5 24.167 -16.5 39.5s5.5 28.5 16.5 39.5
s24.167 16.5 39.5 16.5c14.667 0 27.667 -5.5 39 -16.5zM446.002 762.5c11.333 -11 17 -24.167 17 -39.5s-5.5 -28.5 -16.5 -39.5s-24.167 -16.5 -39.5 -16.5s-28.5 5.5 -39.5 16.5s-16.5 24.167 -16.5 39.5s5.5 28.5 16.5 39.5s24.167 16.5 39.5 16.5
c14.667 0 27.667 -5.5 39 -16.5z" />
    <glyph glyph-name="multiply" unicode="&#xd7;" horiz-adv-x="466" 
d="M132 456l102 -102l104 103l49 -48l-104 -104l103 -103l-52 -51l-102 102l-104 -103l-49 48l104 104l-103 103z" />
    <glyph glyph-name="Oslash" unicode="&#xd8;" horiz-adv-x="636" 
d="M565 440.5c18 -43 27.001 -91.501 27.001 -145.501c0 -61.333 -11.333 -115.5 -34 -162.5s-54.834 -83.333 -96.501 -109s-89.5 -38.5 -143.5 -38.5c-31.333 0 -61 4.66699 -89 14l-31 -68h-74l44 97c-39.333 26 -69.833 62 -91.5 108s-32.5 99 -32.5 159
c0 61.333 11.333 115.333 34 162s54.667 82.834 96 108.501s89 38.5 143 38.5c42 0 80.333 -7.66699 115 -23l32 70h73l-49 -105c33.333 -27.333 59 -62.5 77 -105.5zM148.001 173.499c12.667 -34.333 30.999 -61.167 54.999 -80.5l194 425c-22 10.667 -48.333 16 -79 16
c-59.333 0 -105.666 -21 -138.999 -63s-50 -100.667 -50 -176c0 -46.667 6.33301 -87.167 19 -121.5zM457 117.998c33.333 42 50.001 101 50.001 177c0 79.333 -18.667 140.333 -56 183l-188 -416c16 -4.66699 34.333 -7 55 -7c59.333 0 105.666 21 138.999 63z" />
    <glyph glyph-name="Ugrave" unicode="&#xd9;" horiz-adv-x="678" 
d="M500 46c-36.667 -40.667 -92 -61.001 -166 -61.001c-71.333 0 -124.333 20.333 -159 61s-52 97 -52 169v305h-96v69h240v-69h-64v-332c0 -45.333 11.667 -79.166 35 -101.499s55.333 -33.5 96 -33.5c44 0 78.5 12.167 103.5 36.5s37.5 60.5 37.5 108.5v322h-64v69h240
v-69h-96v-305c0 -72 -18.333 -128.333 -55 -169zM156 761.999l243 -84l-9 -36l-252 47z" />
    <glyph glyph-name="Uacute" unicode="&#xda;" horiz-adv-x="678" 
d="M500 46c-36.667 -40.667 -92 -61.001 -166 -61.001c-71.333 0 -124.333 20.333 -159 61s-52 97 -52 169v305h-96v69h240v-69h-64v-332c0 -45.333 11.667 -79.166 35 -101.499s55.333 -33.5 96 -33.5c44 0 78.5 12.167 103.5 36.5s37.5 60.5 37.5 108.5v322h-64v69h240
v-69h-96v-305c0 -72 -18.333 -128.333 -55 -169zM491 767.999l18 -73l-252 -47l-9 36z" />
    <glyph glyph-name="Ucircumflex" unicode="&#xdb;" horiz-adv-x="678" 
d="M500 46c-36.667 -40.667 -92 -61.001 -166 -61.001c-71.333 0 -124.333 20.333 -159 61s-52 97 -52 169v305h-96v69h240v-69h-64v-332c0 -45.333 11.667 -79.166 35 -101.499s55.333 -33.5 96 -33.5c44 0 78.5 12.167 103.5 36.5s37.5 60.5 37.5 108.5v322h-64v69h240
v-69h-96v-305c0 -72 -18.333 -128.333 -55 -169zM339 777.999l171 -97l-18 -32l-153 56l-153 -56l-18 32z" />
    <glyph glyph-name="Udieresis" unicode="&#xdc;" horiz-adv-x="678" 
d="M500 46c-36.667 -40.667 -92 -61.001 -166 -61.001c-71.333 0 -124.333 20.333 -159 61s-52 97 -52 169v305h-96v69h240v-69h-64v-332c0 -45.333 11.667 -79.166 35 -101.499s55.333 -33.5 96 -33.5c44 0 78.5 12.167 103.5 36.5s37.5 60.5 37.5 108.5v322h-64v69h240
v-69h-96v-305c0 -72 -18.333 -128.333 -55 -169zM289 762.499c11.333 -11 17 -24.167 17 -39.5s-5.5 -28.5 -16.5 -39.5s-24.167 -16.5 -39.5 -16.5s-28.5 5.5 -39.5 16.5s-16.5 24.167 -16.5 39.5s5.5 28.5 16.5 39.5s24.167 16.5 39.5 16.5c14.667 0 27.667 -5.5 39 -16.5
zM467 762.499c11.333 -11 17 -24.167 17 -39.5s-5.5 -28.5 -16.5 -39.5s-24.167 -16.5 -39.5 -16.5s-28.5 5.5 -39.5 16.5s-16.5 24.167 -16.5 39.5s5.5 28.5 16.5 39.5s24.167 16.5 39.5 16.5c14.667 0 27.667 -5.5 39 -16.5z" />
    <glyph glyph-name="Yacute" unicode="&#xdd;" horiz-adv-x="651" 
d="M4 589h239v-69h-53l139 -196l156 196h-75v69h237v-69h-68l-213 -263l-2 -188h94v-69h-267v69h94l1 185l-198 266h-84v69zM477 768l18 -73l-252 -47l-9 36z" />
    <glyph glyph-name="Thorn" unicode="&#xde;" horiz-adv-x="540" 
d="M37 69h93v451h-93v69h272v-69h-98v-71h118c61.333 0 108.5 -11.167 141.5 -33.5s49.5 -60.5 49.5 -114.5c0 -50.667 -17 -90.5 -51 -119.5s-77 -43.5 -129 -43.5h-130v-69h120v-69h-293v69zM323 208c35.333 0 62.833 6.33301 82.5 19s29.5 34 29.5 64
c0 34.667 -9.5 58.167 -28.5 70.5s-47.5 18.5 -85.5 18.5h-110v-172h112z" />
    <glyph glyph-name="germandbls" unicode="&#xdf;" horiz-adv-x="584" 
d="M336.5 -2.5c-24.333 8.33301 -42.501 18.832 -54.501 31.499l-16 89l65 14l10 -59c6.66699 -7.33301 16.5 -13.166 29.5 -17.499s26.5 -6.5 40.5 -6.5c20.667 0 37.334 5.83301 50.001 17.5s19 26.834 19 45.501c0 19.333 -6.33301 35.5 -19 48.5
s-33.334 24.5 -62.001 34.5c-37.333 13.333 -67 31.5 -89 54.5s-33 47.833 -33 74.5c0 28 5.83301 50.5 17.5 67.5s28.167 34.5 49.5 52.5c16 14 27.667 25.667 35 35s11 21 11 35c0 18 -8.33301 33.167 -25 45.5s-37 18.5 -61 18.5c-38.667 0 -66 -9 -82 -27
s-24 -49.333 -24 -94v-457h-162v62h84v305h-84v62h84v44c0 58 14.5 100.667 43.5 128s74.167 41 135.5 41c50.667 0 90.834 -11.5 120.501 -34.5s44.5 -54.167 44.5 -93.5c0 -24.667 -5.66699 -45.5 -17 -62.5s-27.333 -34.833 -48 -53.5
c-14.667 -13.333 -25.667 -25 -33 -35s-11 -20.667 -11 -32c0 -14.667 6 -26.834 18 -36.501s34 -20.167 66 -31.5c38.667 -14 67.167 -33.333 85.5 -58s27.5 -55.667 27.5 -93s-13.333 -67.833 -40 -91.5s-60.667 -35.5 -102 -35.5c-24.667 0 -49.167 4.16699 -73.5 12.5z
" />
    <glyph glyph-name="agrave" unicode="&#xe0;" horiz-adv-x="525" 
d="M208 -15c-56.667 0 -99.5 11.4971 -128.5 34.4971s-43.5 56.5 -43.5 100.5c0 42.667 14 74.834 42 96.501s69.333 32.5 124 32.5l129 -1c0 44.667 -8.33301 77.834 -25 99.501s-42 32.5 -76 32.5c-33.333 0 -63.333 -4 -90 -12l-10 -55l-64 12l16 91
c52 18.667 100.333 28 145 28c60 0 105.333 -16.167 136 -48.5s46 -80.166 46 -143.499v-174l95 -31l-20 -64l-135 46c-43.333 -29.333 -90.333 -44 -141 -44zM138.5 168.997c-15 -11.333 -22.499 -28 -22.499 -50c0 -22.667 8.16699 -40 24.5 -52s40.166 -18 71.499 -18
c46 0 85.667 12.667 119 38v98l-126 1c-29.333 0 -51.5 -5.66699 -66.5 -17zM227.001 483.997l-148 164l59 44l126 -180z" />
    <glyph glyph-name="aacute" unicode="&#xe1;" horiz-adv-x="525" 
d="M208 -15c-56.667 0 -99.5 11.4971 -128.5 34.4971s-43.5 56.5 -43.5 100.5c0 42.667 14 74.834 42 96.501s69.333 32.5 124 32.5l129 -1c0 44.667 -8.33301 77.834 -25 99.501s-42 32.5 -76 32.5c-33.333 0 -63.333 -4 -90 -12l-10 -55l-64 12l16 91
c52 18.667 100.333 28 145 28c60 0 105.333 -16.167 136 -48.5s46 -80.166 46 -143.499v-174l95 -31l-20 -64l-135 46c-43.333 -29.333 -90.333 -44 -141 -44zM138.5 168.997c-15 -11.333 -22.499 -28 -22.499 -50c0 -22.667 8.16699 -40 24.5 -52s40.166 -18 71.499 -18
c46 0 85.667 12.667 119 38v98l-126 1c-29.333 0 -51.5 -5.66699 -66.5 -17zM304.001 691.997l59 -44l-148 -164l-37 28z" />
    <glyph glyph-name="acircumflex" unicode="&#xe2;" horiz-adv-x="525" 
d="M208 -15c-56.667 0 -99.5 11.4971 -128.5 34.4971s-43.5 56.5 -43.5 100.5c0 42.667 14 74.834 42 96.501s69.333 32.5 124 32.5l129 -1c0 44.667 -8.33301 77.834 -25 99.501s-42 32.5 -76 32.5c-33.333 0 -63.333 -4 -90 -12l-10 -55l-64 12l16 91
c52 18.667 100.333 28 145 28c60 0 105.333 -16.167 136 -48.5s46 -80.166 46 -143.499v-174l95 -31l-20 -64l-135 46c-43.333 -29.333 -90.333 -44 -141 -44zM138.5 168.997c-15 -11.333 -22.499 -28 -22.499 -50c0 -22.667 8.16699 -40 24.5 -52s40.166 -18 71.499 -18
c46 0 85.667 12.667 119 38v98l-126 1c-29.333 0 -51.5 -5.66699 -66.5 -17zM235.001 629.997l149 -99l-23 -44l-126 65l-126 -63l-27 42z" />
    <glyph glyph-name="atilde" unicode="&#xe3;" horiz-adv-x="525" 
d="M208 -15c-56.667 0 -99.5 11.4971 -128.5 34.4971s-43.5 56.5 -43.5 100.5c0 42.667 14 74.834 42 96.501s69.333 32.5 124 32.5l129 -1c0 44.667 -8.33301 77.834 -25 99.501s-42 32.5 -76 32.5c-33.333 0 -63.333 -4 -90 -12l-10 -55l-64 12l16 91
c52 18.667 100.333 28 145 28c60 0 105.333 -16.167 136 -48.5s46 -80.166 46 -143.499v-174l95 -31l-20 -64l-135 46c-43.333 -29.333 -90.333 -44 -141 -44zM138.5 168.997c-15 -11.333 -22.499 -28 -22.499 -50c0 -22.667 8.16699 -40 24.5 -52s40.166 -18 71.499 -18
c46 0 85.667 12.667 119 38v98l-126 1c-29.333 0 -51.5 -5.66699 -66.5 -17zM92.001 548.997c23.333 15.333 42.3301 25.999 56.9971 31.999s32.334 9 53.001 9c14.667 0 27.334 -1.83301 38.001 -5.5s23.334 -9.5 38.001 -17.5c10 -6 18.667 -10.333 26 -13s15 -4 23 -4
c10 0 18.667 2 26 6s20.333 13 39 27l24 -56c-19.333 -16.667 -35.833 -28 -49.5 -34s-28.5 -9 -44.5 -9c-10 0 -19.5 1.83301 -28.5 5.5s-19.5 8.83398 -31.5 15.501c-11.333 6.66699 -21.5 11.667 -30.5 15s-17.833 5 -26.5 5c-14.667 0 -27 -1.5 -37 -4.5
s-20.5 -7.16699 -31.5 -12.5s-18.833 -9 -23.5 -11z" />
    <glyph glyph-name="adieresis" unicode="&#xe4;" horiz-adv-x="525" 
d="M208 -15c-56.667 0 -99.5 11.4971 -128.5 34.4971s-43.5 56.5 -43.5 100.5c0 42.667 14 74.834 42 96.501s69.333 32.5 124 32.5l129 -1c0 44.667 -8.33301 77.834 -25 99.501s-42 32.5 -76 32.5c-33.333 0 -63.333 -4 -90 -12l-10 -55l-64 12l16 91
c52 18.667 100.333 28 145 28c60 0 105.333 -16.167 136 -48.5s46 -80.166 46 -143.499v-174l95 -31l-20 -64l-135 46c-43.333 -29.333 -90.333 -44 -141 -44zM138.5 168.997c-15 -11.333 -22.499 -28 -22.499 -50c0 -22.667 8.16699 -40 24.5 -52s40.166 -18 71.499 -18
c46 0 85.667 12.667 119 38v98l-126 1c-29.333 0 -51.5 -5.66699 -66.5 -17zM183.001 602.497c11.333 -11 17 -24.167 17 -39.5s-5.5 -28.5 -16.5 -39.5s-24.167 -16.5 -39.5 -16.5s-28.5 5.5 -39.5 16.5s-16.5 24.167 -16.5 39.5s5.5 28.5 16.5 39.5s24.167 16.5 39.5 16.5
c14.667 0 27.667 -5.5 39 -16.5zM361.001 602.497c11.333 -11 17 -24.167 17 -39.5s-5.5 -28.5 -16.5 -39.5s-24.167 -16.5 -39.5 -16.5s-28.5 5.5 -39.5 16.5s-16.5 24.167 -16.5 39.5s5.5 28.5 16.5 39.5s24.167 16.5 39.5 16.5c14.667 0 27.667 -5.5 39 -16.5z" />
    <glyph glyph-name="aring" unicode="&#xe5;" horiz-adv-x="525" 
d="M208 -15c-56.667 0 -99.5 11.4971 -128.5 34.4971s-43.5 56.5 -43.5 100.5c0 42.667 14 74.834 42 96.501s69.333 32.5 124 32.5l129 -1c0 44.667 -8.33301 77.834 -25 99.501s-42 32.5 -76 32.5c-33.333 0 -63.333 -4 -90 -12l-10 -55l-64 12l16 91
c52 18.667 100.333 28 145 28c60 0 105.333 -16.167 136 -48.5s46 -80.166 46 -143.499v-174l95 -31l-20 -64l-135 46c-43.333 -29.333 -90.333 -44 -141 -44zM138.5 168.997c-15 -11.333 -22.499 -28 -22.499 -50c0 -22.667 8.16699 -40 24.5 -52s40.166 -18 71.499 -18
c46 0 85.667 12.667 119 38v98l-126 1c-29.333 0 -51.5 -5.66699 -66.5 -17zM295.501 643.497c15.667 -15.667 23.5 -36.5 23.5 -62.5s-7.83301 -46.833 -23.5 -62.5s-36.5 -23.5 -62.5 -23.5s-46.833 7.83301 -62.5 23.5s-23.5 36.5 -23.5 62.5s7.83301 46.833 23.5 62.5
s36.5 23.5 62.5 23.5s46.833 -7.83301 62.5 -23.5zM205.001 608.997c-7.33301 -7.33301 -11 -16.666 -11 -27.999s3.66699 -20.666 11 -27.999s16.666 -11 27.999 -11s20.666 3.66699 27.999 11s11 16.666 11 27.999s-3.66699 20.666 -11 27.999s-16.666 11 -27.999 11
s-20.666 -3.66699 -27.999 -11z" />
    <glyph glyph-name="ae" unicode="&#xe6;" horiz-adv-x="777" 
d="M150.5 437.5c20.333 4.33301 45.499 6.50391 75.499 6.50391c42 0 76.167 -8.33301 102.5 -25s44.833 -40.334 55.5 -71.001c18.667 30 42.834 53.5 72.501 70.5s63.5 25.5 101.5 25.5c50 0 91.667 -15.333 125 -46s50 -81.667 50 -153c0 -14.667 -1 -31 -3 -49l-322 -2
c2.66699 -46.667 15.667 -82.5 39 -107.5s56.333 -37.5 99 -37.5c27.333 0 52.333 3.66699 75 11s41.167 15.166 55.5 23.499s21.5 13.166 21.5 14.499l36 -47c0 -2 -8.5 -8.66699 -25.5 -20s-39.5 -21.833 -67.5 -31.5s-60 -14.5 -96 -14.5c-66.667 0 -120 21 -160 63
c-20.667 -14 -49 -28 -85 -42s-67 -21 -93 -21c-52.667 0 -94.5 12.667 -125.5 38s-46.5 57.666 -46.5 96.999c0 43.333 15.5 75.666 46.5 96.999s70.833 32 119.5 32l129 -1c0 32.667 -2.66699 58.334 -8 77.001s-15.333 32.5 -30 41.5s-35.667 13.5 -63 13.5
c-32.667 0 -62.667 -4 -90 -12l-10 -55l-64 12l16 91c26 10 49.167 17.167 69.5 21.5zM635.499 349.504c-17 20.333 -43.833 30.501 -80.5 30.501c-39.333 0 -72 -11 -98 -33s-42 -52.333 -48 -91l254 1c-1.33301 41.333 -10.5 72.166 -27.5 92.499zM138.499 172.505
c-15.667 -9 -23.499 -26.833 -23.499 -53.5c0 -22.667 9.16699 -40 27.5 -52s41.166 -18 68.499 -18c22 0 46.167 4.5 72.5 13.5s49.5 19.833 69.5 32.5c-14 28 -22 58 -24 90l-125 1c-28 0 -49.833 -4.5 -65.5 -13.5z" />
    <glyph glyph-name="ccedilla" unicode="&#xe7;" horiz-adv-x="469" 
d="M369 6.5c-17.333 -8.33301 -37.3369 -14.502 -60.0039 -18.502v-51c72 0 108 -26 108 -78c0 -25.333 -9.66699 -45.333 -29 -60s-45.666 -22 -78.999 -22c-38.667 0 -66 6.16699 -82 18.5s-24.333 18.5 -25 18.5l22 37c11.333 -7.33301 24.833 -13.5 40.5 -18.5
s29.834 -7.5 42.501 -7.5c36.667 0 55 11.333 55 34c0 12.667 -5 21.5 -15 26.5s-27 7.5 -51 7.5h-37v92h-1c-42.667 0 -80.5 9.33301 -113.5 28s-58.667 45.334 -77 80.001s-27.5 75.334 -27.5 122.001c0 48 10 89.5 30 124.5s47.333 61.5 82 79.5s73.334 27 116.001 27
c23.333 0 44.5 -2.16699 63.5 -6.5s48.5 -12.166 88.5 -23.499l14 -108l-64 -14l-13 75c-28.667 9.33301 -58.667 14 -90 14c-46 0 -82 -14.333 -108 -43s-39 -70.334 -39 -125.001c0 -52 14 -92.333 42 -121s63.333 -43 106 -43c44 0 86 13.667 126 41l33 -49
c-21.333 -16 -40.666 -28.167 -57.999 -36.5z" />
    <glyph glyph-name="egrave" unicode="&#xe8;" horiz-adv-x="491" 
d="M364 1c-28 -10.667 -59.334 -15.999 -94.001 -15.999c-71.333 0 -127.666 20.333 -168.999 61s-62 97 -62 169c0 45.333 9 85.333 27 120s43.5 61.5 76.5 80.5s71.167 28.5 114.5 28.5c60 0 107.333 -18.833 142 -56.5s52 -88.5 52 -152.5c0 -8 -0.666992 -20.667 -2 -38
l-333 -2c2.66699 -48.667 18.167 -85 46.5 -109s63.166 -36 104.499 -36c56.667 0 104.334 16 143.001 48l36 -47c-26.667 -22.667 -54 -39.334 -82 -50.001zM341.499 348.501c-21 23 -48.834 34.499 -83.501 34.499c-36 0 -67.167 -11.667 -93.5 -35
s-42.166 -53.666 -47.499 -90.999l257 1c-0.666992 37.333 -11.5 67.5 -32.5 90.5zM247.998 484l-148 164l59 44l126 -180z" />
    <glyph glyph-name="eacute" unicode="&#xe9;" horiz-adv-x="491" 
d="M364 1c-28 -10.667 -59.334 -15.999 -94.001 -15.999c-71.333 0 -127.666 20.333 -168.999 61s-62 97 -62 169c0 45.333 9 85.333 27 120s43.5 61.5 76.5 80.5s71.167 28.5 114.5 28.5c60 0 107.333 -18.833 142 -56.5s52 -88.5 52 -152.5c0 -8 -0.666992 -20.667 -2 -38
l-333 -2c2.66699 -48.667 18.167 -85 46.5 -109s63.166 -36 104.499 -36c56.667 0 104.334 16 143.001 48l36 -47c-26.667 -22.667 -54 -39.334 -82 -50.001zM341.499 348.501c-21 23 -48.834 34.499 -83.501 34.499c-36 0 -67.167 -11.667 -93.5 -35
s-42.166 -53.666 -47.499 -90.999l257 1c-0.666992 37.333 -11.5 67.5 -32.5 90.5zM324.998 692l59 -44l-148 -164l-37 28z" />
    <glyph glyph-name="ecircumflex" unicode="&#xea;" horiz-adv-x="491" 
d="M364 1c-28 -10.667 -59.334 -15.999 -94.001 -15.999c-71.333 0 -127.666 20.333 -168.999 61s-62 97 -62 169c0 45.333 9 85.333 27 120s43.5 61.5 76.5 80.5s71.167 28.5 114.5 28.5c60 0 107.333 -18.833 142 -56.5s52 -88.5 52 -152.5c0 -8 -0.666992 -20.667 -2 -38
l-333 -2c2.66699 -48.667 18.167 -85 46.5 -109s63.166 -36 104.499 -36c56.667 0 104.334 16 143.001 48l36 -47c-26.667 -22.667 -54 -39.334 -82 -50.001zM341.499 348.501c-21 23 -48.834 34.499 -83.501 34.499c-36 0 -67.167 -11.667 -93.5 -35
s-42.166 -53.666 -47.499 -90.999l257 1c-0.666992 37.333 -11.5 67.5 -32.5 90.5zM255.998 630l149 -99l-23 -44l-126 65l-126 -63l-27 42z" />
    <glyph glyph-name="edieresis" unicode="&#xeb;" horiz-adv-x="491" 
d="M364 1c-28 -10.667 -59.334 -15.999 -94.001 -15.999c-71.333 0 -127.666 20.333 -168.999 61s-62 97 -62 169c0 45.333 9 85.333 27 120s43.5 61.5 76.5 80.5s71.167 28.5 114.5 28.5c60 0 107.333 -18.833 142 -56.5s52 -88.5 52 -152.5c0 -8 -0.666992 -20.667 -2 -38
l-333 -2c2.66699 -48.667 18.167 -85 46.5 -109s63.166 -36 104.499 -36c56.667 0 104.334 16 143.001 48l36 -47c-26.667 -22.667 -54 -39.334 -82 -50.001zM341.499 348.501c-21 23 -48.834 34.499 -83.501 34.499c-36 0 -67.167 -11.667 -93.5 -35
s-42.166 -53.666 -47.499 -90.999l257 1c-0.666992 37.333 -11.5 67.5 -32.5 90.5zM203.998 602.5c11.333 -11 17 -24.167 17 -39.5s-5.5 -28.5 -16.5 -39.5s-24.167 -16.5 -39.5 -16.5s-28.5 5.5 -39.5 16.5s-16.5 24.167 -16.5 39.5s5.5 28.5 16.5 39.5
s24.167 16.5 39.5 16.5c14.667 0 27.667 -5.5 39 -16.5zM381.998 602.5c11.333 -11 17 -24.167 17 -39.5s-5.5 -28.5 -16.5 -39.5s-24.167 -16.5 -39.5 -16.5s-28.5 5.5 -39.5 16.5s-16.5 24.167 -16.5 39.5s5.5 28.5 16.5 39.5s24.167 16.5 39.5 16.5
c14.667 0 27.667 -5.5 39 -16.5z" />
    <glyph glyph-name="igrave" unicode="&#xec;" horiz-adv-x="304" 
d="M36 429h162v-367h83v-62h-245v62h83v305h-83v62zM143 484l-148 164l59 44l126 -180z" />
    <glyph glyph-name="iacute" unicode="&#xed;" horiz-adv-x="304" 
d="M36 429h162v-367h83v-62h-245v62h83v305h-83v62zM220 692l59 -44l-148 -164l-37 28z" />
    <glyph glyph-name="icircumflex" unicode="&#xee;" horiz-adv-x="304" 
d="M36 429h162v-367h83v-62h-245v62h83v305h-83v62zM151 630l149 -99l-23 -44l-126 65l-126 -63l-27 42z" />
    <glyph glyph-name="idieresis" unicode="&#xef;" horiz-adv-x="304" 
d="M36 429h162v-367h83v-62h-245v62h83v305h-83v62zM99 602.5c11.333 -11 17 -24.167 17 -39.5s-5.5 -28.5 -16.5 -39.5s-24.167 -16.5 -39.5 -16.5s-28.5 5.5 -39.5 16.5s-16.5 24.167 -16.5 39.5s5.5 28.5 16.5 39.5s24.167 16.5 39.5 16.5c14.667 0 27.667 -5.5 39 -16.5
zM277 602.5c11.333 -11 17 -24.167 17 -39.5s-5.5 -28.5 -16.5 -39.5s-24.167 -16.5 -39.5 -16.5s-28.5 5.5 -39.5 16.5s-16.5 24.167 -16.5 39.5s5.5 28.5 16.5 39.5s24.167 16.5 39.5 16.5c14.667 0 27.667 -5.5 39 -16.5z" />
    <glyph glyph-name="eth" unicode="&#xf0;" horiz-adv-x="523" 
d="M386.5 501.5c27.667 -33.667 49.5 -71.501 65.5 -113.501s24.667 -84 26 -126c0 -61.333 -9.66699 -112.833 -29 -154.5s-45.5 -72.667 -78.5 -93s-70.5 -30.5 -112.5 -30.5c-39.333 0 -75.5 8.66699 -108.5 26s-59.5 43.166 -79.5 77.499s-30 76.166 -30 125.499
c0 46.667 9.16699 87.334 27.5 122.001s44 61.167 77 79.5s70.833 27.5 113.5 27.5c35.333 0 68.333 -6.33301 99 -19c-26.667 44.667 -62 80.334 -106 107.001l-46 -50l-41 40l34 38c-28 13.333 -61.333 26.333 -100 39l13 55c60 -17.333 103.667 -32.666 131 -45.999
l46 51l41 -40l-35 -39c34 -17.333 64.833 -42.833 92.5 -76.5zM155.5 335.499c-23.667 -28.333 -35.5 -69.168 -35.5 -122.501s11.833 -94.166 35.5 -122.499s58.167 -42.5 103.5 -42.5c44.667 0 79.167 17.167 103.5 51.5s36.5 82.833 36.5 145.5
c0 18 -1.33301 34.333 -4 49s-6.66699 31.667 -12 51c-14 10 -32.333 18 -55 24s-45.667 9 -69 9c-45.333 0 -79.833 -14.167 -103.5 -42.5z" />
    <glyph glyph-name="ntilde" unicode="&#xf1;" horiz-adv-x="621" 
d="M42 62h83.999v287l-96 33l21 62l133 -46c46.667 30.667 97.334 46 152.001 46c50.667 0 93 -14.667 127 -44s51 -71 51 -125v-213h84v-62h-207v62h45v197c0 40.667 -10.333 71 -31 91s-48 30 -82 30c-38 0 -77.667 -11.333 -119 -34v-284h45v-62h-207v62zM164.999 549
c23.333 15.333 42.3301 25.999 56.9971 31.999s32.334 9 53.001 9c14.667 0 27.334 -1.83301 38.001 -5.5s23.334 -9.5 38.001 -17.5c10 -6 18.667 -10.333 26 -13s15 -4 23 -4c10 0 18.667 2 26 6s20.333 13 39 27l24 -56c-19.333 -16.667 -35.833 -28 -49.5 -34
s-28.5 -9 -44.5 -9c-10 0 -19.5 1.83301 -28.5 5.5s-19.5 8.83398 -31.5 15.501c-11.333 6.66699 -21.5 11.667 -30.5 15s-17.833 5 -26.5 5c-14.667 0 -27 -1.5 -37 -4.5s-20.5 -7.16699 -31.5 -12.5s-18.833 -9 -23.5 -11z" />
    <glyph glyph-name="ograve" unicode="&#xf2;" horiz-adv-x="521" 
d="M375.5 416c33.667 -18.667 59.666 -45.1709 77.999 -79.5039s27.5 -75.166 27.5 -122.499c0 -70.667 -20.167 -126.5 -60.5 -167.5s-94.166 -61.5 -161.499 -61.5c-42.667 0 -80.5 9.16699 -113.5 27.5s-58.667 44.833 -77 79.5s-27.5 75.334 -27.5 122.001
s9.16699 87.334 27.5 122.001s44 61.334 77 80.001s70.833 28 113.5 28c44 0 82.833 -9.33301 116.5 -28zM156.499 336.996c-23.667 -28.667 -35.5 -69.667 -35.5 -123s11.833 -94.166 35.5 -122.499s58.167 -42.5 103.5 -42.5c46.667 0 81.834 14.167 105.501 42.5
s35.5 69.166 35.5 122.499s-11.833 94.333 -35.5 123s-58.834 43 -105.501 43c-45.333 0 -79.833 -14.333 -103.5 -43zM254.999 483.996l-148 164l59 44l126 -180z" />
    <glyph glyph-name="oacute" unicode="&#xf3;" horiz-adv-x="521" 
d="M375.5 416c33.667 -18.667 59.666 -45.1709 77.999 -79.5039s27.5 -75.166 27.5 -122.499c0 -70.667 -20.167 -126.5 -60.5 -167.5s-94.166 -61.5 -161.499 -61.5c-42.667 0 -80.5 9.16699 -113.5 27.5s-58.667 44.833 -77 79.5s-27.5 75.334 -27.5 122.001
s9.16699 87.334 27.5 122.001s44 61.334 77 80.001s70.833 28 113.5 28c44 0 82.833 -9.33301 116.5 -28zM156.499 336.996c-23.667 -28.667 -35.5 -69.667 -35.5 -123s11.833 -94.166 35.5 -122.499s58.167 -42.5 103.5 -42.5c46.667 0 81.834 14.167 105.501 42.5
s35.5 69.166 35.5 122.499s-11.833 94.333 -35.5 123s-58.834 43 -105.501 43c-45.333 0 -79.833 -14.333 -103.5 -43zM331.999 691.996l59 -44l-148 -164l-37 28z" />
    <glyph glyph-name="ocircumflex" unicode="&#xf4;" horiz-adv-x="521" 
d="M375.5 416c33.667 -18.667 59.666 -45.1709 77.999 -79.5039s27.5 -75.166 27.5 -122.499c0 -70.667 -20.167 -126.5 -60.5 -167.5s-94.166 -61.5 -161.499 -61.5c-42.667 0 -80.5 9.16699 -113.5 27.5s-58.667 44.833 -77 79.5s-27.5 75.334 -27.5 122.001
s9.16699 87.334 27.5 122.001s44 61.334 77 80.001s70.833 28 113.5 28c44 0 82.833 -9.33301 116.5 -28zM156.499 336.996c-23.667 -28.667 -35.5 -69.667 -35.5 -123s11.833 -94.166 35.5 -122.499s58.167 -42.5 103.5 -42.5c46.667 0 81.834 14.167 105.501 42.5
s35.5 69.166 35.5 122.499s-11.833 94.333 -35.5 123s-58.834 43 -105.501 43c-45.333 0 -79.833 -14.333 -103.5 -43zM262.999 629.996l149 -99l-23 -44l-126 65l-126 -63l-27 42z" />
    <glyph glyph-name="otilde" unicode="&#xf5;" horiz-adv-x="521" 
d="M375.5 416c33.667 -18.667 59.666 -45.1709 77.999 -79.5039s27.5 -75.166 27.5 -122.499c0 -70.667 -20.167 -126.5 -60.5 -167.5s-94.166 -61.5 -161.499 -61.5c-42.667 0 -80.5 9.16699 -113.5 27.5s-58.667 44.833 -77 79.5s-27.5 75.334 -27.5 122.001
s9.16699 87.334 27.5 122.001s44 61.334 77 80.001s70.833 28 113.5 28c44 0 82.833 -9.33301 116.5 -28zM156.499 336.996c-23.667 -28.667 -35.5 -69.667 -35.5 -123s11.833 -94.166 35.5 -122.499s58.167 -42.5 103.5 -42.5c46.667 0 81.834 14.167 105.501 42.5
s35.5 69.166 35.5 122.499s-11.833 94.333 -35.5 123s-58.834 43 -105.501 43c-45.333 0 -79.833 -14.333 -103.5 -43zM119.999 548.996c23.333 15.333 42.3301 25.999 56.9971 31.999s32.334 9 53.001 9c14.667 0 27.334 -1.83301 38.001 -5.5s23.334 -9.5 38.001 -17.5
c10 -6 18.667 -10.333 26 -13s15 -4 23 -4c10 0 18.667 2 26 6s20.333 13 39 27l24 -56c-19.333 -16.667 -35.833 -28 -49.5 -34s-28.5 -9 -44.5 -9c-10 0 -19.5 1.83301 -28.5 5.5s-19.5 8.83398 -31.5 15.501c-11.333 6.66699 -21.5 11.667 -30.5 15s-17.833 5 -26.5 5
c-14.667 0 -27 -1.5 -37 -4.5s-20.5 -7.16699 -31.5 -12.5s-18.833 -9 -23.5 -11z" />
    <glyph glyph-name="odieresis" unicode="&#xf6;" horiz-adv-x="521" 
d="M375.5 416c33.667 -18.667 59.666 -45.1709 77.999 -79.5039s27.5 -75.166 27.5 -122.499c0 -70.667 -20.167 -126.5 -60.5 -167.5s-94.166 -61.5 -161.499 -61.5c-42.667 0 -80.5 9.16699 -113.5 27.5s-58.667 44.833 -77 79.5s-27.5 75.334 -27.5 122.001
s9.16699 87.334 27.5 122.001s44 61.334 77 80.001s70.833 28 113.5 28c44 0 82.833 -9.33301 116.5 -28zM156.499 336.996c-23.667 -28.667 -35.5 -69.667 -35.5 -123s11.833 -94.166 35.5 -122.499s58.167 -42.5 103.5 -42.5c46.667 0 81.834 14.167 105.501 42.5
s35.5 69.166 35.5 122.499s-11.833 94.333 -35.5 123s-58.834 43 -105.501 43c-45.333 0 -79.833 -14.333 -103.5 -43zM210.999 602.496c11.333 -11 17 -24.167 17 -39.5s-5.5 -28.5 -16.5 -39.5s-24.167 -16.5 -39.5 -16.5s-28.5 5.5 -39.5 16.5s-16.5 24.167 -16.5 39.5
s5.5 28.5 16.5 39.5s24.167 16.5 39.5 16.5c14.667 0 27.667 -5.5 39 -16.5zM388.999 602.496c11.333 -11 17 -24.167 17 -39.5s-5.5 -28.5 -16.5 -39.5s-24.167 -16.5 -39.5 -16.5s-28.5 5.5 -39.5 16.5s-16.5 24.167 -16.5 39.5s5.5 28.5 16.5 39.5s24.167 16.5 39.5 16.5
c14.667 0 27.667 -5.5 39 -16.5z" />
    <glyph glyph-name="divide" unicode="&#xf7;" horiz-adv-x="466" 
d="M276.5 499.5c12.333 -12.333 18.5 -26.833 18.5 -43.5s-6.16699 -31.167 -18.5 -43.5s-26.833 -18.5 -43.5 -18.5s-31.167 6.16699 -43.5 18.5s-18.5 26.833 -18.5 43.5s6.16699 31.167 18.5 43.5s26.833 18.5 43.5 18.5s31.167 -6.16699 43.5 -18.5zM416 338v-69h-366
v69h366zM276.5 180.5c12.333 -12.333 18.5 -26.833 18.5 -43.5s-6.16699 -31.167 -18.5 -43.5s-26.833 -18.5 -43.5 -18.5s-31.167 6.16699 -43.5 18.5s-18.5 26.833 -18.5 43.5s6.16699 31.167 18.5 43.5s26.833 18.5 43.5 18.5s31.167 -6.16699 43.5 -18.5z" />
    <glyph glyph-name="oslash" unicode="&#xf8;" horiz-adv-x="521" 
d="M452.5 338.5c19 -35 28.498 -76.502 28.498 -124.502c0 -70.667 -20.167 -126.5 -60.5 -167.5s-94.166 -61.5 -161.499 -61.5c-21.333 0 -42.666 2.66699 -63.999 8l-26 -62h-50l32 78c-34.667 18 -61.667 44.667 -81 80s-29 77 -29 125
c0 46.667 9.16699 87.334 27.5 122.001s44 61.334 77 80.001s70.833 28 113.5 28c24.667 0 47.667 -3 69 -9l27 64h50l-33 -81c34.667 -18 61.5 -44.5 80.5 -79.5zM177.998 71.998l125 303c-14.667 3.33301 -29 5 -43 5c-45.333 0 -79.833 -14.333 -103.5 -43
s-35.5 -69.667 -35.5 -123c0 -68 19 -115.333 57 -142zM365.498 91.498c23.667 28.333 35.499 69.168 35.499 122.501c0 67.333 -18.667 114.666 -56 141.999l-125 -303c10.667 -2.66699 24 -4 40 -4c46.667 0 81.834 14.167 105.501 42.5z" />
    <glyph glyph-name="ugrave" unicode="&#xf9;" horiz-adv-x="609" 
d="M361 -3c-26.667 -8 -51.667 -12 -75 -12c-61.333 0 -106.5 13.667 -135.5 41s-43.5 70 -43.5 128v213h-84v62h162v-259c0 -42.667 8.33301 -73.5 25 -92.5s43.667 -28.5 81 -28.5c21.333 0 44 3.16699 68 9.5s43.333 14.5 58 24.5v284h-84v62h162v-351l94 -32l-20 -64
l-136 47c-21.333 -13.333 -45.333 -24 -72 -32zM275 484l-148 164l59 44l126 -180z" />
    <glyph glyph-name="uacute" unicode="&#xfa;" horiz-adv-x="609" 
d="M361 -3c-26.667 -8 -51.667 -12 -75 -12c-61.333 0 -106.5 13.667 -135.5 41s-43.5 70 -43.5 128v213h-84v62h162v-259c0 -42.667 8.33301 -73.5 25 -92.5s43.667 -28.5 81 -28.5c21.333 0 44 3.16699 68 9.5s43.333 14.5 58 24.5v284h-84v62h162v-351l94 -32l-20 -64
l-136 47c-21.333 -13.333 -45.333 -24 -72 -32zM352 692l59 -44l-148 -164l-37 28z" />
    <glyph glyph-name="ucircumflex" unicode="&#xfb;" horiz-adv-x="609" 
d="M361 -3c-26.667 -8 -51.667 -12 -75 -12c-61.333 0 -106.5 13.667 -135.5 41s-43.5 70 -43.5 128v213h-84v62h162v-259c0 -42.667 8.33301 -73.5 25 -92.5s43.667 -28.5 81 -28.5c21.333 0 44 3.16699 68 9.5s43.333 14.5 58 24.5v284h-84v62h162v-351l94 -32l-20 -64
l-136 47c-21.333 -13.333 -45.333 -24 -72 -32zM283 630l149 -99l-23 -44l-126 65l-126 -63l-27 42z" />
    <glyph glyph-name="udieresis" unicode="&#xfc;" horiz-adv-x="609" 
d="M361 -3c-26.667 -8 -51.667 -12 -75 -12c-61.333 0 -106.5 13.667 -135.5 41s-43.5 70 -43.5 128v213h-84v62h162v-259c0 -42.667 8.33301 -73.5 25 -92.5s43.667 -28.5 81 -28.5c21.333 0 44 3.16699 68 9.5s43.333 14.5 58 24.5v284h-84v62h162v-351l94 -32l-20 -64
l-136 47c-21.333 -13.333 -45.333 -24 -72 -32zM231 602.5c11.333 -11 17 -24.167 17 -39.5s-5.5 -28.5 -16.5 -39.5s-24.167 -16.5 -39.5 -16.5s-28.5 5.5 -39.5 16.5s-16.5 24.167 -16.5 39.5s5.5 28.5 16.5 39.5s24.167 16.5 39.5 16.5c14.667 0 27.667 -5.5 39 -16.5z
M409 602.5c11.333 -11 17 -24.167 17 -39.5s-5.5 -28.5 -16.5 -39.5s-24.167 -16.5 -39.5 -16.5s-28.5 5.5 -39.5 16.5s-16.5 24.167 -16.5 39.5s5.5 28.5 16.5 39.5s24.167 16.5 39.5 16.5c14.667 0 27.667 -5.5 39 -16.5z" />
    <glyph glyph-name="yacute" unicode="&#xfd;" horiz-adv-x="543" 
d="M542 429l0.000976562 -62h-72l-163 -457c-31.333 -89.333 -83 -134 -155 -134c-22 0 -44 3.66699 -66 11l12 60c18 -5.33301 34 -8 48 -8c19.333 0 34.833 2.83301 46.5 8.5s22.167 16.5 31.5 32.5s19.666 40.333 30.999 73l5 14l-188 400h-71v62h208v-62h-57l138 -313
l107 313h-55v62h200zM344.001 692l59 -44l-148 -164l-37 28z" />
    <glyph glyph-name="thorn" unicode="&#xfe;" horiz-adv-x="517" 
d="M263 444c64.667 0 116.5 -19 155.5 -57s58.5 -91.333 58.5 -160c0 -47.333 -9.16699 -89.333 -27.5 -126s-44 -65.167 -77 -85.5s-70.833 -30.5 -113.5 -30.5c-40 0 -77 5.66699 -111 17v-148h84v-62h-246v62h84v703l-94 31l20 64l152 -52v-188
c38.667 21.333 77 32 115 32zM164.5 66c9 -4 21.501 -7.83203 37.501 -11.499s34.667 -5.5 56 -5.5c44.667 0 79 16.167 103 48.5s36 75.5 36 129.5c0 102 -45 153 -135 153c-21.333 0 -40.333 -2.66699 -57 -8s-30.334 -11.333 -41.001 -18s-16 -10.334 -16 -11.001v-269
c2 -1.33301 7.5 -4 16.5 -8z" />
    <glyph glyph-name="ydieresis" unicode="&#xff;" horiz-adv-x="543" 
d="M542 429l0.000976562 -62h-72l-163 -457c-31.333 -89.333 -83 -134 -155 -134c-22 0 -44 3.66699 -66 11l12 60c18 -5.33301 34 -8 48 -8c19.333 0 34.833 2.83301 46.5 8.5s22.167 16.5 31.5 32.5s19.666 40.333 30.999 73l5 14l-188 400h-71v62h208v-62h-57l138 -313
l107 313h-55v62h200zM223.001 602.5c11.333 -11 17 -24.167 17 -39.5s-5.5 -28.5 -16.5 -39.5s-24.167 -16.5 -39.5 -16.5s-28.5 5.5 -39.5 16.5s-16.5 24.167 -16.5 39.5s5.5 28.5 16.5 39.5s24.167 16.5 39.5 16.5c14.667 0 27.667 -5.5 39 -16.5zM401.001 602.5
c11.333 -11 17 -24.167 17 -39.5s-5.5 -28.5 -16.5 -39.5s-24.167 -16.5 -39.5 -16.5s-28.5 5.5 -39.5 16.5s-16.5 24.167 -16.5 39.5s5.5 28.5 16.5 39.5s24.167 16.5 39.5 16.5c14.667 0 27.667 -5.5 39 -16.5z" />
    <glyph glyph-name="Amacron" unicode="&#x100;" horiz-adv-x="651" 
d="M10 0v69h96l166 451h-101v69h194l181 -520h95v-69h-243v69h63l-32 91h-216l-34 -91h64v-69h-233zM238 229h167l-79 259zM168 749h299v-59h-299v59z" />
    <glyph glyph-name="amacron" unicode="&#x101;" horiz-adv-x="525" 
d="M208 -15c-56.667 0 -99.5 11.4971 -128.5 34.4971s-43.5 56.5 -43.5 100.5c0 42.667 14 74.834 42 96.501s69.333 32.5 124 32.5l129 -1c0 44.667 -8.33301 77.834 -25 99.501s-42 32.5 -76 32.5c-33.333 0 -63.333 -4 -90 -12l-10 -55l-64 12l16 91
c52 18.667 100.333 28 145 28c60 0 105.333 -16.167 136 -48.5s46 -80.166 46 -143.499v-174l95 -31l-20 -64l-135 46c-43.333 -29.333 -90.333 -44 -141 -44zM138.5 168.997c-15 -11.333 -22.499 -28 -22.499 -50c0 -22.667 8.16699 -40 24.5 -52s40.166 -18 71.499 -18
c46 0 85.667 12.667 119 38v98l-126 1c-29.333 0 -51.5 -5.66699 -66.5 -17zM83.001 588.997h299v-59h-299v59z" />
    <glyph glyph-name="Abreve" unicode="&#x102;" horiz-adv-x="651" 
d="M10 0v69h96l166 451h-101v69h194l181 -520h95v-69h-243v69h63l-32 91h-216l-34 -91h64v-69h-233zM238 229h167l-79 259zM212.5 680.5c-26.333 20.333 -43.5 50.166 -51.5 89.499l65 12c7.33301 -45.333 37.666 -68 90.999 -68c55.333 0 86 22.667 92 68l65 -12
c-8 -39.333 -25.333 -69.166 -52 -89.499s-61.667 -30.5 -105 -30.5s-78.166 10.167 -104.499 30.5z" />
    <glyph glyph-name="abreve" unicode="&#x103;" horiz-adv-x="525" 
d="M208 -15c-56.667 0 -99.5 11.4971 -128.5 34.4971s-43.5 56.5 -43.5 100.5c0 42.667 14 74.834 42 96.501s69.333 32.5 124 32.5l129 -1c0 44.667 -8.33301 77.834 -25 99.501s-42 32.5 -76 32.5c-33.333 0 -63.333 -4 -90 -12l-10 -55l-64 12l16 91
c52 18.667 100.333 28 145 28c60 0 105.333 -16.167 136 -48.5s46 -80.166 46 -143.499v-174l95 -31l-20 -64l-135 46c-43.333 -29.333 -90.333 -44 -141 -44zM138.5 168.997c-15 -11.333 -22.499 -28 -22.499 -50c0 -22.667 8.16699 -40 24.5 -52s40.166 -18 71.499 -18
c46 0 85.667 12.667 119 38v98l-126 1c-29.333 0 -51.5 -5.66699 -66.5 -17zM127.501 520.497c-26.333 20.333 -43.5 50.166 -51.5 89.499l65 12c7.33301 -45.333 37.666 -68 90.999 -68c55.333 0 86 22.667 92 68l65 -12c-8 -39.333 -25.333 -69.166 -52 -89.499
s-61.667 -30.5 -105 -30.5s-78.166 10.167 -104.499 30.5z" />
    <glyph glyph-name="Aogonek" unicode="&#x104;" horiz-adv-x="651" 
d="M487.5 -47.5c-12.333 -17 -18.498 -35.832 -18.498 -56.499c0 -14.667 5.16699 -25.834 15.5 -33.501s25.166 -11.5 44.499 -11.5c16 0 32.333 3 49 9v-61c-26.667 -13.333 -53.334 -20 -80.001 -20c-30.667 0 -57 8.33301 -79 25s-33 39 -33 67c0 27.333 8 51.5 24 72.5
s40.667 39.833 74 56.5h-86v69h63l-32 91h-216l-34 -91h64v-69h-233v69h96l166 451h-101v69h194l181 -520h95v-69h-96c-26 -14.667 -45.167 -30.5 -57.5 -47.5zM238.002 229.001h167l-79 259z" />
    <glyph glyph-name="aogonek" unicode="&#x105;" horiz-adv-x="525" 
d="M518 -157l0.00195312 -61.0029c-26.667 -13.333 -53.334 -20 -80.001 -20c-30.667 0 -57 8.33301 -79 25s-33 39 -33 67c0 30.667 10 57.334 30 80.001s51 43 93 61l-100 34c-43.333 -29.333 -90.333 -44 -141 -44c-56.667 0 -99.5 11.5 -128.5 34.5
s-43.5 56.5 -43.5 100.5c0 42.667 14 74.834 42 96.501s69.333 32.5 124 32.5l129 -1c0 44.667 -8.33301 77.834 -25 99.501s-42 32.5 -76 32.5c-33.333 0 -63.333 -4 -90 -12l-10 -55l-64 12l16 91c52 18.667 100.333 28 145 28c60 0 105.333 -16.167 136 -48.5
s46 -80.166 46 -143.499v-174l95 -31l-20 -63l1 -1c-26 -14.667 -45.167 -30.5 -57.5 -47.5s-18.5 -35.833 -18.5 -56.5c0 -14.667 5.16699 -25.834 15.5 -33.501s25.166 -11.5 44.499 -11.5c16 0 32.333 3 49 9zM331.002 184.997l-125.999 1
c-29.333 0 -51.5 -5.66699 -66.5 -17s-22.5 -28 -22.5 -50c0 -22.667 8.16699 -40 24.5 -52s40.166 -18 71.499 -18c46 0 85.667 12.667 119 38v98z" />
    <glyph glyph-name="Cacute" unicode="&#x106;" horiz-adv-x="575" 
d="M328 536c-64 0 -113.167 -21.3301 -147.5 -63.9971s-51.5 -101.667 -51.5 -177c0 -76 17.5 -135.333 52.5 -178s83.833 -64 146.5 -64c39.333 0 78.333 7 117 21l19 80l68 -16l-25 -116c0 -0.666992 -8.5 -4.33398 -25.5 -11.001s-38.833 -12.667 -65.5 -18
s-56 -8 -88 -8c-57.333 0 -107.333 12.833 -150 38.5s-75.667 62 -99 109s-35 101.833 -35 164.5c0 61.333 11.667 115.166 35 161.499s56.166 82.166 98.499 107.499s91.5 38 147.5 38c39.333 0 72.833 -3.5 100.5 -10.5s48.834 -14.5 63.501 -22.5s22 -12.667 22 -14
l22 -116l-68 -15l-20 86c-29.333 16 -68.333 24 -117 24zM479 768.003l18 -73l-252 -47l-9 36z" />
    <glyph glyph-name="cacute" unicode="&#x107;" horiz-adv-x="469" 
d="M267 383c-46 0 -81.999 -14.335 -107.999 -43.002s-39 -70.334 -39 -125.001c0 -52 14 -92.333 42 -121s63.333 -43 106 -43c44 0 86 13.667 126 41l33 -49c-28.667 -20.667 -54.334 -35.5 -77.001 -44.5s-53.334 -13.5 -92.001 -13.5c-42.667 0 -80.5 9.33301 -113.5 28
s-58.667 45.334 -77 80.001s-27.5 75.334 -27.5 122.001c0 48 10 89.5 30 124.5s47.333 61.5 82 79.5s73.334 27 116.001 27c23.333 0 44.5 -2.16699 63.5 -6.5s48.5 -12.166 88.5 -23.499l14 -108l-64 -14l-13 75c-28.667 9.33301 -58.667 14 -90 14zM340.001 691.998
l59 -44l-148 -164l-37 28z" />
    <glyph glyph-name="Ccircumflex" unicode="&#x108;" horiz-adv-x="575" 
d="M328 536c-64 0 -113.167 -21.3301 -147.5 -63.9971s-51.5 -101.667 -51.5 -177c0 -76 17.5 -135.333 52.5 -178s83.833 -64 146.5 -64c39.333 0 78.333 7 117 21l19 80l68 -16l-25 -116c0 -0.666992 -8.5 -4.33398 -25.5 -11.001s-38.833 -12.667 -65.5 -18
s-56 -8 -88 -8c-57.333 0 -107.333 12.833 -150 38.5s-75.667 62 -99 109s-35 101.833 -35 164.5c0 61.333 11.667 115.166 35 161.499s56.166 82.166 98.499 107.499s91.5 38 147.5 38c39.333 0 72.833 -3.5 100.5 -10.5s48.834 -14.5 63.501 -22.5s22 -12.667 22 -14
l22 -116l-68 -15l-20 86c-29.333 16 -68.333 24 -117 24zM327 778.003l171 -97l-18 -32l-153 56l-153 -56l-18 32z" />
    <glyph glyph-name="ccircumflex" unicode="&#x109;" horiz-adv-x="469" 
d="M267 383c-46 0 -81.999 -14.335 -107.999 -43.002s-39 -70.334 -39 -125.001c0 -52 14 -92.333 42 -121s63.333 -43 106 -43c44 0 86 13.667 126 41l33 -49c-28.667 -20.667 -54.334 -35.5 -77.001 -44.5s-53.334 -13.5 -92.001 -13.5c-42.667 0 -80.5 9.33301 -113.5 28
s-58.667 45.334 -77 80.001s-27.5 75.334 -27.5 122.001c0 48 10 89.5 30 124.5s47.333 61.5 82 79.5s73.334 27 116.001 27c23.333 0 44.5 -2.16699 63.5 -6.5s48.5 -12.166 88.5 -23.499l14 -108l-64 -14l-13 75c-28.667 9.33301 -58.667 14 -90 14zM271.001 629.998
l149 -99l-23 -44l-126 65l-126 -63l-27 42z" />
    <glyph glyph-name="Cdotaccent" unicode="&#x10a;" horiz-adv-x="575" 
d="M328 536c-64 0 -113.167 -21.3301 -147.5 -63.9971s-51.5 -101.667 -51.5 -177c0 -76 17.5 -135.333 52.5 -178s83.833 -64 146.5 -64c39.333 0 78.333 7 117 21l19 80l68 -16l-25 -116c0 -0.666992 -8.5 -4.33398 -25.5 -11.001s-38.833 -12.667 -65.5 -18
s-56 -8 -88 -8c-57.333 0 -107.333 12.833 -150 38.5s-75.667 62 -99 109s-35 101.833 -35 164.5c0 61.333 11.667 115.166 35 161.499s56.166 82.166 98.499 107.499s91.5 38 147.5 38c39.333 0 72.833 -3.5 100.5 -10.5s48.834 -14.5 63.501 -22.5s22 -12.667 22 -14
l22 -116l-68 -15l-20 86c-29.333 16 -68.333 24 -117 24zM371 785.003c11.333 -11.333 17 -26.333 17 -45s-5.66699 -33.667 -17 -45s-26.333 -17 -45 -17s-33.5 5.66699 -44.5 17s-16.5 26.333 -16.5 45s5.5 33.667 16.5 45s25.833 17 44.5 17s33.667 -5.66699 45 -17z" />
    <glyph glyph-name="cdotaccent" unicode="&#x10b;" horiz-adv-x="469" 
d="M267 383c-46 0 -81.999 -14.335 -107.999 -43.002s-39 -70.334 -39 -125.001c0 -52 14 -92.333 42 -121s63.333 -43 106 -43c44 0 86 13.667 126 41l33 -49c-28.667 -20.667 -54.334 -35.5 -77.001 -44.5s-53.334 -13.5 -92.001 -13.5c-42.667 0 -80.5 9.33301 -113.5 28
s-58.667 45.334 -77 80.001s-27.5 75.334 -27.5 122.001c0 48 10 89.5 30 124.5s47.333 61.5 82 79.5s73.334 27 116.001 27c23.333 0 44.5 -2.16699 63.5 -6.5s48.5 -12.166 88.5 -23.499l14 -108l-64 -14l-13 75c-28.667 9.33301 -58.667 14 -90 14zM313.001 624.998
c11.333 -11.333 17 -26.333 17 -45s-5.66699 -33.667 -17 -45s-26.333 -17 -45 -17s-33.5 5.66699 -44.5 17s-16.5 26.333 -16.5 45s5.5 33.667 16.5 45s25.833 17 44.5 17s33.667 -5.66699 45 -17z" />
    <glyph glyph-name="Ccaron" unicode="&#x10c;" horiz-adv-x="575" 
d="M328 536c-64 0 -113.167 -21.3301 -147.5 -63.9971s-51.5 -101.667 -51.5 -177c0 -76 17.5 -135.333 52.5 -178s83.833 -64 146.5 -64c39.333 0 78.333 7 117 21l19 80l68 -16l-25 -116c0 -0.666992 -8.5 -4.33398 -25.5 -11.001s-38.833 -12.667 -65.5 -18
s-56 -8 -88 -8c-57.333 0 -107.333 12.833 -150 38.5s-75.667 62 -99 109s-35 101.833 -35 164.5c0 61.333 11.667 115.166 35 161.499s56.166 82.166 98.499 107.499s91.5 38 147.5 38c39.333 0 72.833 -3.5 100.5 -10.5s48.834 -14.5 63.501 -22.5s22 -12.667 22 -14
l22 -116l-68 -15l-20 86c-29.333 16 -68.333 24 -117 24zM329 636.003l-153 99l27 42l126 -63l126 65l23 -44z" />
    <glyph glyph-name="ccaron" unicode="&#x10d;" horiz-adv-x="469" 
d="M267 383c-46 0 -81.999 -14.335 -107.999 -43.002s-39 -70.334 -39 -125.001c0 -52 14 -92.333 42 -121s63.333 -43 106 -43c44 0 86 13.667 126 41l33 -49c-28.667 -20.667 -54.334 -35.5 -77.001 -44.5s-53.334 -13.5 -92.001 -13.5c-42.667 0 -80.5 9.33301 -113.5 28
s-58.667 45.334 -77 80.001s-27.5 75.334 -27.5 122.001c0 48 10 89.5 30 124.5s47.333 61.5 82 79.5s73.334 27 116.001 27c23.333 0 44.5 -2.16699 63.5 -6.5s48.5 -12.166 88.5 -23.499l14 -108l-64 -14l-13 75c-28.667 9.33301 -58.667 14 -90 14zM271.001 475.998
l-153 99l27 42l126 -63l126 65l23 -44z" />
    <glyph glyph-name="Dcaron" unicode="&#x10e;" horiz-adv-x="649" 
d="M526 508.5c53.333 -53.667 80.001 -128.168 80.001 -223.501c0 -89.333 -26 -159.166 -78 -209.499s-124.333 -75.5 -217 -75.5h-274v69h95v451h-95v69h266c95.333 0 169.666 -26.833 222.999 -80.5zM463.001 123.499c38.667 36.333 57.999 90.167 57.999 161.5
c0 77.333 -18.5 135.833 -55.5 175.5s-91.167 59.5 -162.5 59.5h-91v-451h81c74.667 0 131.334 18.167 170.001 54.5zM285 648l-171 97l18 32l153 -56l153 56l18 -32z" />
    <glyph glyph-name="dcaron" unicode="&#x10f;" horiz-adv-x="563" 
d="M389 29c-19.333 -14 -40.5 -24.833 -63.5 -32.5s-45.167 -11.5 -66.5 -11.5c-68.667 0 -122.167 21 -160.5 63s-57.5 100.667 -57.5 176c0 69.333 19.167 123.333 57.5 162s91.833 58 160.5 58c37.333 0 74.333 -7 111 -21v131l-95 33l21 62l152 -52v-518l94 -32l-20 -64
zM315 59c20 6.66699 38.333 15.667 55 27v269c-15.333 7.33301 -33 13.333 -53 18s-39 7 -57 7c-41.333 0 -74.833 -14.167 -100.5 -42.5s-38.5 -65.833 -38.5 -112.5c0 -52.667 12.833 -95.167 38.5 -127.5s59.167 -48.5 100.5 -48.5c16.667 0 35 3.33301 55 10zM411 636
l-153 99l27 42l126 -63l126 65l23 -44z" />
    <glyph glyph-name="Dcroat" unicode="&#x110;" horiz-adv-x="661" 
d="M539 519.5c52.667 -46.333 78.999 -124.5 78.999 -234.5c0 -57.333 -12.833 -107.5 -38.5 -150.5s-61 -76.167 -106 -99.5s-95.167 -35 -150.5 -35h-274v69h95v203h-95v64h95v184h-95v69h266c96.667 0 171.334 -23.167 224.001 -69.5zM474.999 124
c38.667 36.667 57.998 90.333 57.998 161c0 62.667 -8.16699 111 -24.5 145s-40.166 57.5 -71.499 70.5s-72 19.5 -122 19.5h-91v-184h113v-64h-113v-203h81c74.667 0 131.334 18.333 170.001 55z" />
    <glyph glyph-name="dcroat" unicode="&#x111;" horiz-adv-x="563" 
d="M542 47l-20 -64l-133 46c-19.333 -14 -40.5 -24.833 -63.5 -32.5s-45.167 -11.5 -66.5 -11.5c-68.667 0 -122.167 20.167 -160.5 60.5s-57.5 96.5 -57.5 168.5c0 66.667 19.333 119.167 58 157.5s92 57.5 160 57.5c37.333 0 74.333 -7 111 -21v57h-149v60h149v29l-95 33
l21 62l152 -52v-72h80v-60h-80v-386zM370 340c-15.333 7.33301 -33 13.333 -53 18s-39 7 -57 7c-41.333 0 -74.833 -14 -100.5 -42s-38.5 -64 -38.5 -108c0 -50 12.833 -90.167 38.5 -120.5s59.167 -45.5 100.5 -45.5c20 0 38.833 3.16699 56.5 9.5s35.5 15.5 53.5 27.5v254
z" />
    <glyph glyph-name="Emacron" unicode="&#x112;" horiz-adv-x="587" 
d="M38 589h444l51 -154l-65 -22l-40 107h-214v-181h187v-69h-187l-1 -201h235l40 107l65 -22l-51 -154h-465v69h96l1 451h-96v69zM143 749h299v-59h-299v59z" />
    <glyph glyph-name="emacron" unicode="&#x113;" horiz-adv-x="491" 
d="M364 1c-28 -10.667 -59.334 -15.999 -94.001 -15.999c-71.333 0 -127.666 20.333 -168.999 61s-62 97 -62 169c0 45.333 9 85.333 27 120s43.5 61.5 76.5 80.5s71.167 28.5 114.5 28.5c60 0 107.333 -18.833 142 -56.5s52 -88.5 52 -152.5c0 -8 -0.666992 -20.667 -2 -38
l-333 -2c2.66699 -48.667 18.167 -85 46.5 -109s63.166 -36 104.499 -36c56.667 0 104.334 16 143.001 48l36 -47c-26.667 -22.667 -54 -39.334 -82 -50.001zM341.499 348.501c-21 23 -48.834 34.499 -83.501 34.499c-36 0 -67.167 -11.667 -93.5 -35
s-42.166 -53.666 -47.499 -90.999l257 1c-0.666992 37.333 -11.5 67.5 -32.5 90.5zM103.998 589h299v-59h-299v59z" />
    <glyph glyph-name="Ebreve" unicode="&#x114;" horiz-adv-x="587" 
d="M38 589h444l51 -154l-65 -22l-40 107h-214v-181h187v-69h-187l-1 -201h235l40 107l65 -22l-51 -154h-465v69h96l1 451h-96v69zM187.5 680.5c-26.333 20.333 -43.5 50.166 -51.5 89.499l65 12c7.33301 -45.333 37.666 -68 90.999 -68c55.333 0 86 22.667 92 68l65 -12
c-8 -39.333 -25.333 -69.166 -52 -89.499s-61.667 -30.5 -105 -30.5s-78.166 10.167 -104.499 30.5z" />
    <glyph glyph-name="ebreve" unicode="&#x115;" horiz-adv-x="491" 
d="M364 1c-28 -10.667 -59.334 -15.999 -94.001 -15.999c-71.333 0 -127.666 20.333 -168.999 61s-62 97 -62 169c0 45.333 9 85.333 27 120s43.5 61.5 76.5 80.5s71.167 28.5 114.5 28.5c60 0 107.333 -18.833 142 -56.5s52 -88.5 52 -152.5c0 -8 -0.666992 -20.667 -2 -38
l-333 -2c2.66699 -48.667 18.167 -85 46.5 -109s63.166 -36 104.499 -36c56.667 0 104.334 16 143.001 48l36 -47c-26.667 -22.667 -54 -39.334 -82 -50.001zM341.499 348.501c-21 23 -48.834 34.499 -83.501 34.499c-36 0 -67.167 -11.667 -93.5 -35
s-42.166 -53.666 -47.499 -90.999l257 1c-0.666992 37.333 -11.5 67.5 -32.5 90.5zM148.498 520.5c-26.333 20.333 -43.5 50.166 -51.5 89.499l65 12c7.33301 -45.333 37.666 -68 90.999 -68c55.333 0 86 22.667 92 68l65 -12c-8 -39.333 -25.333 -69.166 -52 -89.499
s-61.667 -30.5 -105 -30.5s-78.166 10.167 -104.499 30.5z" />
    <glyph glyph-name="Edotaccent" unicode="&#x116;" horiz-adv-x="587" 
d="M38 589h444l51 -154l-65 -22l-40 107h-214v-181h187v-69h-187l-1 -201h235l40 107l65 -22l-51 -154h-465v69h96l1 451h-96v69zM337 785c11.333 -11.333 17 -26.333 17 -45s-5.66699 -33.667 -17 -45s-26.333 -17 -45 -17s-33.5 5.66699 -44.5 17s-16.5 26.333 -16.5 45
s5.5 33.667 16.5 45s25.833 17 44.5 17s33.667 -5.66699 45 -17z" />
    <glyph glyph-name="edotaccent" unicode="&#x117;" horiz-adv-x="491" 
d="M364 1c-28 -10.667 -59.334 -15.999 -94.001 -15.999c-71.333 0 -127.666 20.333 -168.999 61s-62 97 -62 169c0 45.333 9 85.333 27 120s43.5 61.5 76.5 80.5s71.167 28.5 114.5 28.5c60 0 107.333 -18.833 142 -56.5s52 -88.5 52 -152.5c0 -8 -0.666992 -20.667 -2 -38
l-333 -2c2.66699 -48.667 18.167 -85 46.5 -109s63.166 -36 104.499 -36c56.667 0 104.334 16 143.001 48l36 -47c-26.667 -22.667 -54 -39.334 -82 -50.001zM341.499 348.501c-21 23 -48.834 34.499 -83.501 34.499c-36 0 -67.167 -11.667 -93.5 -35
s-42.166 -53.666 -47.499 -90.999l257 1c-0.666992 37.333 -11.5 67.5 -32.5 90.5zM297.998 625c11.333 -11.333 17 -26.333 17 -45s-5.66699 -33.667 -17 -45s-26.333 -17 -45 -17s-33.5 5.66699 -44.5 17s-16.5 26.333 -16.5 45s5.5 33.667 16.5 45s25.833 17 44.5 17
s33.667 -5.66699 45 -17z" />
    <glyph glyph-name="Eogonek" unicode="&#x118;" horiz-adv-x="587" 
d="M442.5 -137.5c10.333 -7.66699 25.168 -11.499 44.501 -11.499c16 0 32.333 3 49 9v-61c-26.667 -13.333 -53.334 -20 -80.001 -20c-30.667 0 -57 8.33301 -79 25s-33 39 -33 67c0 27.333 8 51.5 24 72.5s40.667 39.833 74 56.5h-405v69h96l1 451h-96v69h444l51 -154
l-65 -22l-40 107h-214v-181h187v-69h-187l-1 -201h235l40 107l65 -22l-51 -153l1 -1c-26 -14.667 -45.167 -30.5 -57.5 -47.5s-18.5 -35.833 -18.5 -56.5c0 -14.667 5.16699 -25.834 15.5 -33.501z" />
    <glyph glyph-name="eogonek" unicode="&#x119;" horiz-adv-x="491" 
d="M449 197l-332.999 -2c2.66699 -48.667 18.167 -85 46.5 -109s63.166 -36 104.499 -36c56.667 0 104.334 16 143.001 48l36 -47c-18 -15.333 -35.667 -27.666 -53 -36.999c-20 -13.333 -34.5 -27.5 -43.5 -42.5s-13.5 -31.5 -13.5 -49.5
c0 -14.667 5.16699 -25.834 15.5 -33.501s25.166 -11.5 44.499 -11.5c16 0 32.333 3 49 9v-61c-26.667 -13.333 -53.334 -20 -80.001 -20c-30.667 0 -57 8.33301 -79 25s-33 39 -33 67c0 33.333 13 63 39 89c-4.66699 -0.666992 -12 -1 -22 -1
c-71.333 0 -127.666 20.333 -168.999 61s-62 97 -62 169c0 45.333 9 85.333 27 120s43.5 61.5 76.5 80.5s71.167 28.5 114.5 28.5c60 0 107.333 -18.833 142 -56.5s52 -88.5 52 -152.5c0 -8 -0.666992 -20.667 -2 -38zM374.001 258
c-0.666992 37.333 -11.501 67.499 -32.501 90.499s-48.833 34.5 -83.5 34.5c-36 0 -67.167 -11.667 -93.5 -35s-42.166 -53.666 -47.499 -90.999z" />
    <glyph glyph-name="Ecaron" unicode="&#x11a;" horiz-adv-x="587" 
d="M38 589h444l51 -154l-65 -22l-40 107h-214v-181h187v-69h-187l-1 -201h235l40 107l65 -22l-51 -154h-465v69h96l1 451h-96v69zM295 636l-153 99l27 42l126 -63l126 65l23 -44z" />
    <glyph glyph-name="ecaron" unicode="&#x11b;" horiz-adv-x="491" 
d="M364 1c-28 -10.667 -59.334 -15.999 -94.001 -15.999c-71.333 0 -127.666 20.333 -168.999 61s-62 97 -62 169c0 45.333 9 85.333 27 120s43.5 61.5 76.5 80.5s71.167 28.5 114.5 28.5c60 0 107.333 -18.833 142 -56.5s52 -88.5 52 -152.5c0 -8 -0.666992 -20.667 -2 -38
l-333 -2c2.66699 -48.667 18.167 -85 46.5 -109s63.166 -36 104.499 -36c56.667 0 104.334 16 143.001 48l36 -47c-26.667 -22.667 -54 -39.334 -82 -50.001zM341.499 348.501c-21 23 -48.834 34.499 -83.501 34.499c-36 0 -67.167 -11.667 -93.5 -35
s-42.166 -53.666 -47.499 -90.999l257 1c-0.666992 37.333 -11.5 67.5 -32.5 90.5zM255.998 476l-153 99l27 42l126 -63l126 65l23 -44z" />
    <glyph glyph-name="Gcircumflex" unicode="&#x11c;" horiz-adv-x="592" 
d="M434 0c-28 -10 -65.6631 -15.001 -112.996 -15.001c-52.667 0 -100 11.5 -142 34.5s-75 57.667 -99 104s-36 103.5 -36 171.5c0 62.667 11.833 117.334 35.5 164.001s57 82.5 100 107.5s93.167 37.5 150.5 37.5c75.333 0 136.666 -19 183.999 -57l23 -106l-69 -15l-18 77
c-18.667 11.333 -36.167 19.666 -52.5 24.999s-38.5 8 -66.5 8c-36 0 -69.333 -9.5 -100 -28.5s-55.334 -46.667 -74.001 -83s-28 -79.5 -28 -129.5c0 -82 18.167 -142.833 54.5 -182.5s82.166 -59.5 137.499 -59.5c31.333 0 56.666 2.83301 75.999 8.5
s39.333 15.834 60 30.501v129h-128v69h203v-236c-37.333 -26 -70 -44 -98 -54zM335.004 777.999l171 -97l-18 -32l-153 56l-153 -56l-18 32z" />
    <glyph glyph-name="gcircumflex" unicode="&#x11d;" horiz-adv-x="535" 
d="M450 -89c0 -42 -18.832 -74.8301 -56.499 -98.4971s-89.834 -35.5 -156.501 -35.5c-32 0 -71 5.16699 -117 15.5s-78.333 21.166 -97 32.499l28 59c23.333 -12 52.666 -21.833 87.999 -29.5s68 -11.5 98 -11.5c43.333 0 76.833 5 100.5 15s35.5 25.333 35.5 46
c0 40.667 -34.667 61 -104 61h-143v171c-30 12.667 -53 31.167 -69 55.5s-24 53.166 -24 86.499c0 50.667 17.667 91 53 121s83.333 45 144 45c48.667 0 89.334 -9.33301 122.001 -28l142 53l23 -66l-118 -27c20 -24.667 30 -55.667 30 -93
c0 -50.667 -18 -90.834 -54 -120.501s-84.667 -44.5 -146 -44.5c-12 0 -21 0.333008 -27 1v-92h88c106.667 0 160 -38.667 160 -116zM142.501 354.003c-20.333 -17.333 -30.5 -41.666 -30.5 -72.999c0 -29.333 10.833 -53.166 32.5 -71.499s50.5 -27.5 86.5 -27.5
s64.833 9.16699 86.5 27.5s32.5 42.166 32.5 71.499c0 31.333 -10.167 55.666 -30.5 72.999s-49.833 26 -88.5 26s-68.167 -8.66699 -88.5 -26zM234.001 630.003l149 -99l-23 -44l-126 65l-126 -63l-27 42z" />
    <glyph glyph-name="Gbreve" unicode="&#x11e;" horiz-adv-x="592" 
d="M434 0c-28 -10 -65.6631 -15.001 -112.996 -15.001c-52.667 0 -100 11.5 -142 34.5s-75 57.667 -99 104s-36 103.5 -36 171.5c0 62.667 11.833 117.334 35.5 164.001s57 82.5 100 107.5s93.167 37.5 150.5 37.5c75.333 0 136.666 -19 183.999 -57l23 -106l-69 -15l-18 77
c-18.667 11.333 -36.167 19.666 -52.5 24.999s-38.5 8 -66.5 8c-36 0 -69.333 -9.5 -100 -28.5s-55.334 -46.667 -74.001 -83s-28 -79.5 -28 -129.5c0 -82 18.167 -142.833 54.5 -182.5s82.166 -59.5 137.499 -59.5c31.333 0 56.666 2.83301 75.999 8.5
s39.333 15.834 60 30.501v129h-128v69h203v-236c-37.333 -26 -70 -44 -98 -54zM229.504 680.499c-26.333 20.333 -43.5 50.166 -51.5 89.499l65 12c7.33301 -45.333 37.666 -68 90.999 -68c55.333 0 86 22.667 92 68l65 -12c-8 -39.333 -25.333 -69.166 -52 -89.499
s-61.667 -30.5 -105 -30.5s-78.166 10.167 -104.499 30.5z" />
    <glyph glyph-name="gbreve" unicode="&#x11f;" horiz-adv-x="535" 
d="M450 -89c0 -42 -18.832 -74.8301 -56.499 -98.4971s-89.834 -35.5 -156.501 -35.5c-32 0 -71 5.16699 -117 15.5s-78.333 21.166 -97 32.499l28 59c23.333 -12 52.666 -21.833 87.999 -29.5s68 -11.5 98 -11.5c43.333 0 76.833 5 100.5 15s35.5 25.333 35.5 46
c0 40.667 -34.667 61 -104 61h-143v171c-30 12.667 -53 31.167 -69 55.5s-24 53.166 -24 86.499c0 50.667 17.667 91 53 121s83.333 45 144 45c48.667 0 89.334 -9.33301 122.001 -28l142 53l23 -66l-118 -27c20 -24.667 30 -55.667 30 -93
c0 -50.667 -18 -90.834 -54 -120.501s-84.667 -44.5 -146 -44.5c-12 0 -21 0.333008 -27 1v-92h88c106.667 0 160 -38.667 160 -116zM142.501 354.003c-20.333 -17.333 -30.5 -41.666 -30.5 -72.999c0 -29.333 10.833 -53.166 32.5 -71.499s50.5 -27.5 86.5 -27.5
s64.833 9.16699 86.5 27.5s32.5 42.166 32.5 71.499c0 31.333 -10.167 55.666 -30.5 72.999s-49.833 26 -88.5 26s-68.167 -8.66699 -88.5 -26zM126.501 520.503c-26.333 20.333 -43.5 50.166 -51.5 89.499l65 12c7.33301 -45.333 37.666 -68 90.999 -68
c55.333 0 86 22.667 92 68l65 -12c-8 -39.333 -25.333 -69.166 -52 -89.499s-61.667 -30.5 -105 -30.5s-78.166 10.167 -104.499 30.5z" />
    <glyph glyph-name="Gdotaccent" unicode="&#x120;" horiz-adv-x="592" 
d="M434 0c-28 -10 -65.6631 -15.001 -112.996 -15.001c-52.667 0 -100 11.5 -142 34.5s-75 57.667 -99 104s-36 103.5 -36 171.5c0 62.667 11.833 117.334 35.5 164.001s57 82.5 100 107.5s93.167 37.5 150.5 37.5c75.333 0 136.666 -19 183.999 -57l23 -106l-69 -15l-18 77
c-18.667 11.333 -36.167 19.666 -52.5 24.999s-38.5 8 -66.5 8c-36 0 -69.333 -9.5 -100 -28.5s-55.334 -46.667 -74.001 -83s-28 -79.5 -28 -129.5c0 -82 18.167 -142.833 54.5 -182.5s82.166 -59.5 137.499 -59.5c31.333 0 56.666 2.83301 75.999 8.5
s39.333 15.834 60 30.501v129h-128v69h203v-236c-37.333 -26 -70 -44 -98 -54zM379.004 784.999c11.333 -11.333 17 -26.333 17 -45s-5.66699 -33.667 -17 -45s-26.333 -17 -45 -17s-33.5 5.66699 -44.5 17s-16.5 26.333 -16.5 45s5.5 33.667 16.5 45s25.833 17 44.5 17
s33.667 -5.66699 45 -17z" />
    <glyph glyph-name="gdotaccent" unicode="&#x121;" horiz-adv-x="535" 
d="M450 -89c0 -42 -18.832 -74.8301 -56.499 -98.4971s-89.834 -35.5 -156.501 -35.5c-32 0 -71 5.16699 -117 15.5s-78.333 21.166 -97 32.499l28 59c23.333 -12 52.666 -21.833 87.999 -29.5s68 -11.5 98 -11.5c43.333 0 76.833 5 100.5 15s35.5 25.333 35.5 46
c0 40.667 -34.667 61 -104 61h-143v171c-30 12.667 -53 31.167 -69 55.5s-24 53.166 -24 86.499c0 50.667 17.667 91 53 121s83.333 45 144 45c48.667 0 89.334 -9.33301 122.001 -28l142 53l23 -66l-118 -27c20 -24.667 30 -55.667 30 -93
c0 -50.667 -18 -90.834 -54 -120.501s-84.667 -44.5 -146 -44.5c-12 0 -21 0.333008 -27 1v-92h88c106.667 0 160 -38.667 160 -116zM142.501 354.003c-20.333 -17.333 -30.5 -41.666 -30.5 -72.999c0 -29.333 10.833 -53.166 32.5 -71.499s50.5 -27.5 86.5 -27.5
s64.833 9.16699 86.5 27.5s32.5 42.166 32.5 71.499c0 31.333 -10.167 55.666 -30.5 72.999s-49.833 26 -88.5 26s-68.167 -8.66699 -88.5 -26zM276.001 625.003c11.333 -11.333 17 -26.333 17 -45s-5.66699 -33.667 -17 -45s-26.333 -17 -45 -17s-33.5 5.66699 -44.5 17
s-16.5 26.333 -16.5 45s5.5 33.667 16.5 45s25.833 17 44.5 17s33.667 -5.66699 45 -17z" />
    <glyph glyph-name="Gcommaaccent" unicode="&#x122;" horiz-adv-x="592" 
d="M434 0c-28 -10 -65.6631 -15.001 -112.996 -15.001c-52.667 0 -100 11.5 -142 34.5s-75 57.667 -99 104s-36 103.5 -36 171.5c0 62.667 11.833 117.334 35.5 164.001s57 82.5 100 107.5s93.167 37.5 150.5 37.5c75.333 0 136.666 -19 183.999 -57l23 -106l-69 -15l-18 77
c-18.667 11.333 -36.167 19.666 -52.5 24.999s-38.5 8 -66.5 8c-36 0 -69.333 -9.5 -100 -28.5s-55.334 -46.667 -74.001 -83s-28 -79.5 -28 -129.5c0 -82 18.167 -142.833 54.5 -182.5s82.166 -59.5 137.499 -59.5c31.333 0 56.666 2.83301 75.999 8.5
s39.333 15.834 60 30.501v129h-128v69h203v-236c-37.333 -26 -70 -44 -98 -54zM278.004 -271.001c3.33301 4.66699 10.167 15.333 20.5 32s18.833 32.667 25.5 48c-16.667 1.33301 -30.167 7.5 -40.5 18.5s-15.5 24.167 -15.5 39.5c0 18 6.16699 32.833 18.5 44.5
s27.833 17.5 46.5 17.5c18 0 33.833 -6.66699 47.5 -20s20.5 -29.333 20.5 -48c0 -22.667 -6.5 -46 -19.5 -70s-27.667 -45.667 -44 -65s-24.5 -28.333 -24.5 -27z" />
    <glyph glyph-name="gcommaaccent" unicode="&#x123;" horiz-adv-x="535" 
d="M450 -89c0 -42 -18.832 -74.8301 -56.499 -98.4971s-89.834 -35.5 -156.501 -35.5c-32 0 -71 5.16699 -117 15.5s-78.333 21.166 -97 32.499l28 59c23.333 -12 52.666 -21.833 87.999 -29.5s68 -11.5 98 -11.5c43.333 0 76.833 5 100.5 15s35.5 25.333 35.5 46
c0 40.667 -34.667 61 -104 61h-143v171c-30 12.667 -53 31.167 -69 55.5s-24 53.166 -24 86.499c0 50.667 17.667 91 53 121s83.333 45 144 45c48.667 0 89.334 -9.33301 122.001 -28l142 53l23 -66l-118 -27c20 -24.667 30 -55.667 30 -93
c0 -50.667 -18 -90.834 -54 -120.501s-84.667 -44.5 -146 -44.5c-12 0 -21 0.333008 -27 1v-92h88c106.667 0 160 -38.667 160 -116zM142.501 354.003c-20.333 -17.333 -30.5 -41.666 -30.5 -72.999c0 -29.333 10.833 -53.166 32.5 -71.499s50.5 -27.5 86.5 -27.5
s64.833 9.16699 86.5 27.5s32.5 42.166 32.5 71.499c0 31.333 -10.167 55.666 -30.5 72.999s-49.833 26 -88.5 26s-68.167 -8.66699 -88.5 -26zM289.001 692.003c-3.33301 -4.66699 -10.167 -15.334 -20.5 -32.001s-18.833 -32.667 -25.5 -48
c16.667 -1.33301 30.167 -7.5 40.5 -18.5s15.5 -24.167 15.5 -39.5c0 -18 -6.16699 -32.833 -18.5 -44.5s-27.833 -17.5 -46.5 -17.5c-18 0 -33.833 6.83301 -47.5 20.5s-20.5 29.834 -20.5 48.501c0 22.667 6.5 46 19.5 70s27.667 45.5 44 64.5s24.5 27.833 24.5 26.5z" />
    <glyph glyph-name="Hcircumflex" unicode="&#x124;" horiz-adv-x="714" 
d="M38 589h240v-69h-64l-1 -184h288l1 184h-64v69h239v-69h-95l-3 -451h96v-69h-238v69h64v198h-288l-1 -198h64v-69h-239v69h96l1 451h-96v69zM357 778l171 -97l-18 -32l-153 56l-153 -56l-18 32z" />
    <glyph glyph-name="hcircumflex" unicode="&#x125;" horiz-adv-x="600" 
d="M21 62l84 0.000976562v493l-95 33l21 62l152 -52v-196c20.667 13.333 42.334 23.666 65.001 30.999s44.667 11 66 11c61.333 0 106.5 -13.667 135.5 -41s43.5 -70 43.5 -128v-213h84v-62h-207v62h45v197c0 42.667 -8.33301 73.5 -25 92.5s-43.667 28.5 -81 28.5
c-22 0 -44.833 -3.16699 -68.5 -9.5s-42.834 -14.5 -57.501 -24.5v-284h45v-62h-207v62zM112 782.001l171 -97l-18 -32l-153 56l-153 -56l-18 32z" />
    <glyph glyph-name="Hbar" unicode="&#x126;" horiz-adv-x="714" 
d="M677 520h-95v-64h75v-52h-76l-2 -335h96v-69h-238v69h64v198h-288l-1 -198h64v-69h-239v69h96l1 335h-84v52h84v64h-96v69h240v-69h-64v-64h288v64h-64v69h239v-69zM501 336v68h-288v-68h288z" />
    <glyph glyph-name="hbar" unicode="&#x127;" horiz-adv-x="600" 
d="M577 62v-61.999h-207v62h45v182c0 42.667 -8.33301 73.5 -25 92.5s-43.667 28.5 -81 28.5c-22 0 -44.833 -3.16699 -68.5 -9.5s-42.834 -14.5 -57.501 -24.5v-269h45v-62h-207v62h84v403h-90v60h90v30l-95 33l21 62l152 -52v-73h139v-60h-139v-78
c20.667 13.333 42.334 23.666 65.001 30.999s44.667 11 66 11c61.333 0 106.5 -13.667 135.5 -41s43.5 -70 43.5 -128v-198h84z" />
    <glyph glyph-name="Itilde" unicode="&#x128;" horiz-adv-x="345" 
d="M38 589h270v-69h-93l-2 -451h95v-69h-271v69h97v451h-96v69zM32 709c23.333 15.333 42.3301 25.999 56.9971 31.999s32.334 9 53.001 9c14.667 0 27.334 -1.83301 38.001 -5.5s23.334 -9.5 38.001 -17.5c10 -6 18.667 -10.333 26 -13s15 -4 23 -4c10 0 18.667 2 26 6
s20.333 13 39 27l24 -56c-19.333 -16.667 -35.833 -28 -49.5 -34s-28.5 -9 -44.5 -9c-10 0 -19.5 1.83301 -28.5 5.5s-19.5 8.83398 -31.5 15.501c-11.333 6.66699 -21.5 11.667 -30.5 15s-17.833 5 -26.5 5c-14.667 0 -27 -1.5 -37 -4.5s-20.5 -7.16699 -31.5 -12.5
s-18.833 -9 -23.5 -11z" />
    <glyph glyph-name="itilde" unicode="&#x129;" horiz-adv-x="304" 
d="M36 429h162v-367h83v-62h-245v62h83v305h-83v62zM25 549c19.333 15.333 35.167 26.002 47.5 32.002s27.5 9 45.5 9c11.333 0 21.333 -2 30 -6s19 -9.66699 31 -17c8.66699 -6 16.167 -10.333 22.5 -13s12.833 -4 19.5 -4c9.33301 0 17.333 2.16699 24 6.5
s17.667 13.166 33 26.499l21 -56c-15.333 -16.667 -29.166 -28 -41.499 -34s-26.833 -9 -43.5 -9c-8 0 -15.667 1.66699 -23 5s-16 8.66602 -26 15.999c-9.33301 6.66699 -17.833 11.667 -25.5 15s-15.167 5 -22.5 5c-10.667 0 -19.834 -1.5 -27.501 -4.5s-16 -7 -25 -12
s-15.5 -8.83301 -19.5 -11.5z" />
    <glyph glyph-name="Imacron" unicode="&#x12a;" horiz-adv-x="345" 
d="M38 589h270v-69h-93l-2 -451h95v-69h-271v69h97v451h-96v69zM23 749h299v-59h-299v59z" />
    <glyph glyph-name="imacron" unicode="&#x12b;" horiz-adv-x="304" 
d="M36 429h162v-367h83v-62h-245v62h83v305h-83v62zM29 589h239v-59h-239v59z" />
    <glyph glyph-name="Ibreve" unicode="&#x12c;" horiz-adv-x="345" 
d="M38 589h270v-69h-93l-2 -451h95v-69h-271v69h97v451h-96v69zM67.5 680.5c-26.333 20.333 -43.5 50.166 -51.5 89.499l65 12c7.33301 -45.333 37.666 -68 90.999 -68c55.333 0 86 22.667 92 68l65 -12c-8 -39.333 -25.333 -69.166 -52 -89.499s-61.667 -30.5 -105 -30.5
s-78.166 10.167 -104.499 30.5z" />
    <glyph glyph-name="ibreve" unicode="&#x12d;" horiz-adv-x="304" 
d="M36 429h162v-367h83v-62h-245v62h83v305h-83v62zM57 520.5c-23.333 20.333 -38.334 50.166 -45.001 89.499l65 12c2.66699 -22.667 10 -39.667 22 -51s28.333 -17 49 -17c44 0 68 22.667 72 68l65 -12c-6.66699 -39.333 -21.667 -69.166 -45 -89.499s-54 -30.5 -92 -30.5
c-37.333 0 -67.666 10.167 -90.999 30.5z" />
    <glyph glyph-name="Iogonek" unicode="&#x12e;" horiz-adv-x="345" 
d="M342 -140l0.00195312 -60.999c-26.667 -13.333 -53.334 -20 -80.001 -20c-30.667 0 -57 8.33301 -79 25s-33 39 -33 67c0 27.333 8 51.5 24 72.5s40.667 39.833 74 56.5h-211v69h97v451h-96v69h270v-69h-93l-2 -451h95v-68l1 -1c-26 -14.667 -45.167 -30.5 -57.5 -47.5
s-18.5 -35.833 -18.5 -56.5c0 -14.667 5.16699 -25.834 15.5 -33.501s25.166 -11.5 44.499 -11.5c16 0 32.333 3 49 9z" />
    <glyph glyph-name="iogonek" unicode="&#x12f;" horiz-adv-x="304" 
d="M103.5 535c-11 11.333 -16.5 26.333 -16.5 45s5.5 33.667 16.5 45s25.833 17 44.5 17s33.667 -5.66699 45 -17s17 -26.333 17 -45s-5.66699 -33.667 -17 -45s-26.333 -17 -45 -17s-33.5 5.66699 -44.5 17zM156.5 -47.5c-12.333 -17 -18.498 -35.832 -18.498 -56.499
c0 -14.667 5.16699 -25.834 15.5 -33.501s25.166 -11.5 44.499 -11.5c16 0 32.333 3 49 9v-61c-26.667 -13.333 -53.334 -20 -80.001 -20c-30.667 0 -57 8.33301 -79 25s-33 39 -33 67c0 27.333 8 51.5 24 72.5s40.667 39.833 74 56.5h-117v62h83v305h-83v62h162v-367h83
v-62h-67c-26 -14.667 -45.167 -30.5 -57.5 -47.5z" />
    <glyph glyph-name="Idotaccent" unicode="&#x130;" horiz-adv-x="345" 
d="M38 589h270v-69h-93l-2 -451h95v-69h-271v69h97v451h-96v69zM217 785c11.333 -11.333 17 -26.333 17 -45s-5.66699 -33.667 -17 -45s-26.333 -17 -45 -17s-33.5 5.66699 -44.5 17s-16.5 26.333 -16.5 45s5.5 33.667 16.5 45s25.833 17 44.5 17s33.667 -5.66699 45 -17z
" />
    <glyph glyph-name="dotlessi" unicode="&#x131;" horiz-adv-x="304" 
d="M36 429h162v-367h83v-62h-245v62h83v305h-83v62z" />
    <glyph glyph-name="Jcircumflex" unicode="&#x134;" horiz-adv-x="514" 
d="M339 51.5c-36 -43.667 -86.001 -65.499 -150.001 -65.499c-43.333 0 -89.666 9.66699 -138.999 29l-25 126l68 16l21 -89c27.333 -11.333 53 -17 77 -17c38 0 67.667 15.167 89 45.5s32 74.166 32 131.499l1 292h-132v69h306v-69h-94v-284
c0 -79.333 -18 -140.833 -54 -184.5zM347.999 778.001l171 -97l-18 -32l-153 56l-153 -56l-18 32z" />
    <glyph glyph-name="jcircumflex" unicode="&#x135;" horiz-adv-x="254" 
d="M175.5 -127c-6.33301 -26 -22.833 -48.5 -49.5 -67.5s-67.667 -28.5 -123 -28.5c-6 0 -14.667 0.5 -26 1.5s-19 1.83301 -23 2.5l10 61c17.333 -1.33301 31.333 -2 42 -2c33.333 0 57.333 6.16699 72 18.5s23.167 26 25.5 41s3.5 36.167 3.5 63.5v404h-84v62h162v-460
c0 -38 -3.16699 -70 -9.5 -96zM139 630l149 -99l-23 -44l-126 65l-126 -63l-27 42z" />
    <glyph glyph-name="Kcommaaccent" unicode="&#x136;" horiz-adv-x="669" 
d="M37 589h237v-69h-64v-188h93l138 188h-74v69h246v-69h-91l-151 -205l165 -246h100v-69h-269v69h81l-129 194h-109l1 -194h63v-69h-237v69h94v451h-94v69zM266 -271c3.33301 4.66699 10.167 15.333 20.5 32s18.833 32.667 25.5 48c-16.667 1.33301 -30.167 7.5 -40.5 18.5
s-15.5 24.167 -15.5 39.5c0 18 6.16699 32.833 18.5 44.5s27.833 17.5 46.5 17.5c18 0 33.833 -6.66699 47.5 -20s20.5 -29.333 20.5 -48c0 -22.667 -6.5 -46 -19.5 -70s-27.667 -45.667 -44 -65s-24.5 -28.333 -24.5 -27z" />
    <glyph glyph-name="kcommaaccent" unicode="&#x137;" horiz-adv-x="551" 
d="M33 651l152 -52v-350h91l69 118h-52v62h210v-62h-84l-83 -143l97 -162h86v-62h-133l-113 187h-88v-125h45v-62h-207v62h84v494l-95 33zM251 -271c3.33301 4.66699 10.167 15.333 20.5 32s18.833 32.667 25.5 48c-16.667 1.33301 -30.167 7.5 -40.5 18.5
s-15.5 24.167 -15.5 39.5c0 18 6.16699 32.833 18.5 44.5s27.833 17.5 46.5 17.5c18 0 33.833 -6.66699 47.5 -20s20.5 -29.333 20.5 -48c0 -22.667 -6.5 -46 -19.5 -70s-27.667 -45.667 -44 -65s-24.5 -28.333 -24.5 -27z" />
    <glyph glyph-name="kgreenlandic" unicode="&#x138;" horiz-adv-x="570" 
d="M42 429h207v-62h-45v-124h91l78 124h-51v62h210v-62h-84l-93 -149l97 -156h86v-62h-135l-112 181h-87v-119h45v-62h-207v62h84v305h-84v62z" />
    <glyph glyph-name="Lacute" unicode="&#x139;" horiz-adv-x="552" 
d="M37 589h308v-69h-113l-2 -451h189l39 106l66 -22l-53 -153h-434v69h114l1 451h-115v69zM348 768l18 -73l-252 -47l-9 36z" />
    <glyph glyph-name="lacute" unicode="&#x13a;" horiz-adv-x="292" 
d="M23 0v62h84v504l-100 22l17 64l161 -37v-553h84v-62h-246zM285 804l18 -73l-252 -47l-9 36z" />
    <glyph glyph-name="Lcommaaccent" unicode="&#x13b;" horiz-adv-x="552" 
d="M37 589h308v-69h-113l-2 -451h189l39 106l66 -22l-53 -153h-434v69h114l1 451h-115v69zM209 -271c3.33301 4.66699 10.167 15.333 20.5 32s18.833 32.667 25.5 48c-16.667 1.33301 -30.167 7.5 -40.5 18.5s-15.5 24.167 -15.5 39.5c0 18 6.16699 32.833 18.5 44.5
s27.833 17.5 46.5 17.5c18 0 33.833 -6.66699 47.5 -20s20.5 -29.333 20.5 -48c0 -22.667 -6.5 -46 -19.5 -70s-27.667 -45.667 -44 -65s-24.5 -28.333 -24.5 -27z" />
    <glyph glyph-name="lcommaaccent" unicode="&#x13c;" horiz-adv-x="292" 
d="M23 0v62h84v504l-100 22l17 64l161 -37v-553h84v-62h-246zM89 -271c3.33301 4.66699 10.167 15.333 20.5 32s18.833 32.667 25.5 48c-16.667 1.33301 -30.167 7.5 -40.5 18.5s-15.5 24.167 -15.5 39.5c0 18 6.16699 32.833 18.5 44.5s27.833 17.5 46.5 17.5
c18 0 33.833 -6.66699 47.5 -20s20.5 -29.333 20.5 -48c0 -22.667 -6.5 -46 -19.5 -70s-27.667 -45.667 -44 -65s-24.5 -28.333 -24.5 -27z" />
    <glyph glyph-name="Lcaron" unicode="&#x13d;" horiz-adv-x="552" 
d="M37 589h308v-69h-113l-2 -451h189l39 106l66 -22l-53 -153h-434v69h114l1 451h-115v69zM443 602l72 -16l-69 -210l-45 10z" />
    <glyph glyph-name="lcaron" unicode="&#x13e;" horiz-adv-x="292" 
d="M0 741l133 -66l133 66l18 -32l-151 -107l-151 107zM23 0v62h84v434l-100 22l17 64l161 -37v-483h84v-62h-246z" />
    <glyph glyph-name="Ldot" unicode="&#x13f;" horiz-adv-x="600" 
d="M37 589h308v-69h-113l-2 -451h189l39 106l66 -22l-53 -153h-434v69h114l1 451h-115v69zM396 372.5c12 -12.333 18 -26.833 18 -43.5s-6 -31.167 -18 -43.5s-26.333 -18.5 -43 -18.5s-31.167 6.16699 -43.5 18.5s-18.5 26.833 -18.5 43.5c0 17.333 6.16699 32 18.5 44
s26.833 18 43.5 18s31 -6.16699 43 -18.5z" />
    <glyph glyph-name="ldot" unicode="&#x140;" horiz-adv-x="362" 
d="M23 0v62h84v504l-100 22l17 64l161 -37v-553h84v-62h-246zM324 335.5c12 -12.333 18 -26.833 18 -43.5s-6 -31.167 -18 -43.5s-26.333 -18.5 -43 -18.5s-31.167 6.16699 -43.5 18.5s-18.5 26.833 -18.5 43.5c0 17.333 6.16699 32 18.5 44s26.833 18 43.5 18
s31 -6.16699 43 -18.5z" />
    <glyph glyph-name="Lslash" unicode="&#x141;" horiz-adv-x="552" 
d="M458 175l66 -22l-53 -153h-434v69h114v136l-74 -44v72l74 44l1 243h-115v69h308v-69h-113l-1 -196l169 100v-72l-169 -100l-1 -183h189z" />
    <glyph glyph-name="lslash" unicode="&#x142;" horiz-adv-x="292" 
d="M185 62h84v-62h-246v62h84v189l-70 -60v72l70 60v243l-100 22l17 64l161 -37v-225l75 64v-72l-75 -64v-256z" />
    <glyph glyph-name="Nacute" unicode="&#x143;" horiz-adv-x="718" 
d="M38 589h221l255 -467v398h-84v69h261v-69h-97v-520h-98l-284 520l2 -451h84v-69h-261v69h96l-1 451h-94v69zM510 768l18 -73l-252 -47l-9 36z" />
    <glyph glyph-name="nacute" unicode="&#x144;" horiz-adv-x="621" 
d="M42 62h83.999v287l-96 33l21 62l133 -46c46.667 30.667 97.334 46 152.001 46c50.667 0 93 -14.667 127 -44s51 -71 51 -125v-213h84v-62h-207v62h45v197c0 40.667 -10.333 71 -31 91s-48 30 -82 30c-38 0 -77.667 -11.333 -119 -34v-284h45v-62h-207v62zM376.999 692
l59 -44l-148 -164l-37 28z" />
    <glyph glyph-name="Ncommaaccent" unicode="&#x145;" horiz-adv-x="718" 
d="M38 589h221l255 -467v398h-84v69h261v-69h-97v-520h-98l-284 520l2 -451h84v-69h-261v69h96l-1 451h-94v69zM301 -271c3.33301 4.66699 10.167 15.333 20.5 32s18.833 32.667 25.5 48c-16.667 1.33301 -30.167 7.5 -40.5 18.5s-15.5 24.167 -15.5 39.5
c0 18 6.16699 32.833 18.5 44.5s27.833 17.5 46.5 17.5c18 0 33.833 -6.66699 47.5 -20s20.5 -29.333 20.5 -48c0 -22.667 -6.5 -46 -19.5 -70s-27.667 -45.667 -44 -65s-24.5 -28.333 -24.5 -27z" />
    <glyph glyph-name="ncommaaccent" unicode="&#x146;" horiz-adv-x="621" 
d="M42 62h83.999v287l-96 33l21 62l133 -46c46.667 30.667 97.334 46 152.001 46c50.667 0 93 -14.667 127 -44s51 -71 51 -125v-213h84v-62h-207v62h45v197c0 40.667 -10.333 71 -31 91s-48 30 -82 30c-38 0 -77.667 -11.333 -119 -34v-284h45v-62h-207v62zM248.999 -271
c3.33301 4.66699 10.167 15.333 20.5 32s18.833 32.667 25.5 48c-16.667 1.33301 -30.167 7.5 -40.5 18.5s-15.5 24.167 -15.5 39.5c0 18 6.16699 32.833 18.5 44.5s27.833 17.5 46.5 17.5c18 0 33.833 -6.66699 47.5 -20s20.5 -29.333 20.5 -48
c0 -22.667 -6.5 -46 -19.5 -70s-27.667 -45.667 -44 -65s-24.5 -28.333 -24.5 -27z" />
    <glyph glyph-name="Ncaron" unicode="&#x147;" horiz-adv-x="718" 
d="M38 589h221l255 -467v398h-84v69h261v-69h-97v-520h-98l-284 520l2 -451h84v-69h-261v69h96l-1 451h-94v69zM360 636l-153 99l27 42l126 -63l126 65l23 -44z" />
    <glyph glyph-name="ncaron" unicode="&#x148;" horiz-adv-x="621" 
d="M42 62h83.999v287l-96 33l21 62l133 -46c46.667 30.667 97.334 46 152.001 46c50.667 0 93 -14.667 127 -44s51 -71 51 -125v-213h84v-62h-207v62h45v197c0 40.667 -10.333 71 -31 91s-48 30 -82 30c-38 0 -77.667 -11.333 -119 -34v-284h45v-62h-207v62zM307.999 476
l-153 99l27 42l126 -63l126 65l23 -44z" />
    <glyph glyph-name="Eng" unicode="&#x14a;" horiz-adv-x="718" 
d="M305 -195l17.999 62c36 -12.667 66 -19 90 -19c31.333 0 55.333 10.333 72 31s26 53.334 28 98.001l-301 543l2 -451h84v-69h-261v69h96l-1 451h-94v69h221l255 -467v398h-84v69h261v-69h-97v-521c-2.66699 -70.667 -18.667 -125.334 -48 -164.001
s-69.666 -58 -120.999 -58c-36 0 -76 9.33301 -120 28z" />
    <glyph glyph-name="eng" unicode="&#x14b;" horiz-adv-x="564" 
d="M465 397.5c32.667 -31 49 -71.834 49 -122.501v-254c0 -78 -14.5 -138.167 -43.5 -180.5s-70.167 -63.5 -123.5 -63.5c-36 0 -76 9.33301 -120 28l18 62c36 -12.667 66 -19 90 -19c34 0 59.333 12.333 76 37s25 63.334 25 116.001v258c0 38.667 -9.83301 68.5 -29.5 89.5
s-47.5 31.5 -83.5 31.5c-38 0 -77.667 -11.333 -119 -34v-284h45v-62h-207v62h84v287l-96 33l21 62l133 -46c46 30.667 96.667 46 152 46c53.333 0 96.333 -15.5 129 -46.5z" />
    <glyph glyph-name="Omacron" unicode="&#x14c;" horiz-adv-x="636" 
d="M461 565.5c41.333 -25.667 73.502 -61.834 96.502 -108.501s34.5 -100.667 34.5 -162s-11.333 -115.5 -34 -162.5s-54.834 -83.333 -96.501 -109s-89.5 -38.5 -143.5 -38.5s-101.833 12.833 -143.5 38.5s-73.834 62 -96.501 109s-34 101.167 -34 162.5
s11.333 115.333 34 162s54.667 82.834 96 108.501s89 38.5 143 38.5c54.667 0 102.667 -12.833 144 -38.5zM179.002 471c-33.333 -42 -50 -100.667 -50 -176c0 -76 16.667 -135 50 -177s79.666 -63 138.999 -63s105.666 21 138.999 63s50 101 50 177
c0 75.333 -16.667 134 -50 176s-79.666 63 -138.999 63s-105.666 -21 -138.999 -63zM168.002 749h299v-59h-299v59z" />
    <glyph glyph-name="omacron" unicode="&#x14d;" horiz-adv-x="521" 
d="M375.5 416c33.667 -18.667 59.666 -45.1709 77.999 -79.5039s27.5 -75.166 27.5 -122.499c0 -70.667 -20.167 -126.5 -60.5 -167.5s-94.166 -61.5 -161.499 -61.5c-42.667 0 -80.5 9.16699 -113.5 27.5s-58.667 44.833 -77 79.5s-27.5 75.334 -27.5 122.001
s9.16699 87.334 27.5 122.001s44 61.334 77 80.001s70.833 28 113.5 28c44 0 82.833 -9.33301 116.5 -28zM156.499 336.996c-23.667 -28.667 -35.5 -69.667 -35.5 -123s11.833 -94.166 35.5 -122.499s58.167 -42.5 103.5 -42.5c46.667 0 81.834 14.167 105.501 42.5
s35.5 69.166 35.5 122.499s-11.833 94.333 -35.5 123s-58.834 43 -105.501 43c-45.333 0 -79.833 -14.333 -103.5 -43zM110.999 588.996h299v-59h-299v59z" />
    <glyph glyph-name="Obreve" unicode="&#x14e;" horiz-adv-x="636" 
d="M461 565.5c41.333 -25.667 73.502 -61.834 96.502 -108.501s34.5 -100.667 34.5 -162s-11.333 -115.5 -34 -162.5s-54.834 -83.333 -96.501 -109s-89.5 -38.5 -143.5 -38.5s-101.833 12.833 -143.5 38.5s-73.834 62 -96.501 109s-34 101.167 -34 162.5
s11.333 115.333 34 162s54.667 82.834 96 108.501s89 38.5 143 38.5c54.667 0 102.667 -12.833 144 -38.5zM179.002 471c-33.333 -42 -50 -100.667 -50 -176c0 -76 16.667 -135 50 -177s79.666 -63 138.999 -63s105.666 21 138.999 63s50 101 50 177
c0 75.333 -16.667 134 -50 176s-79.666 63 -138.999 63s-105.666 -21 -138.999 -63zM212.502 680.5c-26.333 20.333 -43.5 50.166 -51.5 89.499l65 12c7.33301 -45.333 37.666 -68 90.999 -68c55.333 0 86 22.667 92 68l65 -12c-8 -39.333 -25.333 -69.166 -52 -89.499
s-61.667 -30.5 -105 -30.5s-78.166 10.167 -104.499 30.5z" />
    <glyph glyph-name="obreve" unicode="&#x14f;" horiz-adv-x="521" 
d="M375.5 416c33.667 -18.667 59.666 -45.1709 77.999 -79.5039s27.5 -75.166 27.5 -122.499c0 -70.667 -20.167 -126.5 -60.5 -167.5s-94.166 -61.5 -161.499 -61.5c-42.667 0 -80.5 9.16699 -113.5 27.5s-58.667 44.833 -77 79.5s-27.5 75.334 -27.5 122.001
s9.16699 87.334 27.5 122.001s44 61.334 77 80.001s70.833 28 113.5 28c44 0 82.833 -9.33301 116.5 -28zM156.499 336.996c-23.667 -28.667 -35.5 -69.667 -35.5 -123s11.833 -94.166 35.5 -122.499s58.167 -42.5 103.5 -42.5c46.667 0 81.834 14.167 105.501 42.5
s35.5 69.166 35.5 122.499s-11.833 94.333 -35.5 123s-58.834 43 -105.501 43c-45.333 0 -79.833 -14.333 -103.5 -43zM155.499 520.496c-26.333 20.333 -43.5 50.166 -51.5 89.499l65 12c7.33301 -45.333 37.666 -68 90.999 -68c55.333 0 86 22.667 92 68l65 -12
c-8 -39.333 -25.333 -69.166 -52 -89.499s-61.667 -30.5 -105 -30.5s-78.166 10.167 -104.499 30.5z" />
    <glyph glyph-name="Ohungarumlaut" unicode="&#x150;" horiz-adv-x="636" 
d="M461 565.5c41.333 -25.667 73.502 -61.834 96.502 -108.501s34.5 -100.667 34.5 -162s-11.333 -115.5 -34 -162.5s-54.834 -83.333 -96.501 -109s-89.5 -38.5 -143.5 -38.5s-101.833 12.833 -143.5 38.5s-73.834 62 -96.501 109s-34 101.167 -34 162.5
s11.333 115.333 34 162s54.667 82.834 96 108.501s89 38.5 143 38.5c54.667 0 102.667 -12.833 144 -38.5zM179.002 471c-33.333 -42 -50 -100.667 -50 -176c0 -76 16.667 -135 50 -177s79.666 -63 138.999 -63s105.666 21 138.999 63s50 101 50 177
c0 75.333 -16.667 134 -50 176s-79.666 63 -138.999 63s-105.666 -21 -138.999 -63zM402.002 807l40 -56l-166 -102l-20 28zM550.002 763l24 -64l-190 -49l-13 32z" />
    <glyph glyph-name="ohungarumlaut" unicode="&#x151;" horiz-adv-x="521" 
d="M375.5 416c33.667 -18.667 59.666 -45.1709 77.999 -79.5039s27.5 -75.166 27.5 -122.499c0 -70.667 -20.167 -126.5 -60.5 -167.5s-94.166 -61.5 -161.499 -61.5c-42.667 0 -80.5 9.16699 -113.5 27.5s-58.667 44.833 -77 79.5s-27.5 75.334 -27.5 122.001
s9.16699 87.334 27.5 122.001s44 61.334 77 80.001s70.833 28 113.5 28c44 0 82.833 -9.33301 116.5 -28zM156.499 336.996c-23.667 -28.667 -35.5 -69.667 -35.5 -123s11.833 -94.166 35.5 -122.499s58.167 -42.5 103.5 -42.5c46.667 0 81.834 14.167 105.501 42.5
s35.5 69.166 35.5 122.499s-11.833 94.333 -35.5 123s-58.834 43 -105.501 43c-45.333 0 -79.833 -14.333 -103.5 -43zM281.999 691.996l59 -44l-148 -164l-37 28zM448.999 671.996l49 -54l-175 -134l-31 34z" />
    <glyph glyph-name="OE" unicode="&#x152;" horiz-adv-x="870" 
d="M188 35.5c-44.667 23.667 -79.833 57.668 -105.5 102.001s-38.5 96.833 -38.5 157.5c0 109.333 26 185.666 78 228.999s126.667 65 224 65h418l53 -154l-66 -22l-40 107h-212v-181h185v-69h-186v-201h233l40 107l66 -22l-53 -154h-445c-56 -0 -106.333 11.833 -151 35.5z
M225.501 504.501c-30.333 -11 -53.999 -32.835 -70.999 -65.502s-25.5 -80.667 -25.5 -144c0 -75.333 19.167 -132.166 57.5 -170.499s95.166 -57.166 170.499 -56.499l61 1v452h-72c-50 0 -90.167 -5.5 -120.5 -16.5z" />
    <glyph glyph-name="oe" unicode="&#x153;" horiz-adv-x="753" 
d="M684.5 31c-17 -11.333 -39.5 -21.8311 -67.5 -31.498s-60 -14.5 -96 -14.5c-53.333 0 -98.666 14 -135.999 42c-40.667 -28 -83 -42 -127 -42c-42.667 0 -80.5 9.83301 -113.5 29.5s-58.667 47.5 -77 83.5s-27.5 77.667 -27.5 125c0 42 9.66699 79.833 29 113.5
s45.5 60 78.5 79s69.833 28.5 110.5 28.5c48.667 0 95 -11.333 139 -34c35.333 22.667 76.666 34 123.999 34c55.333 0 100.5 -15.333 135.5 -46s52.5 -82 52.5 -154c0 -14.667 -1 -30.667 -3 -48l-322 -2c2.66699 -46.667 15.667 -82.5 39 -107.5s56.333 -37.5 99 -37.5
c27.333 0 52.333 3.66699 75 11s41.167 15.166 55.5 23.499s21.5 13.166 21.5 14.499l36 -47c0 -2 -8.5 -8.66699 -25.5 -20zM158 336.002c-25.333 -29.333 -38 -66.666 -38 -111.999c0 -54 12 -96.667 36 -128s58.333 -47 103 -47c29.333 0 57.333 7.33301 84 22
c-26.667 38 -40 85.667 -40 143c0 61.333 15 111.666 45 150.999c-27.333 10 -57 15 -89 15c-42 0 -75.667 -14.667 -101 -44zM607.5 348.502c-19.667 21 -48.166 31.5 -85.499 31.5c-38.667 0 -69.667 -10.833 -93 -32.5s-38 -52.167 -44 -91.5l253 1
c-0.666992 40 -10.834 70.5 -30.501 91.5z" />
    <glyph glyph-name="Racute" unicode="&#x154;" horiz-adv-x="614" 
d="M587 69v-69h-149l-126 230h-10h-91v-161h63v-69h-237v69h94v451h-94v69h265c78 0 133.667 -14.5 167 -43.5s50 -73.833 50 -134.5c0 -46.667 -9.5 -84.167 -28.5 -112.5s-50.167 -47.833 -93.5 -58.5l99 -171h91zM302 301c30.667 0 55.333 2.83203 74 8.49902
s33 16.334 43 32.001s15 38.5 15 68.5c0 43.333 -10.5 72.5 -31.5 87.5s-54.5 22.5 -100.5 22.5h-90v-219h90zM428.999 767.999l18 -73l-252 -47l-9 36z" />
    <glyph glyph-name="racute" unicode="&#x155;" horiz-adv-x="418" 
d="M261.5 431.5c29 8.33301 57.834 12.5 86.501 12.5c24 0 36.667 -0.666992 38 -2l17 -105l-65 -14l-10 56c-20.667 0 -41.834 -3 -63.501 -9s-41.5 -14.333 -59.5 -25v-283h98v-62h-260v62h84v286l-96 33l21 62l133 -46c22 14.667 47.5 26.167 76.5 34.5zM281.001 692
l59 -44l-148 -164l-37 28z" />
    <glyph glyph-name="Rcommaaccent" unicode="&#x156;" horiz-adv-x="614" 
d="M587 69v-69h-149l-126 230h-10h-91v-161h63v-69h-237v69h94v451h-94v69h265c78 0 133.667 -14.5 167 -43.5s50 -73.833 50 -134.5c0 -46.667 -9.5 -84.167 -28.5 -112.5s-50.167 -47.833 -93.5 -58.5l99 -171h91zM302 301c30.667 0 55.333 2.83203 74 8.49902
s33 16.334 43 32.001s15 38.5 15 68.5c0 43.333 -10.5 72.5 -31.5 87.5s-54.5 22.5 -100.5 22.5h-90v-219h90zM249.999 -271.001c3.33301 4.66699 10.167 15.333 20.5 32s18.833 32.667 25.5 48c-16.667 1.33301 -30.167 7.5 -40.5 18.5s-15.5 24.167 -15.5 39.5
c0 18 6.16699 32.833 18.5 44.5s27.833 17.5 46.5 17.5c18 0 33.833 -6.66699 47.5 -20s20.5 -29.333 20.5 -48c0 -22.667 -6.5 -46 -19.5 -70s-27.667 -45.667 -44 -65s-24.5 -28.333 -24.5 -27z" />
    <glyph glyph-name="rcommaaccent" unicode="&#x157;" horiz-adv-x="418" 
d="M261.5 431.5c29 8.33301 57.834 12.5 86.501 12.5c24 0 36.667 -0.666992 38 -2l17 -105l-65 -14l-10 56c-20.667 0 -41.834 -3 -63.501 -9s-41.5 -14.333 -59.5 -25v-283h98v-62h-260v62h84v286l-96 33l21 62l133 -46c22 14.667 47.5 26.167 76.5 34.5zM115.001 -271
c3.33301 4.66699 10.167 15.333 20.5 32s18.833 32.667 25.5 48c-16.667 1.33301 -30.167 7.5 -40.5 18.5s-15.5 24.167 -15.5 39.5c0 18 6.16699 32.833 18.5 44.5s27.833 17.5 46.5 17.5c18 0 33.833 -6.66699 47.5 -20s20.5 -29.333 20.5 -48
c0 -22.667 -6.5 -46 -19.5 -70s-27.667 -45.667 -44 -65s-24.5 -28.333 -24.5 -27z" />
    <glyph glyph-name="Rcaron" unicode="&#x158;" horiz-adv-x="614" 
d="M587 69v-69h-149l-126 230h-10h-91v-161h63v-69h-237v69h94v451h-94v69h265c78 0 133.667 -14.5 167 -43.5s50 -73.833 50 -134.5c0 -46.667 -9.5 -84.167 -28.5 -112.5s-50.167 -47.833 -93.5 -58.5l99 -171h91zM302 301c30.667 0 55.333 2.83203 74 8.49902
s33 16.334 43 32.001s15 38.5 15 68.5c0 43.333 -10.5 72.5 -31.5 87.5s-54.5 22.5 -100.5 22.5h-90v-219h90zM278.999 635.999l-153 99l27 42l126 -63l126 65l23 -44z" />
    <glyph glyph-name="rcaron" unicode="&#x159;" horiz-adv-x="418" 
d="M261.5 431.5c29 8.33301 57.834 12.5 86.501 12.5c24 0 36.667 -0.666992 38 -2l17 -105l-65 -14l-10 56c-20.667 0 -41.834 -3 -63.501 -9s-41.5 -14.333 -59.5 -25v-283h98v-62h-260v62h84v286l-96 33l21 62l133 -46c22 14.667 47.5 26.167 76.5 34.5zM212.001 476
l-153 99l27 42l126 -63l126 65l23 -44z" />
    <glyph glyph-name="Sacute" unicode="&#x15a;" horiz-adv-x="536" 
d="M62 24l-18.999 122.005l66 6l14 -75c24 -8 47 -14 69 -18s48.667 -6 80 -6c40.667 0 74 8.66699 100 26s39 44.666 39 81.999c0 28.667 -7.66699 52.167 -23 70.5s-41.333 30.166 -78 35.499l-76 11c-56.667 8.66699 -100.334 27.5 -131.001 56.5s-46 65.833 -46 110.5
c0 47.333 17.833 85.666 53.5 114.999s88.167 44 157.5 44c38.667 0 71.667 -2.33301 99 -7s57.666 -13.334 90.999 -26.001l17 -124l-66 -7l-13 80c-30.667 11.333 -73 17 -127 17c-43.333 0 -77.333 -7.83301 -102 -23.5s-37 -37.834 -37 -66.501
c0 -54 34.667 -85.667 104 -95l91 -14c55.333 -8 96.833 -26.5 124.5 -55.5s41.5 -65.833 41.5 -110.5c0 -40 -9.66699 -74 -29 -102s-45.666 -49.167 -78.999 -63.5s-70 -21.5 -110 -21.5c-74 0 -144.333 13 -211 39zM420.001 768.005l18 -73l-252 -47l-9 36z" />
    <glyph glyph-name="sacute" unicode="&#x15b;" horiz-adv-x="450" 
d="M271 380.5c-13.333 3 -29.999 4.50293 -49.999 4.50293c-26.667 0 -49.834 -6 -69.501 -18s-29.5 -27.667 -29.5 -47c0 -38.667 32.333 -61.334 97 -68.001l41 -4c52.667 -5.33301 90.5 -18.5 113.5 -39.5s34.5 -49.833 34.5 -86.5c0 -40.667 -16.667 -73.667 -50 -99
s-76.666 -38 -129.999 -38c-32 0 -63.5 4.16699 -94.5 12.5s-58.167 19.166 -81.5 32.499l-17 101l69 17l15 -70c31.333 -18 66.666 -27 105.999 -27c31.333 0 57.666 6.16699 78.999 18.5s32 29.166 32 50.499c0 19.333 -6.5 33.333 -19.5 42s-36.5 15 -70.5 19l-44 5
c-48.667 5.33301 -86.167 19.5 -112.5 42.5s-39.5 51.833 -39.5 86.5c0 41.333 17 73.333 51 96s74.333 34 121 34c30.667 0 58.334 -2.83301 83.001 -8.5s48.667 -14.5 72 -26.5l18 -95l-63 -14l-17 65c-16 6.66699 -30.667 11.5 -44 14.5zM294.001 692.003l59 -44
l-148 -164l-37 28z" />
    <glyph glyph-name="Scircumflex" unicode="&#x15c;" horiz-adv-x="536" 
d="M62 24l-18.999 122.005l66 6l14 -75c24 -8 47 -14 69 -18s48.667 -6 80 -6c40.667 0 74 8.66699 100 26s39 44.666 39 81.999c0 28.667 -7.66699 52.167 -23 70.5s-41.333 30.166 -78 35.499l-76 11c-56.667 8.66699 -100.334 27.5 -131.001 56.5s-46 65.833 -46 110.5
c0 47.333 17.833 85.666 53.5 114.999s88.167 44 157.5 44c38.667 0 71.667 -2.33301 99 -7s57.666 -13.334 90.999 -26.001l17 -124l-66 -7l-13 80c-30.667 11.333 -73 17 -127 17c-43.333 0 -77.333 -7.83301 -102 -23.5s-37 -37.834 -37 -66.501
c0 -54 34.667 -85.667 104 -95l91 -14c55.333 -8 96.833 -26.5 124.5 -55.5s41.5 -65.833 41.5 -110.5c0 -40 -9.66699 -74 -29 -102s-45.666 -49.167 -78.999 -63.5s-70 -21.5 -110 -21.5c-74 0 -144.333 13 -211 39zM268.001 778.005l171 -97l-18 -32l-153 56l-153 -56
l-18 32z" />
    <glyph glyph-name="scircumflex" unicode="&#x15d;" horiz-adv-x="450" 
d="M271 380.5c-13.333 3 -29.999 4.50293 -49.999 4.50293c-26.667 0 -49.834 -6 -69.501 -18s-29.5 -27.667 -29.5 -47c0 -38.667 32.333 -61.334 97 -68.001l41 -4c52.667 -5.33301 90.5 -18.5 113.5 -39.5s34.5 -49.833 34.5 -86.5c0 -40.667 -16.667 -73.667 -50 -99
s-76.666 -38 -129.999 -38c-32 0 -63.5 4.16699 -94.5 12.5s-58.167 19.166 -81.5 32.499l-17 101l69 17l15 -70c31.333 -18 66.666 -27 105.999 -27c31.333 0 57.666 6.16699 78.999 18.5s32 29.166 32 50.499c0 19.333 -6.5 33.333 -19.5 42s-36.5 15 -70.5 19l-44 5
c-48.667 5.33301 -86.167 19.5 -112.5 42.5s-39.5 51.833 -39.5 86.5c0 41.333 17 73.333 51 96s74.333 34 121 34c30.667 0 58.334 -2.83301 83.001 -8.5s48.667 -14.5 72 -26.5l18 -95l-63 -14l-17 65c-16 6.66699 -30.667 11.5 -44 14.5zM225.001 630.003l149 -99
l-23 -44l-126 65l-126 -63l-27 42z" />
    <glyph glyph-name="Scedilla" unicode="&#x15e;" horiz-adv-x="536" 
d="M443 46.5c-32 -31.667 -73.666 -51.1621 -124.999 -58.4951v-51c72 0 108 -26 108 -78c0 -25.333 -9.66699 -45.333 -29 -60s-45.666 -22 -78.999 -22c-38.667 0 -66 6.16699 -82 18.5s-24.333 18.5 -25 18.5l22 37c11.333 -7.33301 24.833 -13.5 40.5 -18.5
s29.834 -7.5 42.501 -7.5c36.667 0 55 11.333 55 34c0 12.667 -5 21.5 -15 26.5s-27 7.5 -51 7.5h-37v92c-74.667 0.666992 -143.334 13.667 -206.001 39l-19 122l66 6l14 -75c24 -8 47 -14 69 -18s48.667 -6 80 -6c40.667 0 74 8.66699 100 26s39 44.666 39 81.999
c0 28.667 -7.66699 52.167 -23 70.5s-41.333 30.166 -78 35.499l-76 11c-56.667 8.66699 -100.334 27.5 -131.001 56.5s-46 65.833 -46 110.5c0 47.333 17.833 85.666 53.5 114.999s88.167 44 157.5 44c38.667 0 71.667 -2.33301 99 -7s57.666 -13.334 90.999 -26.001
l17 -124l-66 -7l-13 80c-30.667 11.333 -73 17 -127 17c-43.333 0 -77.333 -7.83301 -102 -23.5s-37 -37.834 -37 -66.501c0 -54 34.667 -85.667 104 -95l91 -14c55.333 -8 96.833 -26.5 124.5 -55.5s41.5 -65.833 41.5 -110.5c0 -52 -16 -93.833 -48 -125.5z" />
    <glyph glyph-name="scedilla" unicode="&#x15f;" horiz-adv-x="450" 
d="M381 -141c0 -25.333 -9.66797 -45.3301 -29.001 -59.9971s-45.666 -22 -78.999 -22c-38.667 0 -66 6.16699 -82 18.5s-24.333 18.5 -25 18.5l22 37c11.333 -7.33301 24.833 -13.5 40.5 -18.5s29.834 -7.5 42.501 -7.5c36.667 0 55 11.333 55 34
c0 12.667 -5 21.5 -15 26.5s-27 7.5 -51 7.5h-37v92c-30.667 0.666992 -61 5 -91 13s-56.667 18.667 -80 32l-17 101l69 17l15 -70c31.333 -18 66.666 -27 105.999 -27c31.333 0 57.666 6.16699 78.999 18.5s32 29.166 32 50.499c0 19.333 -6.5 33.333 -19.5 42
s-36.5 15 -70.5 19l-44 5c-48.667 5.33301 -86.167 19.5 -112.5 42.5s-39.5 51.833 -39.5 86.5c0 41.333 17 73.333 51 96s74.333 34 121 34c30.667 0 58.334 -2.83301 83.001 -8.5s48.667 -14.5 72 -26.5l18 -95l-63 -14l-17 65c-16 6.66699 -30.667 11.5 -44 14.5
s-30 4.5 -50 4.5c-26.667 0 -49.834 -6 -69.501 -18s-29.5 -27.667 -29.5 -47c0 -38.667 32.333 -61.334 97 -68.001l41 -4c52.667 -5.33301 90.5 -18.5 113.5 -39.5s34.5 -49.833 34.5 -86.5c0 -34.667 -12.167 -63.834 -36.5 -87.501s-57.166 -39.167 -98.499 -46.5v-51
c72 0 108 -26 108 -78z" />
    <glyph glyph-name="Scaron" unicode="&#x160;" horiz-adv-x="536" 
d="M62 24l-18.999 122.005l66 6l14 -75c24 -8 47 -14 69 -18s48.667 -6 80 -6c40.667 0 74 8.66699 100 26s39 44.666 39 81.999c0 28.667 -7.66699 52.167 -23 70.5s-41.333 30.166 -78 35.499l-76 11c-56.667 8.66699 -100.334 27.5 -131.001 56.5s-46 65.833 -46 110.5
c0 47.333 17.833 85.666 53.5 114.999s88.167 44 157.5 44c38.667 0 71.667 -2.33301 99 -7s57.666 -13.334 90.999 -26.001l17 -124l-66 -7l-13 80c-30.667 11.333 -73 17 -127 17c-43.333 0 -77.333 -7.83301 -102 -23.5s-37 -37.834 -37 -66.501
c0 -54 34.667 -85.667 104 -95l91 -14c55.333 -8 96.833 -26.5 124.5 -55.5s41.5 -65.833 41.5 -110.5c0 -40 -9.66699 -74 -29 -102s-45.666 -49.167 -78.999 -63.5s-70 -21.5 -110 -21.5c-74 0 -144.333 13 -211 39zM270.001 636.005l-153 99l27 42l126 -63l126 65l23 -44
z" />
    <glyph glyph-name="scaron" unicode="&#x161;" horiz-adv-x="450" 
d="M271 380.5c-13.333 3 -29.999 4.50293 -49.999 4.50293c-26.667 0 -49.834 -6 -69.501 -18s-29.5 -27.667 -29.5 -47c0 -38.667 32.333 -61.334 97 -68.001l41 -4c52.667 -5.33301 90.5 -18.5 113.5 -39.5s34.5 -49.833 34.5 -86.5c0 -40.667 -16.667 -73.667 -50 -99
s-76.666 -38 -129.999 -38c-32 0 -63.5 4.16699 -94.5 12.5s-58.167 19.166 -81.5 32.499l-17 101l69 17l15 -70c31.333 -18 66.666 -27 105.999 -27c31.333 0 57.666 6.16699 78.999 18.5s32 29.166 32 50.499c0 19.333 -6.5 33.333 -19.5 42s-36.5 15 -70.5 19l-44 5
c-48.667 5.33301 -86.167 19.5 -112.5 42.5s-39.5 51.833 -39.5 86.5c0 41.333 17 73.333 51 96s74.333 34 121 34c30.667 0 58.334 -2.83301 83.001 -8.5s48.667 -14.5 72 -26.5l18 -95l-63 -14l-17 65c-16 6.66699 -30.667 11.5 -44 14.5zM225.001 476.003l-153 99l27 42
l126 -63l126 65l23 -44z" />
    <glyph glyph-name="uni0162" unicode="&#x162;" horiz-adv-x="587" 
d="M36 589h515v-164h-76v95h-141l-2 -451h95v-69h-270v69h95l1 451h-141v-95h-76v164zM262 -204.5c-16 12.333 -24.335 18.5 -25.002 18.5l22 37c11.333 -7.33301 24.833 -13.5 40.5 -18.5s29.834 -7.5 42.501 -7.5c36.667 0 55 11.333 55 34c0 12.667 -5 21.5 -15 26.5
s-27 7.5 -51 7.5h-37v107h50v-63c72 0 108 -26 108 -78c0 -25.333 -9.66699 -45.333 -29 -60s-45.666 -22 -78.999 -22c-38.667 0 -66 6.16699 -82 18.5z" />
    <glyph glyph-name="uni0163" unicode="&#x163;" horiz-adv-x="363" 
d="M333 -141c0 -25.333 -9.66895 -45.333 -29.002 -60s-45.666 -22 -78.999 -22c-38.667 0 -66 6.16699 -82 18.5s-24.333 18.5 -25 18.5l22 37c11.333 -7.33301 24.833 -13.5 40.5 -18.5s29.834 -7.5 42.501 -7.5c36.667 0 55 11.333 55 34c0 12.667 -5 21.5 -15 26.5
s-27 7.5 -51 7.5h-37v107h1c-46.667 23.333 -70 73 -70 149v218h-83v62h83v97l76 18v-115h125v-62h-125v-174c0 -50 4.83301 -87.333 14.5 -112s28.167 -37 55.5 -37c20.667 0 44 6 70 18l15 -56c-35.333 -14 -65.333 -21 -90 -21c-10 0 -17.333 0.333008 -22 1v-49
c72 0 108 -26 108 -78z" />
    <glyph glyph-name="Tcaron" unicode="&#x164;" horiz-adv-x="587" 
d="M36 589h515v-164h-76v95h-141l-2 -451h95v-69h-270v69h95l1 451h-141v-95h-76v164zM296 636l-153 99l27 42l126 -63l126 65l23 -44z" />
    <glyph glyph-name="tcaron" unicode="&#x165;" horiz-adv-x="363" 
d="M145.5 22.5c-26.333 25 -39.501 67.167 -39.501 126.5v218h-83v62h83v97l76 18v-115h125v-62h-125v-174c0 -50 4.83301 -87.333 14.5 -112s28.167 -37 55.5 -37c20.667 0 44 6 70 18l15 -56c-35.333 -14 -65.333 -21 -90 -21c-41.333 0 -75.166 12.5 -101.499 37.5z
M154.999 547l-153 99l27 42l126 -63l126 65l23 -44z" />
    <glyph glyph-name="Tbar" unicode="&#x166;" horiz-adv-x="587" 
d="M36 589h515v-164h-76v95h-141l-1 -191h114v-62h-114l-1 -198h95v-69h-270v69h95v198h-112v62h113v191h-141v-95h-76v164z" />
    <glyph glyph-name="tbar" unicode="&#x167;" horiz-adv-x="363" 
d="M337 6c-35.333 -14 -65.334 -21 -90.001 -21c-41.333 0 -75.166 12.5 -101.499 37.5s-39.5 67.167 -39.5 126.5v108h-85v62h85v48h-83v62h83v97l76 18v-115h125v-62h-125v-48h146v-62h-146v-64c0 -50 4.83301 -87.333 14.5 -112s28.167 -37 55.5 -37c20.667 0 44 6 70 18
z" />
    <glyph glyph-name="Utilde" unicode="&#x168;" horiz-adv-x="678" 
d="M500 46c-36.667 -40.667 -92 -61.001 -166 -61.001c-71.333 0 -124.333 20.333 -159 61s-52 97 -52 169v305h-96v69h240v-69h-64v-332c0 -45.333 11.667 -79.166 35 -101.499s55.333 -33.5 96 -33.5c44 0 78.5 12.167 103.5 36.5s37.5 60.5 37.5 108.5v322h-64v69h240
v-69h-96v-305c0 -72 -18.333 -128.333 -55 -169zM198 708.999c23.333 15.333 42.3301 25.999 56.9971 31.999s32.334 9 53.001 9c14.667 0 27.334 -1.83301 38.001 -5.5s23.334 -9.5 38.001 -17.5c10 -6 18.667 -10.333 26 -13s15 -4 23 -4c10 0 18.667 2 26 6
s20.333 13 39 27l24 -56c-19.333 -16.667 -35.833 -28 -49.5 -34s-28.5 -9 -44.5 -9c-10 0 -19.5 1.83301 -28.5 5.5s-19.5 8.83398 -31.5 15.501c-11.333 6.66699 -21.5 11.667 -30.5 15s-17.833 5 -26.5 5c-14.667 0 -27 -1.5 -37 -4.5s-20.5 -7.16699 -31.5 -12.5
s-18.833 -9 -23.5 -11z" />
    <glyph glyph-name="utilde" unicode="&#x169;" horiz-adv-x="609" 
d="M361 -3c-26.667 -8 -51.667 -12 -75 -12c-61.333 0 -106.5 13.667 -135.5 41s-43.5 70 -43.5 128v213h-84v62h162v-259c0 -42.667 8.33301 -73.5 25 -92.5s43.667 -28.5 81 -28.5c21.333 0 44 3.16699 68 9.5s43.333 14.5 58 24.5v284h-84v62h162v-351l94 -32l-20 -64
l-136 47c-21.333 -13.333 -45.333 -24 -72 -32zM140 549c23.333 15.333 42.3301 25.999 56.9971 31.999s32.334 9 53.001 9c14.667 0 27.334 -1.83301 38.001 -5.5s23.334 -9.5 38.001 -17.5c10 -6 18.667 -10.333 26 -13s15 -4 23 -4c10 0 18.667 2 26 6s20.333 13 39 27
l24 -56c-19.333 -16.667 -35.833 -28 -49.5 -34s-28.5 -9 -44.5 -9c-10 0 -19.5 1.83301 -28.5 5.5s-19.5 8.83398 -31.5 15.501c-11.333 6.66699 -21.5 11.667 -30.5 15s-17.833 5 -26.5 5c-14.667 0 -27 -1.5 -37 -4.5s-20.5 -7.16699 -31.5 -12.5s-18.833 -9 -23.5 -11z
" />
    <glyph glyph-name="Umacron" unicode="&#x16a;" horiz-adv-x="678" 
d="M500 46c-36.667 -40.667 -92 -61.001 -166 -61.001c-71.333 0 -124.333 20.333 -159 61s-52 97 -52 169v305h-96v69h240v-69h-64v-332c0 -45.333 11.667 -79.166 35 -101.499s55.333 -33.5 96 -33.5c44 0 78.5 12.167 103.5 36.5s37.5 60.5 37.5 108.5v322h-64v69h240
v-69h-96v-305c0 -72 -18.333 -128.333 -55 -169zM189 748.999h299v-59h-299v59z" />
    <glyph glyph-name="umacron" unicode="&#x16b;" horiz-adv-x="609" 
d="M361 -3c-26.667 -8 -51.667 -12 -75 -12c-61.333 0 -106.5 13.667 -135.5 41s-43.5 70 -43.5 128v213h-84v62h162v-259c0 -42.667 8.33301 -73.5 25 -92.5s43.667 -28.5 81 -28.5c21.333 0 44 3.16699 68 9.5s43.333 14.5 58 24.5v284h-84v62h162v-351l94 -32l-20 -64
l-136 47c-21.333 -13.333 -45.333 -24 -72 -32zM131 589h299v-59h-299v59z" />
    <glyph glyph-name="Ubreve" unicode="&#x16c;" horiz-adv-x="678" 
d="M500 46c-36.667 -40.667 -92 -61.001 -166 -61.001c-71.333 0 -124.333 20.333 -159 61s-52 97 -52 169v305h-96v69h240v-69h-64v-332c0 -45.333 11.667 -79.166 35 -101.499s55.333 -33.5 96 -33.5c44 0 78.5 12.167 103.5 36.5s37.5 60.5 37.5 108.5v322h-64v69h240
v-69h-96v-305c0 -72 -18.333 -128.333 -55 -169zM233.5 680.499c-26.333 20.333 -43.5 50.166 -51.5 89.499l65 12c7.33301 -45.333 37.666 -68 90.999 -68c55.333 0 86 22.667 92 68l65 -12c-8 -39.333 -25.333 -69.166 -52 -89.499s-61.667 -30.5 -105 -30.5
s-78.166 10.167 -104.499 30.5z" />
    <glyph glyph-name="ubreve" unicode="&#x16d;" horiz-adv-x="609" 
d="M361 -3c-26.667 -8 -51.667 -12 -75 -12c-61.333 0 -106.5 13.667 -135.5 41s-43.5 70 -43.5 128v213h-84v62h162v-259c0 -42.667 8.33301 -73.5 25 -92.5s43.667 -28.5 81 -28.5c21.333 0 44 3.16699 68 9.5s43.333 14.5 58 24.5v284h-84v62h162v-351l94 -32l-20 -64
l-136 47c-21.333 -13.333 -45.333 -24 -72 -32zM175.5 520.5c-26.333 20.333 -43.5 50.166 -51.5 89.499l65 12c7.33301 -45.333 37.666 -68 90.999 -68c55.333 0 86 22.667 92 68l65 -12c-8 -39.333 -25.333 -69.166 -52 -89.499s-61.667 -30.5 -105 -30.5
s-78.166 10.167 -104.499 30.5z" />
    <glyph glyph-name="Uring" unicode="&#x16e;" horiz-adv-x="678" 
d="M500 46c-36.667 -40.667 -92 -61.001 -166 -61.001c-71.333 0 -124.333 20.333 -159 61s-52 97 -52 169v305h-96v69h240v-69h-64v-332c0 -45.333 11.667 -79.166 35 -101.499s55.333 -33.5 96 -33.5c44 0 78.5 12.167 103.5 36.5s37.5 60.5 37.5 108.5v322h-64v69h240
v-69h-96v-305c0 -72 -18.333 -128.333 -55 -169zM401.5 803.499c15.667 -15.667 23.5 -36.5 23.5 -62.5s-7.83301 -46.833 -23.5 -62.5s-36.5 -23.5 -62.5 -23.5s-46.833 7.83301 -62.5 23.5s-23.5 36.5 -23.5 62.5s7.83301 46.833 23.5 62.5s36.5 23.5 62.5 23.5
s46.833 -7.83301 62.5 -23.5zM311 768.999c-7.33301 -7.33301 -11 -16.666 -11 -27.999s3.66699 -20.666 11 -27.999s16.666 -11 27.999 -11s20.666 3.66699 27.999 11s11 16.666 11 27.999s-3.66699 20.666 -11 27.999s-16.666 11 -27.999 11s-20.666 -3.66699 -27.999 -11
z" />
    <glyph glyph-name="uring" unicode="&#x16f;" horiz-adv-x="609" 
d="M361 -3c-26.667 -8 -51.667 -12 -75 -12c-61.333 0 -106.5 13.667 -135.5 41s-43.5 70 -43.5 128v213h-84v62h162v-259c0 -42.667 8.33301 -73.5 25 -92.5s43.667 -28.5 81 -28.5c21.333 0 44 3.16699 68 9.5s43.333 14.5 58 24.5v284h-84v62h162v-351l94 -32l-20 -64
l-136 47c-21.333 -13.333 -45.333 -24 -72 -32zM343.5 643.5c15.667 -15.667 23.5 -36.5 23.5 -62.5s-7.83301 -46.833 -23.5 -62.5s-36.5 -23.5 -62.5 -23.5s-46.833 7.83301 -62.5 23.5s-23.5 36.5 -23.5 62.5s7.83301 46.833 23.5 62.5s36.5 23.5 62.5 23.5
s46.833 -7.83301 62.5 -23.5zM253 609c-7.33301 -7.33301 -11 -16.666 -11 -27.999s3.66699 -20.666 11 -27.999s16.666 -11 27.999 -11s20.666 3.66699 27.999 11s11 16.666 11 27.999s-3.66699 20.666 -11 27.999s-16.666 11 -27.999 11s-20.666 -3.66699 -27.999 -11z
" />
    <glyph glyph-name="Uhungarumlaut" unicode="&#x170;" horiz-adv-x="678" 
d="M500 46c-36.667 -40.667 -92 -61.001 -166 -61.001c-71.333 0 -124.333 20.333 -159 61s-52 97 -52 169v305h-96v69h240v-69h-64v-332c0 -45.333 11.667 -79.166 35 -101.499s55.333 -33.5 96 -33.5c44 0 78.5 12.167 103.5 36.5s37.5 60.5 37.5 108.5v322h-64v69h240
v-69h-96v-305c0 -72 -18.333 -128.333 -55 -169zM423 806.999l40 -56l-166 -102l-20 28zM571 762.999l24 -64l-190 -49l-13 32z" />
    <glyph glyph-name="uhungarumlaut" unicode="&#x171;" horiz-adv-x="609" 
d="M361 -3c-26.667 -8 -51.667 -12 -75 -12c-61.333 0 -106.5 13.667 -135.5 41s-43.5 70 -43.5 128v213h-84v62h162v-259c0 -42.667 8.33301 -73.5 25 -92.5s43.667 -28.5 81 -28.5c21.333 0 44 3.16699 68 9.5s43.333 14.5 58 24.5v284h-84v62h162v-351l94 -32l-20 -64
l-136 47c-21.333 -13.333 -45.333 -24 -72 -32zM302 692l59 -44l-148 -164l-37 28zM469 672l49 -54l-175 -134l-31 34z" />
    <glyph glyph-name="Uogonek" unicode="&#x172;" horiz-adv-x="678" 
d="M651 589l0.00195312 -69h-96v-305c0 -54 -10.5 -99.5 -31.5 -136.5s-52.833 -63.167 -95.5 -78.5c-39.333 -26.667 -59 -58 -59 -94c0 -14.667 5.16699 -25.834 15.5 -33.501s25.166 -11.5 44.499 -11.5c16 0 32.333 3 49 9v-61c-26.667 -13.333 -53.334 -20 -80.001 -20
c-30.667 0 -57 8.33301 -79 25s-33 39 -33 67c0 41.333 19 76 57 104h-9c-71.333 0 -124.333 20.333 -159 61s-52 97 -52 169v305h-96v69h240v-69h-64v-332c0 -45.333 11.667 -79.166 35 -101.499s55.333 -33.5 96 -33.5c44 0 78.5 12.167 103.5 36.5s37.5 60.5 37.5 108.5
v322h-64v69h240z" />
    <glyph glyph-name="uogonek" unicode="&#x173;" horiz-adv-x="609" 
d="M603 -158l0.00195312 -61c-26.667 -13.333 -53.334 -20 -80.001 -20c-30.667 0 -57 8.33301 -79 25s-33 39 -33 67c0 30.667 10 57.334 30 80.001s51 43 93 61l-101 35c-21.333 -13.333 -45.333 -24 -72 -32s-51.667 -12 -75 -12c-61.333 0 -106.5 13.667 -135.5 41
s-43.5 70 -43.5 128v213h-84v62h162v-259c0 -42.667 8.33301 -73.5 25 -92.5s43.667 -28.5 81 -28.5c21.333 0 44 3.16699 68 9.5s43.333 14.5 58 24.5v284h-84v62h162v-351l94 -32l-20 -63l1 -1c-26 -14.667 -45.167 -30.5 -57.5 -47.5s-18.5 -35.833 -18.5 -56.5
c0 -14.667 5.16699 -25.834 15.5 -33.501s25.166 -11.5 44.499 -11.5c16 0 32.333 3 49 9z" />
    <glyph glyph-name="Wcircumflex" unicode="&#x174;" horiz-adv-x="912" 
d="M1 589h243v-69h-64l84 -283l44 -146l30 141l82 282h88l70 -276l32 -146l43 146l93 282h-64v69h229v-69h-95l-164 -520h-92l-71 269l-32 135l-39 -140l-70 -264h-86l-166 520h-95v69zM459 778l171 -97l-18 -32l-153 56l-153 -56l-18 32z" />
    <glyph glyph-name="wcircumflex" unicode="&#x175;" horiz-adv-x="741" 
d="M206 0l-120 367h-84v62h226v-62h-65l55 -171l33 -104l31 102l54 174h76l55 -179l31 -99l30 94l59 183h-54v62h206v-62h-85l-117 -367h-76l-87 270l-90 -270h-78zM376 630l149 -99l-23 -44l-126 65l-126 -63l-27 42z" />
    <glyph glyph-name="Ycircumflex" unicode="&#x176;" horiz-adv-x="651" 
d="M4 589h239v-69h-53l139 -196l156 196h-75v69h237v-69h-68l-213 -263l-2 -188h94v-69h-267v69h94l1 185l-198 266h-84v69zM325 778l171 -97l-18 -32l-153 56l-153 -56l-18 32z" />
    <glyph glyph-name="ycircumflex" unicode="&#x177;" horiz-adv-x="543" 
d="M542 429l0.000976562 -62h-72l-163 -457c-31.333 -89.333 -83 -134 -155 -134c-22 0 -44 3.66699 -66 11l12 60c18 -5.33301 34 -8 48 -8c19.333 0 34.833 2.83301 46.5 8.5s22.167 16.5 31.5 32.5s19.666 40.333 30.999 73l5 14l-188 400h-71v62h208v-62h-57l138 -313
l107 313h-55v62h200zM275.001 630l149 -99l-23 -44l-126 65l-126 -63l-27 42z" />
    <glyph glyph-name="Ydieresis" unicode="&#x178;" horiz-adv-x="651" 
d="M4 589h239v-69h-53l139 -196l156 196h-75v69h237v-69h-68l-213 -263l-2 -188h94v-69h-267v69h94l1 185l-198 266h-84v69zM275 762.5c11.333 -11 17 -24.167 17 -39.5s-5.5 -28.5 -16.5 -39.5s-24.167 -16.5 -39.5 -16.5s-28.5 5.5 -39.5 16.5s-16.5 24.167 -16.5 39.5
s5.5 28.5 16.5 39.5s24.167 16.5 39.5 16.5c14.667 0 27.667 -5.5 39 -16.5zM453 762.5c11.333 -11 17 -24.167 17 -39.5s-5.5 -28.5 -16.5 -39.5s-24.167 -16.5 -39.5 -16.5s-28.5 5.5 -39.5 16.5s-16.5 24.167 -16.5 39.5s5.5 28.5 16.5 39.5s24.167 16.5 39.5 16.5
c14.667 0 27.667 -5.5 39 -16.5z" />
    <glyph glyph-name="Zacute" unicode="&#x179;" horiz-adv-x="534" 
d="M61 589h419v-52l-337 -468h251l40 107l66 -22l-52 -154h-407v56l334 464h-258l-20 -97l-64 9zM415 768l18 -73l-252 -47l-9 36z" />
    <glyph glyph-name="zacute" unicode="&#x17a;" horiz-adv-x="452" 
d="M42 0v53l268 314h-204l-11 -56l-65 14l19 104h351v-50l-270 -317h212l10 60l67 -12l-21 -110h-356zM296 692l59 -44l-148 -164l-37 28z" />
    <glyph glyph-name="Zdotaccent" unicode="&#x17b;" horiz-adv-x="534" 
d="M61 589h419v-52l-337 -468h251l40 107l66 -22l-52 -154h-407v56l334 464h-258l-20 -97l-64 9zM307 785c11.333 -11.333 17 -26.333 17 -45s-5.66699 -33.667 -17 -45s-26.333 -17 -45 -17s-33.5 5.66699 -44.5 17s-16.5 26.333 -16.5 45s5.5 33.667 16.5 45
s25.833 17 44.5 17s33.667 -5.66699 45 -17z" />
    <glyph glyph-name="zdotaccent" unicode="&#x17c;" horiz-adv-x="452" 
d="M42 0v53l268 314h-204l-11 -56l-65 14l19 104h351v-50l-270 -317h212l10 60l67 -12l-21 -110h-356zM269 625c11.333 -11.333 17 -26.333 17 -45s-5.66699 -33.667 -17 -45s-26.333 -17 -45 -17s-33.5 5.66699 -44.5 17s-16.5 26.333 -16.5 45s5.5 33.667 16.5 45
s25.833 17 44.5 17s33.667 -5.66699 45 -17z" />
    <glyph glyph-name="Zcaron" unicode="&#x17d;" horiz-adv-x="534" 
d="M61 589h419v-52l-337 -468h251l40 107l66 -22l-52 -154h-407v56l334 464h-258l-20 -97l-64 9zM265 636l-153 99l27 42l126 -63l126 65l23 -44z" />
    <glyph glyph-name="zcaron" unicode="&#x17e;" horiz-adv-x="452" 
d="M42 0v53l268 314h-204l-11 -56l-65 14l19 104h351v-50l-270 -317h212l10 60l67 -12l-21 -110h-356zM227 476l-153 99l27 42l126 -63l126 65l23 -44z" />
    <glyph glyph-name="uni018F" unicode="&#x18f;" horiz-adv-x="605" 
d="M422.5 566c42.333 -25.333 75 -60.999 98 -106.999s34.5 -99.667 34.5 -161c0 -62 -11.333 -116.667 -34 -164s-54.667 -84 -96 -110s-89.333 -39 -144 -39c-50 0 -94.667 12.5 -134 37.5s-69.833 60.167 -91.5 105.5s-32.5 97.666 -32.5 156.999v36h446
c-11.333 143.333 -77 215 -197 215c-30.667 0 -57.667 -2.66699 -81 -8s-42.333 -11.333 -57 -18l-19 -84l-69 15l22 116c3.33301 3.33301 12 8.5 26 15.5s36.333 14 67 21s68.667 10.5 114 10.5c56 0 105.167 -12.667 147.5 -38zM415.5 107.501
c35 35 52.5 83.167 52.5 144.5h-365c0 -62 16.333 -110.333 49 -145s75.667 -52 129 -52c54.667 0 99.5 17.5 134.5 52.5z" />
    <glyph glyph-name="florin" unicode="&#x192;" horiz-adv-x="447" 
d="M20 33l39.001 53c18 -17.333 36.667 -26 56 -26c20.667 0 37.834 9.5 51.501 28.5s23.167 45.833 28.5 80.5l28 198h-84l9 62h84l8 60c7.33301 53.333 27.166 94.833 59.499 124.5s73.5 44.5 123.5 44.5c20 0 38.833 -3.83301 56.5 -11.5s31.834 -17.834 42.501 -30.501
l-38 -52c-16.667 17.333 -38.334 26 -65.001 26c-27.333 0 -49.833 -8.16699 -67.5 -24.5s-28.167 -38.166 -31.5 -65.499l-10 -71h94l-9 -62h-94l-30 -218c-7.33301 -56 -24.833 -96.333 -52.5 -121s-63.834 -37 -108.501 -37c-34 0 -64 14 -90 42z" />
    <glyph glyph-name="Ohorn" unicode="&#x1a0;" horiz-adv-x="636" 
d="M563 446c19.333 -44 29.0029 -94.334 29.0029 -151.001c0 -61.333 -11.333 -115.5 -34 -162.5s-54.834 -83.333 -96.501 -109s-89.5 -38.5 -143.5 -38.5s-101.833 12.833 -143.5 38.5s-73.834 62 -96.501 109s-34 101.167 -34 162.5s11.333 115.333 34 162
s54.667 82.834 96 108.501s89 38.5 143 38.5c31.333 0 61.666 -4.66699 90.999 -14c18 2.66699 31.667 10.5 41 23.5s14 31.167 14 54.5h62c0 -54 -15 -92.667 -45 -116c36 -26.667 63.667 -62 83 -106zM457.003 117.999c33.333 42 50 101 50 177
c0 75.333 -16.667 134 -50 176s-79.666 63 -138.999 63s-105.666 -21 -138.999 -63s-50 -100.667 -50 -176c0 -76 16.667 -135 50 -177s79.666 -63 138.999 -63s105.666 21 138.999 63z" />
    <glyph glyph-name="ohorn" unicode="&#x1a1;" horiz-adv-x="521" 
d="M465 310c10.667 -28.667 15.999 -60.6689 15.999 -96.002c0 -70.667 -20.167 -126.5 -60.5 -167.5s-94.166 -61.5 -161.499 -61.5c-42.667 0 -80.5 9.16699 -113.5 27.5s-58.667 44.833 -77 79.5s-27.5 75.334 -27.5 122.001s9.16699 87.334 27.5 122.001
s44 61.334 77 80.001s70.833 28 113.5 28c32.667 0 62.334 -5 89.001 -15c21.333 0.666992 37.666 7.66699 48.999 21s17 32.666 17 57.999h62c0 -61.333 -19 -102.666 -57 -123.999c20 -20.667 35.333 -45.334 46 -74.001zM365.499 91.498
c23.667 28.333 35.5 69.166 35.5 122.499s-11.833 94.333 -35.5 123s-58.834 43 -105.501 43c-45.333 0 -79.833 -14.333 -103.5 -43s-35.5 -69.667 -35.5 -123s11.833 -94.166 35.5 -122.499s58.167 -42.5 103.5 -42.5c46.667 0 81.834 14.167 105.501 42.5z" />
    <glyph glyph-name="Uhorn" unicode="&#x1af;" horiz-adv-x="686" 
d="M555 524l-0.000976562 -309.001c0 -72 -18.333 -128.333 -55 -169s-92 -61 -166 -61c-71.333 0 -124.333 20.333 -159 61s-52 97 -52 169v305h-96v69h240v-69h-64v-332c0 -45.333 11.667 -79.166 35 -101.499s55.333 -33.5 96 -33.5c44 0 78.5 12.167 103.5 36.5
s37.5 60.5 37.5 108.5v322h-64v69h104c22.667 0 39.834 6.66699 51.501 20s17.5 33 17.5 59h62c0 -82 -30.333 -130 -91 -144z" />
    <glyph glyph-name="uhorn" unicode="&#x1b0;" horiz-adv-x="619" 
d="M589 46l-20.001 -64l-136 47c-21.333 -13.333 -45.333 -24 -72 -32s-51.667 -12 -75 -12c-61.333 0 -106.5 13.667 -135.5 41s-43.5 70 -43.5 128v213h-84v62h162v-259c0 -42.667 8.33301 -73.5 25 -92.5s43.667 -28.5 81 -28.5c21.333 0 44 3.16699 68 9.5
s43.333 14.5 58 24.5v284h-84v62h123c22.667 0 39.834 6.66699 51.501 20s17.5 33 17.5 59h62c0 -78 -30.667 -123.667 -92 -137v-293z" />
    <glyph glyph-name="Gcaron" unicode="&#x1e6;" horiz-adv-x="592" 
d="M434 0c-28 -10 -65.6631 -15.001 -112.996 -15.001c-52.667 0 -100 11.5 -142 34.5s-75 57.667 -99 104s-36 103.5 -36 171.5c0 62.667 11.833 117.334 35.5 164.001s57 82.5 100 107.5s93.167 37.5 150.5 37.5c75.333 0 136.666 -19 183.999 -57l23 -106l-69 -15l-18 77
c-18.667 11.333 -36.167 19.666 -52.5 24.999s-38.5 8 -66.5 8c-36 0 -69.333 -9.5 -100 -28.5s-55.334 -46.667 -74.001 -83s-28 -79.5 -28 -129.5c0 -82 18.167 -142.833 54.5 -182.5s82.166 -59.5 137.499 -59.5c31.333 0 56.666 2.83301 75.999 8.5
s39.333 15.834 60 30.501v129h-128v69h203v-236c-37.333 -26 -70 -44 -98 -54zM337.004 635.999l-153 99l27 42l126 -63l126 65l23 -44z" />
    <glyph glyph-name="gcaron" unicode="&#x1e7;" horiz-adv-x="535" 
d="M450 -89c0 -42 -18.832 -74.8301 -56.499 -98.4971s-89.834 -35.5 -156.501 -35.5c-32 0 -71 5.16699 -117 15.5s-78.333 21.166 -97 32.499l28 59c23.333 -12 52.666 -21.833 87.999 -29.5s68 -11.5 98 -11.5c43.333 0 76.833 5 100.5 15s35.5 25.333 35.5 46
c0 40.667 -34.667 61 -104 61h-143v171c-30 12.667 -53 31.167 -69 55.5s-24 53.166 -24 86.499c0 50.667 17.667 91 53 121s83.333 45 144 45c48.667 0 89.334 -9.33301 122.001 -28l142 53l23 -66l-118 -27c20 -24.667 30 -55.667 30 -93
c0 -50.667 -18 -90.834 -54 -120.501s-84.667 -44.5 -146 -44.5c-12 0 -21 0.333008 -27 1v-92h88c106.667 0 160 -38.667 160 -116zM142.501 354.003c-20.333 -17.333 -30.5 -41.666 -30.5 -72.999c0 -29.333 10.833 -53.166 32.5 -71.499s50.5 -27.5 86.5 -27.5
s64.833 9.16699 86.5 27.5s32.5 42.166 32.5 71.499c0 31.333 -10.167 55.666 -30.5 72.999s-49.833 26 -88.5 26s-68.167 -8.66699 -88.5 -26zM234.001 476.003l-153 99l27 42l126 -63l126 65l23 -44z" />
    <glyph glyph-name="uni01EA" unicode="&#x1ea;" horiz-adv-x="636" 
d="M373 -40.5c-10.667 -15.667 -15.9961 -33.4971 -15.9961 -53.4971c0 -14.667 5.16699 -25.834 15.5 -33.501s25.166 -11.5 44.499 -11.5c16 0 32.333 3 49 9v-61c-26.667 -13.333 -53.334 -20 -80.001 -20c-30.667 0 -57 8.33301 -79 25s-33 39 -33 67
c0 40 19 74.667 57 104h-13c-54 0 -101.833 12.833 -143.5 38.5s-73.834 62 -96.501 109s-34 101.167 -34 162.5s11.333 115.333 34 162s54.667 82.834 96 108.501s89 38.5 143 38.5c54.667 0 102.667 -12.833 144 -38.5s73.5 -61.834 96.5 -108.501
s34.5 -100.667 34.5 -162c0 -70.667 -14.833 -131.334 -44.5 -182.001s-70.834 -86.667 -123.501 -108c-23.333 -14.667 -40.333 -29.834 -51 -45.501zM179.004 118.003c33.333 -42 79.666 -63 138.999 -63s105.666 21 138.999 63s50 101 50 177
c0 75.333 -16.667 134 -50 176s-79.666 63 -138.999 63s-105.666 -21 -138.999 -63s-50 -100.667 -50 -176c0 -76 16.667 -135 50 -177z" />
    <glyph glyph-name="uni01EB" unicode="&#x1eb;" horiz-adv-x="521" 
d="M333.5 -114.5c10.333 -7.66699 25.168 -11.5039 44.501 -11.5039c16 0 32.333 3 49 9v-61c-26.667 -13.333 -53.334 -20 -80.001 -20c-30.667 0 -57 8.33301 -79 25s-33 39 -33 67c0 35.333 14 66 42 92c-4 -0.666992 -10 -1 -18 -1c-42.667 0 -80.5 9.16699 -113.5 27.5
s-58.667 44.833 -77 79.5s-27.5 75.334 -27.5 122.001s9.16699 87.334 27.5 122.001s44 61.334 77 80.001s70.833 28 113.5 28c44 0 82.833 -9.33301 116.5 -28s59.667 -45.167 78 -79.5s27.5 -75.166 27.5 -122.499c0 -42.667 -7.66699 -80.167 -23 -112.5
s-37 -58.166 -65 -77.499l1 -1c-26 -14.667 -45.167 -30.5 -57.5 -47.5s-18.5 -35.833 -18.5 -56.5c0 -14.667 5.16699 -25.834 15.5 -33.501zM156.502 91.4961c23.667 -28.333 58.167 -42.5 103.5 -42.5c46.667 0 81.834 14.167 105.501 42.5s35.5 69.166 35.5 122.499
s-11.833 94.333 -35.5 123s-58.834 43 -105.501 43c-45.333 0 -79.833 -14.333 -103.5 -43s-35.5 -69.667 -35.5 -123s11.833 -94.166 35.5 -122.499z" />
    <glyph glyph-name="Aringacute" unicode="&#x1fa;" horiz-adv-x="685" 
d="M641 69v-68.999h-243v69h63l-32 91h-216l-34 -91h64v-69h-233v69h96l166 451h-101v69h102c-16.667 15.333 -25 36.666 -25 63.999c0 26 7.83301 46.833 23.5 62.5s36.5 23.5 62.5 23.5s46.833 -7.83301 62.5 -23.5s23.5 -36.5 23.5 -62.5
c0 -19.333 -4.33301 -35.833 -13 -49.5s-21 -23.5 -37 -29.5l176 -505h95zM306 681.001c-7.33301 -7.33301 -11 -16.666 -11 -27.999s3.66699 -20.666 11 -27.999s16.666 -11 27.999 -11s20.666 3.66699 27.999 11s11 16.666 11 27.999s-3.66699 20.666 -11 27.999
s-16.666 11 -27.999 11s-20.666 -3.66699 -27.999 -11zM238 229.001h167l-79 259zM480 880.001l18 -73l-252 -47l-9 36z" />
    <glyph glyph-name="aringacute" unicode="&#x1fb;" horiz-adv-x="525" 
d="M208 -15c-56.667 0 -99.5 11.4971 -128.5 34.4971s-43.5 56.5 -43.5 100.5c0 42.667 14 74.834 42 96.501s69.333 32.5 124 32.5l129 -1c0 44.667 -8.33301 77.834 -25 99.501s-42 32.5 -76 32.5c-33.333 0 -63.333 -4 -90 -12l-10 -55l-64 12l16 91
c52 18.667 100.333 28 145 28c60 0 105.333 -16.167 136 -48.5s46 -80.166 46 -143.499v-174l95 -31l-20 -64l-135 46c-43.333 -29.333 -90.333 -44 -141 -44zM138.5 168.997c-15 -11.333 -22.499 -28 -22.499 -50c0 -22.667 8.16699 -40 24.5 -52s40.166 -18 71.499 -18
c46 0 85.667 12.667 119 38v98l-126 1c-29.333 0 -51.5 -5.66699 -66.5 -17zM295.501 643.497c15.667 -15.667 23.5 -36.5 23.5 -62.5s-7.83301 -46.833 -23.5 -62.5s-36.5 -23.5 -62.5 -23.5s-46.833 7.83301 -62.5 23.5s-23.5 36.5 -23.5 62.5s7.83301 46.833 23.5 62.5
s36.5 23.5 62.5 23.5s46.833 -7.83301 62.5 -23.5zM205.001 608.997c-7.33301 -7.33301 -11 -16.666 -11 -27.999s3.66699 -20.666 11 -27.999s16.666 -11 27.999 -11s20.666 3.66699 27.999 11s11 16.666 11 27.999s-3.66699 20.666 -11 27.999s-16.666 11 -27.999 11
s-20.666 -3.66699 -27.999 -11zM304.001 929.997l59 -44l-148 -164l-37 28z" />
    <glyph glyph-name="AEacute" unicode="&#x1fc;" horiz-adv-x="919" 
d="M27 0v69h100l286 451h-103v69h503l52 -154l-66 -22l-40 107h-187v-191h160v-69h-161v-191h208l40 107l66 -22l-51 -154h-438v69h95v91h-226l-56 -91h58v-69h-240zM308 229h183l1 291zM672 768l18 -73l-252 -47l-9 36z" />
    <glyph glyph-name="aeacute" unicode="&#x1fd;" horiz-adv-x="777" 
d="M150.5 437.5c20.333 4.33301 45.499 6.50391 75.499 6.50391c42 0 76.167 -8.33301 102.5 -25s44.833 -40.334 55.5 -71.001c18.667 30 42.834 53.5 72.501 70.5s63.5 25.5 101.5 25.5c50 0 91.667 -15.333 125 -46s50 -81.667 50 -153c0 -14.667 -1 -31 -3 -49l-322 -2
c2.66699 -46.667 15.667 -82.5 39 -107.5s56.333 -37.5 99 -37.5c27.333 0 52.333 3.66699 75 11s41.167 15.166 55.5 23.499s21.5 13.166 21.5 14.499l36 -47c0 -2 -8.5 -8.66699 -25.5 -20s-39.5 -21.833 -67.5 -31.5s-60 -14.5 -96 -14.5c-66.667 0 -120 21 -160 63
c-20.667 -14 -49 -28 -85 -42s-67 -21 -93 -21c-52.667 0 -94.5 12.667 -125.5 38s-46.5 57.666 -46.5 96.999c0 43.333 15.5 75.666 46.5 96.999s70.833 32 119.5 32l129 -1c0 32.667 -2.66699 58.334 -8 77.001s-15.333 32.5 -30 41.5s-35.667 13.5 -63 13.5
c-32.667 0 -62.667 -4 -90 -12l-10 -55l-64 12l16 91c26 10 49.167 17.167 69.5 21.5zM635.499 349.504c-17 20.333 -43.833 30.501 -80.5 30.501c-39.333 0 -72 -11 -98 -33s-42 -52.333 -48 -91l254 1c-1.33301 41.333 -10.5 72.166 -27.5 92.499zM138.499 172.505
c-15.667 -9 -23.499 -26.833 -23.499 -53.5c0 -22.667 9.16699 -40 27.5 -52s41.166 -18 68.499 -18c22 0 46.167 4.5 72.5 13.5s49.5 19.833 69.5 32.5c-14 28 -22 58 -24 90l-125 1c-28 0 -49.833 -4.5 -65.5 -13.5zM460 692.005l59 -44l-148 -164l-37 28z" />
    <glyph glyph-name="Oslashacute" unicode="&#x1fe;" horiz-adv-x="636" 
d="M565 440.5c18 -43 27.001 -91.501 27.001 -145.501c0 -61.333 -11.333 -115.5 -34 -162.5s-54.834 -83.333 -96.501 -109s-89.5 -38.5 -143.5 -38.5c-31.333 0 -61 4.66699 -89 14l-31 -68h-74l44 97c-39.333 26 -69.833 62 -91.5 108s-32.5 99 -32.5 159
c0 61.333 11.333 115.333 34 162s54.667 82.834 96 108.501s89 38.5 143 38.5c42 0 80.333 -7.66699 115 -23l32 70h73l-49 -105c33.333 -27.333 59 -62.5 77 -105.5zM148.001 173.499c12.667 -34.333 30.999 -61.167 54.999 -80.5l194 425c-22 10.667 -48.333 16 -79 16
c-59.333 0 -105.666 -21 -138.999 -63s-50 -100.667 -50 -176c0 -46.667 6.33301 -87.167 19 -121.5zM457 117.998c33.333 42 50.001 101 50.001 177c0 79.333 -18.667 140.333 -56 183l-188 -416c16 -4.66699 34.333 -7 55 -7c59.333 0 105.666 21 138.999 63z
M470.001 767.998l18 -73l-252 -47l-9 36z" />
    <glyph glyph-name="oslashacute" unicode="&#x1ff;" horiz-adv-x="521" 
d="M452.5 338.5c19 -35 28.498 -76.502 28.498 -124.502c0 -70.667 -20.167 -126.5 -60.5 -167.5s-94.166 -61.5 -161.499 -61.5c-21.333 0 -42.666 2.66699 -63.999 8l-26 -62h-50l32 78c-34.667 18 -61.667 44.667 -81 80s-29 77 -29 125
c0 46.667 9.16699 87.334 27.5 122.001s44 61.334 77 80.001s70.833 28 113.5 28c24.667 0 47.667 -3 69 -9l27 64h50l-33 -81c34.667 -18 61.5 -44.5 80.5 -79.5zM177.998 71.998l125 303c-14.667 3.33301 -29 5 -43 5c-45.333 0 -79.833 -14.333 -103.5 -43
s-35.5 -69.667 -35.5 -123c0 -68 19 -115.333 57 -142zM365.498 91.498c23.667 28.333 35.499 69.168 35.499 122.501c0 67.333 -18.667 114.666 -56 141.999l-125 -303c10.667 -2.66699 24 -4 40 -4c46.667 0 81.834 14.167 105.501 42.5zM331.997 692l59 -44l-148 -164
l-37 28z" />
    <glyph glyph-name="uni0200" unicode="&#x200;" horiz-adv-x="651" 
d="M10 0v69h96l166 451h-101v69h194l181 -520h95v-69h-243v69h63l-32 91h-216l-34 -91h64v-69h-233zM238 229h167l-79 259zM234 807l146 -130l-20 -28l-166 102zM86 763l179 -81l-13 -32l-190 49z" />
    <glyph glyph-name="uni0201" unicode="&#x201;" horiz-adv-x="525" 
d="M208 -15c-56.667 0 -99.5 11.4971 -128.5 34.4971s-43.5 56.5 -43.5 100.5c0 42.667 14 74.834 42 96.501s69.333 32.5 124 32.5l129 -1c0 44.667 -8.33301 77.834 -25 99.501s-42 32.5 -76 32.5c-33.333 0 -63.333 -4 -90 -12l-10 -55l-64 12l16 91
c52 18.667 100.333 28 145 28c60 0 105.333 -16.167 136 -48.5s46 -80.166 46 -143.499v-174l95 -31l-20 -64l-135 46c-43.333 -29.333 -90.333 -44 -141 -44zM138.5 168.997c-15 -11.333 -22.499 -28 -22.499 -50c0 -22.667 8.16699 -40 24.5 -52s40.166 -18 71.499 -18
c46 0 85.667 12.667 119 38v98l-126 1c-29.333 0 -51.5 -5.66699 -66.5 -17zM218.001 691.997l126 -180l-37 -28l-148 164zM51.001 671.997l157 -154l-31 -34l-175 134z" />
    <glyph glyph-name="uni0202" unicode="&#x202;" horiz-adv-x="651" 
d="M10 0v69h96l166 451h-101v69h194l181 -520h95v-69h-243v69h63l-32 91h-216l-34 -91h64v-69h-233zM238 229h167l-79 259zM422 761.5c26.667 -20.333 44 -50.166 52 -89.499l-65 -12c-6 45.333 -36.667 68 -92 68c-53.333 0 -83.666 -22.667 -90.999 -68l-65 12
c8 39.333 25.167 69.166 51.5 89.499s61.166 30.5 104.499 30.5s78.333 -10.167 105 -30.5z" />
    <glyph glyph-name="uni0203" unicode="&#x203;" horiz-adv-x="525" 
d="M208 -15c-56.667 0 -99.5 11.4971 -128.5 34.4971s-43.5 56.5 -43.5 100.5c0 42.667 14 74.834 42 96.501s69.333 32.5 124 32.5l129 -1c0 44.667 -8.33301 77.834 -25 99.501s-42 32.5 -76 32.5c-33.333 0 -63.333 -4 -90 -12l-10 -55l-64 12l16 91
c52 18.667 100.333 28 145 28c60 0 105.333 -16.167 136 -48.5s46 -80.166 46 -143.499v-174l95 -31l-20 -64l-135 46c-43.333 -29.333 -90.333 -44 -141 -44zM138.5 168.997c-15 -11.333 -22.499 -28 -22.499 -50c0 -22.667 8.16699 -40 24.5 -52s40.166 -18 71.499 -18
c46 0 85.667 12.667 119 38v98l-126 1c-29.333 0 -51.5 -5.66699 -66.5 -17zM337.001 601.497c26.667 -20.333 44 -50.166 52 -89.499l-65 -12c-6 45.333 -36.667 68 -92 68c-53.333 0 -83.666 -22.667 -90.999 -68l-65 12c8 39.333 25.167 69.166 51.5 89.499
s61.166 30.5 104.499 30.5s78.333 -10.167 105 -30.5z" />
    <glyph glyph-name="uni0204" unicode="&#x204;" horiz-adv-x="587" 
d="M38 589h444l51 -154l-65 -22l-40 107h-214v-181h187v-69h-187l-1 -201h235l40 107l65 -22l-51 -154h-465v69h96l1 451h-96v69zM278 852l126 -180l-37 -28l-148 164zM111 832l157 -154l-31 -34l-175 134z" />
    <glyph glyph-name="uni0205" unicode="&#x205;" horiz-adv-x="491" 
d="M364 1c-28 -10.667 -59.334 -15.999 -94.001 -15.999c-71.333 0 -127.666 20.333 -168.999 61s-62 97 -62 169c0 45.333 9 85.333 27 120s43.5 61.5 76.5 80.5s71.167 28.5 114.5 28.5c60 0 107.333 -18.833 142 -56.5s52 -88.5 52 -152.5c0 -8 -0.666992 -20.667 -2 -38
l-333 -2c2.66699 -48.667 18.167 -85 46.5 -109s63.166 -36 104.499 -36c56.667 0 104.334 16 143.001 48l36 -47c-26.667 -22.667 -54 -39.334 -82 -50.001zM341.499 348.501c-21 23 -48.834 34.499 -83.501 34.499c-36 0 -67.167 -11.667 -93.5 -35
s-42.166 -53.666 -47.499 -90.999l257 1c-0.666992 37.333 -11.5 67.5 -32.5 90.5zM238.998 692l126 -180l-37 -28l-148 164zM71.998 672l157 -154l-31 -34l-175 134z" />
    <glyph glyph-name="uni0206" unicode="&#x206;" horiz-adv-x="587" 
d="M38 589h444l51 -154l-65 -22l-40 107h-214v-181h187v-69h-187l-1 -201h235l40 107l65 -22l-51 -154h-465v69h96l1 451h-96v69zM397 761.5c26.667 -20.333 44 -50.166 52 -89.499l-65 -12c-6 45.333 -36.667 68 -92 68c-53.333 0 -83.666 -22.667 -90.999 -68l-65 12
c8 39.333 25.167 69.166 51.5 89.499s61.166 30.5 104.499 30.5s78.333 -10.167 105 -30.5z" />
    <glyph glyph-name="uni0207" unicode="&#x207;" horiz-adv-x="491" 
d="M364 1c-28 -10.667 -59.334 -15.999 -94.001 -15.999c-71.333 0 -127.666 20.333 -168.999 61s-62 97 -62 169c0 45.333 9 85.333 27 120s43.5 61.5 76.5 80.5s71.167 28.5 114.5 28.5c60 0 107.333 -18.833 142 -56.5s52 -88.5 52 -152.5c0 -8 -0.666992 -20.667 -2 -38
l-333 -2c2.66699 -48.667 18.167 -85 46.5 -109s63.166 -36 104.499 -36c56.667 0 104.334 16 143.001 48l36 -47c-26.667 -22.667 -54 -39.334 -82 -50.001zM341.499 348.501c-21 23 -48.834 34.499 -83.501 34.499c-36 0 -67.167 -11.667 -93.5 -35
s-42.166 -53.666 -47.499 -90.999l257 1c-0.666992 37.333 -11.5 67.5 -32.5 90.5zM357.998 601.5c26.667 -20.333 44 -50.166 52 -89.499l-65 -12c-6 45.333 -36.667 68 -92 68c-53.333 0 -83.666 -22.667 -90.999 -68l-65 12c8 39.333 25.167 69.166 51.5 89.499
s61.166 30.5 104.499 30.5s78.333 -10.167 105 -30.5z" />
    <glyph glyph-name="uni0208" unicode="&#x208;" horiz-adv-x="345" 
d="M38 589h270v-69h-93l-2 -451h95v-69h-271v69h97v451h-96v69zM158 852l126 -180l-37 -28l-148 164zM-9 832l157 -154l-31 -34l-175 134z" />
    <glyph glyph-name="uni0209" unicode="&#x209;" horiz-adv-x="304" 
d="M36 429h162v-367h83v-62h-245v62h83v305h-83v62zM134 692l126 -180l-37 -28l-148 164zM-33 672l157 -154l-31 -34l-175 134z" />
    <glyph glyph-name="uni020A" unicode="&#x20a;" horiz-adv-x="345" 
d="M38 589h270v-69h-93l-2 -451h95v-69h-271v69h97v451h-96v69zM277 761.5c26.667 -20.333 44 -50.166 52 -89.499l-65 -12c-6 45.333 -36.667 68 -92 68c-53.333 0 -83.666 -22.667 -90.999 -68l-65 12c8 39.333 25.167 69.166 51.5 89.499s61.166 30.5 104.499 30.5
s78.333 -10.167 105 -30.5z" />
    <glyph glyph-name="uni020B" unicode="&#x20b;" horiz-adv-x="304" 
d="M36 429h162v-367h83v-62h-245v62h83v305h-83v62zM238 601.5c22.667 -20.333 36.6689 -50.166 42.002 -89.499l-57 -12c-4 45.333 -29 68 -75 68c-22 0 -39.333 -5.66699 -52 -17s-20 -28.333 -22 -51l-57 12c5.33301 39.333 19.166 69.166 41.499 89.499
s52.166 30.5 89.499 30.5s67.333 -10.167 90 -30.5z" />
    <glyph glyph-name="uni020C" unicode="&#x20c;" horiz-adv-x="636" 
d="M461 565.5c41.333 -25.667 73.502 -61.834 96.502 -108.501s34.5 -100.667 34.5 -162s-11.333 -115.5 -34 -162.5s-54.834 -83.333 -96.501 -109s-89.5 -38.5 -143.5 -38.5s-101.833 12.833 -143.5 38.5s-73.834 62 -96.501 109s-34 101.167 -34 162.5
s11.333 115.333 34 162s54.667 82.834 96 108.501s89 38.5 143 38.5c54.667 0 102.667 -12.833 144 -38.5zM179.002 471c-33.333 -42 -50 -100.667 -50 -176c0 -76 16.667 -135 50 -177s79.666 -63 138.999 -63s105.666 21 138.999 63s50 101 50 177
c0 75.333 -16.667 134 -50 176s-79.666 63 -138.999 63s-105.666 -21 -138.999 -63zM303.002 852l126 -180l-37 -28l-148 164zM136.002 832l157 -154l-31 -34l-175 134z" />
    <glyph glyph-name="uni020D" unicode="&#x20d;" horiz-adv-x="521" 
d="M375.5 416c33.667 -18.667 59.666 -45.1709 77.999 -79.5039s27.5 -75.166 27.5 -122.499c0 -70.667 -20.167 -126.5 -60.5 -167.5s-94.166 -61.5 -161.499 -61.5c-42.667 0 -80.5 9.16699 -113.5 27.5s-58.667 44.833 -77 79.5s-27.5 75.334 -27.5 122.001
s9.16699 87.334 27.5 122.001s44 61.334 77 80.001s70.833 28 113.5 28c44 0 82.833 -9.33301 116.5 -28zM156.499 336.996c-23.667 -28.667 -35.5 -69.667 -35.5 -123s11.833 -94.166 35.5 -122.499s58.167 -42.5 103.5 -42.5c46.667 0 81.834 14.167 105.501 42.5
s35.5 69.166 35.5 122.499s-11.833 94.333 -35.5 123s-58.834 43 -105.501 43c-45.333 0 -79.833 -14.333 -103.5 -43zM245.999 691.996l126 -180l-37 -28l-148 164zM78.999 671.996l157 -154l-31 -34l-175 134z" />
    <glyph glyph-name="uni020E" unicode="&#x20e;" horiz-adv-x="636" 
d="M461 565.5c41.333 -25.667 73.502 -61.834 96.502 -108.501s34.5 -100.667 34.5 -162s-11.333 -115.5 -34 -162.5s-54.834 -83.333 -96.501 -109s-89.5 -38.5 -143.5 -38.5s-101.833 12.833 -143.5 38.5s-73.834 62 -96.501 109s-34 101.167 -34 162.5
s11.333 115.333 34 162s54.667 82.834 96 108.501s89 38.5 143 38.5c54.667 0 102.667 -12.833 144 -38.5zM179.002 471c-33.333 -42 -50 -100.667 -50 -176c0 -76 16.667 -135 50 -177s79.666 -63 138.999 -63s105.666 21 138.999 63s50 101 50 177
c0 75.333 -16.667 134 -50 176s-79.666 63 -138.999 63s-105.666 -21 -138.999 -63zM422.002 761.5c26.667 -20.333 44 -50.166 52 -89.499l-65 -12c-6 45.333 -36.667 68 -92 68c-53.333 0 -83.666 -22.667 -90.999 -68l-65 12c8 39.333 25.167 69.166 51.5 89.499
s61.166 30.5 104.499 30.5s78.333 -10.167 105 -30.5z" />
    <glyph glyph-name="uni020F" unicode="&#x20f;" horiz-adv-x="521" 
d="M375.5 416c33.667 -18.667 59.666 -45.1709 77.999 -79.5039s27.5 -75.166 27.5 -122.499c0 -70.667 -20.167 -126.5 -60.5 -167.5s-94.166 -61.5 -161.499 -61.5c-42.667 0 -80.5 9.16699 -113.5 27.5s-58.667 44.833 -77 79.5s-27.5 75.334 -27.5 122.001
s9.16699 87.334 27.5 122.001s44 61.334 77 80.001s70.833 28 113.5 28c44 0 82.833 -9.33301 116.5 -28zM156.499 336.996c-23.667 -28.667 -35.5 -69.667 -35.5 -123s11.833 -94.166 35.5 -122.499s58.167 -42.5 103.5 -42.5c46.667 0 81.834 14.167 105.501 42.5
s35.5 69.166 35.5 122.499s-11.833 94.333 -35.5 123s-58.834 43 -105.501 43c-45.333 0 -79.833 -14.333 -103.5 -43zM364.999 601.496c26.667 -20.333 44 -50.166 52 -89.499l-65 -12c-6 45.333 -36.667 68 -92 68c-53.333 0 -83.666 -22.667 -90.999 -68l-65 12
c8 39.333 25.167 69.166 51.5 89.499s61.166 30.5 104.499 30.5s78.333 -10.167 105 -30.5z" />
    <glyph glyph-name="uni0210" unicode="&#x210;" horiz-adv-x="614" 
d="M587 69v-69h-149l-126 230h-10h-91v-161h63v-69h-237v69h94v451h-94v69h265c78 0 133.667 -14.5 167 -43.5s50 -73.833 50 -134.5c0 -46.667 -9.5 -84.167 -28.5 -112.5s-50.167 -47.833 -93.5 -58.5l99 -171h91zM302 301c30.667 0 55.333 2.83203 74 8.49902
s33 16.334 43 32.001s15 38.5 15 68.5c0 43.333 -10.5 72.5 -31.5 87.5s-54.5 22.5 -100.5 22.5h-90v-219h90zM261.999 851.999l126 -180l-37 -28l-148 164zM94.999 831.999l157 -154l-31 -34l-175 134z" />
    <glyph glyph-name="uni0211" unicode="&#x211;" horiz-adv-x="418" 
d="M261.5 431.5c29 8.33301 57.834 12.5 86.501 12.5c24 0 36.667 -0.666992 38 -2l17 -105l-65 -14l-10 56c-20.667 0 -41.834 -3 -63.501 -9s-41.5 -14.333 -59.5 -25v-283h98v-62h-260v62h84v286l-96 33l21 62l133 -46c22 14.667 47.5 26.167 76.5 34.5zM195.001 692
l126 -180l-37 -28l-148 164zM28.001 672l157 -154l-31 -34l-175 134z" />
    <glyph glyph-name="uni0212" unicode="&#x212;" horiz-adv-x="614" 
d="M587 69v-69h-149l-126 230h-10h-91v-161h63v-69h-237v69h94v451h-94v69h265c78 0 133.667 -14.5 167 -43.5s50 -73.833 50 -134.5c0 -46.667 -9.5 -84.167 -28.5 -112.5s-50.167 -47.833 -93.5 -58.5l99 -171h91zM302 301c30.667 0 55.333 2.83203 74 8.49902
s33 16.334 43 32.001s15 38.5 15 68.5c0 43.333 -10.5 72.5 -31.5 87.5s-54.5 22.5 -100.5 22.5h-90v-219h90zM380.999 761.499c26.667 -20.333 44 -50.166 52 -89.499l-65 -12c-6 45.333 -36.667 68 -92 68c-53.333 0 -83.666 -22.667 -90.999 -68l-65 12
c8 39.333 25.167 69.166 51.5 89.499s61.166 30.5 104.499 30.5s78.333 -10.167 105 -30.5z" />
    <glyph glyph-name="uni0213" unicode="&#x213;" horiz-adv-x="418" 
d="M261.5 431.5c29 8.33301 57.834 12.5 86.501 12.5c24 0 36.667 -0.666992 38 -2l17 -105l-65 -14l-10 56c-20.667 0 -41.834 -3 -63.501 -9s-41.5 -14.333 -59.5 -25v-283h98v-62h-260v62h84v286l-96 33l21 62l133 -46c22 14.667 47.5 26.167 76.5 34.5zM314.001 601.5
c26.667 -20.333 44 -50.166 52 -89.499l-65 -12c-6 45.333 -36.667 68 -92 68c-53.333 0 -83.666 -22.667 -90.999 -68l-65 12c8 39.333 25.167 69.166 51.5 89.499s61.166 30.5 104.499 30.5s78.333 -10.167 105 -30.5z" />
    <glyph glyph-name="uni0214" unicode="&#x214;" horiz-adv-x="678" 
d="M500 46c-36.667 -40.667 -92 -61.001 -166 -61.001c-71.333 0 -124.333 20.333 -159 61s-52 97 -52 169v305h-96v69h240v-69h-64v-332c0 -45.333 11.667 -79.166 35 -101.499s55.333 -33.5 96 -33.5c44 0 78.5 12.167 103.5 36.5s37.5 60.5 37.5 108.5v322h-64v69h240
v-69h-96v-305c0 -72 -18.333 -128.333 -55 -169zM324 851.999l126 -180l-37 -28l-148 164zM157 831.999l157 -154l-31 -34l-175 134z" />
    <glyph glyph-name="uni0215" unicode="&#x215;" horiz-adv-x="609" 
d="M361 -3c-26.667 -8 -51.667 -12 -75 -12c-61.333 0 -106.5 13.667 -135.5 41s-43.5 70 -43.5 128v213h-84v62h162v-259c0 -42.667 8.33301 -73.5 25 -92.5s43.667 -28.5 81 -28.5c21.333 0 44 3.16699 68 9.5s43.333 14.5 58 24.5v284h-84v62h162v-351l94 -32l-20 -64
l-136 47c-21.333 -13.333 -45.333 -24 -72 -32zM266 692l126 -180l-37 -28l-148 164zM99 672l157 -154l-31 -34l-175 134z" />
    <glyph glyph-name="uni0216" unicode="&#x216;" horiz-adv-x="678" 
d="M500 46c-36.667 -40.667 -92 -61.001 -166 -61.001c-71.333 0 -124.333 20.333 -159 61s-52 97 -52 169v305h-96v69h240v-69h-64v-332c0 -45.333 11.667 -79.166 35 -101.499s55.333 -33.5 96 -33.5c44 0 78.5 12.167 103.5 36.5s37.5 60.5 37.5 108.5v322h-64v69h240
v-69h-96v-305c0 -72 -18.333 -128.333 -55 -169zM443 761.499c26.667 -20.333 44 -50.166 52 -89.499l-65 -12c-6 45.333 -36.667 68 -92 68c-53.333 0 -83.666 -22.667 -90.999 -68l-65 12c8 39.333 25.167 69.166 51.5 89.499s61.166 30.5 104.499 30.5
s78.333 -10.167 105 -30.5z" />
    <glyph glyph-name="uni0217" unicode="&#x217;" horiz-adv-x="609" 
d="M361 -3c-26.667 -8 -51.667 -12 -75 -12c-61.333 0 -106.5 13.667 -135.5 41s-43.5 70 -43.5 128v213h-84v62h162v-259c0 -42.667 8.33301 -73.5 25 -92.5s43.667 -28.5 81 -28.5c21.333 0 44 3.16699 68 9.5s43.333 14.5 58 24.5v284h-84v62h162v-351l94 -32l-20 -64
l-136 47c-21.333 -13.333 -45.333 -24 -72 -32zM385 601.5c26.667 -20.333 44 -50.166 52 -89.499l-65 -12c-6 45.333 -36.667 68 -92 68c-53.333 0 -83.666 -22.667 -90.999 -68l-65 12c8 39.333 25.167 69.166 51.5 89.499s61.166 30.5 104.499 30.5
s78.333 -10.167 105 -30.5z" />
    <glyph glyph-name="Scommaaccent" unicode="&#x218;" horiz-adv-x="536" 
d="M62 24l-18.999 122.005l66 6l14 -75c24 -8 47 -14 69 -18s48.667 -6 80 -6c40.667 0 74 8.66699 100 26s39 44.666 39 81.999c0 28.667 -7.66699 52.167 -23 70.5s-41.333 30.166 -78 35.499l-76 11c-56.667 8.66699 -100.334 27.5 -131.001 56.5s-46 65.833 -46 110.5
c0 47.333 17.833 85.666 53.5 114.999s88.167 44 157.5 44c38.667 0 71.667 -2.33301 99 -7s57.666 -13.334 90.999 -26.001l17 -124l-66 -7l-13 80c-30.667 11.333 -73 17 -127 17c-43.333 0 -77.333 -7.83301 -102 -23.5s-37 -37.834 -37 -66.501
c0 -54 34.667 -85.667 104 -95l91 -14c55.333 -8 96.833 -26.5 124.5 -55.5s41.5 -65.833 41.5 -110.5c0 -40 -9.66699 -74 -29 -102s-45.666 -49.167 -78.999 -63.5s-70 -21.5 -110 -21.5c-74 0 -144.333 13 -211 39zM211.001 -270.995
c3.33301 4.66699 10.167 15.333 20.5 32s18.833 32.667 25.5 48c-16.667 1.33301 -30.167 7.5 -40.5 18.5s-15.5 24.167 -15.5 39.5c0 18 6.16699 32.833 18.5 44.5s27.833 17.5 46.5 17.5c18 0 33.833 -6.66699 47.5 -20s20.5 -29.333 20.5 -48
c0 -22.667 -6.5 -46 -19.5 -70s-27.667 -45.667 -44 -65s-24.5 -28.333 -24.5 -27z" />
    <glyph glyph-name="scommaaccent" unicode="&#x219;" horiz-adv-x="450" 
d="M271 380.5c-13.333 3 -29.999 4.50293 -49.999 4.50293c-26.667 0 -49.834 -6 -69.501 -18s-29.5 -27.667 -29.5 -47c0 -38.667 32.333 -61.334 97 -68.001l41 -4c52.667 -5.33301 90.5 -18.5 113.5 -39.5s34.5 -49.833 34.5 -86.5c0 -40.667 -16.667 -73.667 -50 -99
s-76.666 -38 -129.999 -38c-32 0 -63.5 4.16699 -94.5 12.5s-58.167 19.166 -81.5 32.499l-17 101l69 17l15 -70c31.333 -18 66.666 -27 105.999 -27c31.333 0 57.666 6.16699 78.999 18.5s32 29.166 32 50.499c0 19.333 -6.5 33.333 -19.5 42s-36.5 15 -70.5 19l-44 5
c-48.667 5.33301 -86.167 19.5 -112.5 42.5s-39.5 51.833 -39.5 86.5c0 41.333 17 73.333 51 96s74.333 34 121 34c30.667 0 58.334 -2.83301 83.001 -8.5s48.667 -14.5 72 -26.5l18 -95l-63 -14l-17 65c-16 6.66699 -30.667 11.5 -44 14.5zM166.001 -270.997
c3.33301 4.66699 10.167 15.333 20.5 32s18.833 32.667 25.5 48c-16.667 1.33301 -30.167 7.5 -40.5 18.5s-15.5 24.167 -15.5 39.5c0 18 6.16699 32.833 18.5 44.5s27.833 17.5 46.5 17.5c18 0 33.833 -6.66699 47.5 -20s20.5 -29.333 20.5 -48
c0 -22.667 -6.5 -46 -19.5 -70s-27.667 -45.667 -44 -65s-24.5 -28.333 -24.5 -27z" />
    <glyph glyph-name="uni021A" unicode="&#x21a;" horiz-adv-x="587" 
d="M36 589h515v-164h-76v95h-141l-2 -451h95v-69h-270v69h95l1 451h-141v-95h-76v164zM237 -271c3.33301 4.66699 10.167 15.333 20.5 32s18.833 32.667 25.5 48c-16.667 1.33301 -30.167 7.5 -40.5 18.5s-15.5 24.167 -15.5 39.5c0 18 6.16699 32.833 18.5 44.5
s27.833 17.5 46.5 17.5c18 0 33.833 -6.66699 47.5 -20s20.5 -29.333 20.5 -48c0 -22.667 -6.5 -46 -19.5 -70s-27.667 -45.667 -44 -65s-24.5 -28.333 -24.5 -27z" />
    <glyph glyph-name="uni021B" unicode="&#x21b;" horiz-adv-x="363" 
d="M145.5 22.5c-26.333 25 -39.501 67.167 -39.501 126.5v218h-83v62h83v97l76 18v-115h125v-62h-125v-174c0 -50 4.83301 -87.333 14.5 -112s28.167 -37 55.5 -37c20.667 0 44 6 70 18l15 -56c-35.333 -14 -65.333 -21 -90 -21c-41.333 0 -75.166 12.5 -101.499 37.5z
M117.999 -271c3.33301 4.66699 10.167 15.333 20.5 32s18.833 32.667 25.5 48c-16.667 1.33301 -30.167 7.5 -40.5 18.5s-15.5 24.167 -15.5 39.5c0 18 6.16699 32.833 18.5 44.5s27.833 17.5 46.5 17.5c18 0 33.833 -6.66699 47.5 -20s20.5 -29.333 20.5 -48
c0 -22.667 -6.5 -46 -19.5 -70s-27.667 -45.667 -44 -65s-24.5 -28.333 -24.5 -27z" />
    <glyph glyph-name="uni022A" unicode="&#x22a;" horiz-adv-x="636" 
d="M461 565.5c41.333 -25.667 73.502 -61.834 96.502 -108.501s34.5 -100.667 34.5 -162s-11.333 -115.5 -34 -162.5s-54.834 -83.333 -96.501 -109s-89.5 -38.5 -143.5 -38.5s-101.833 12.833 -143.5 38.5s-73.834 62 -96.501 109s-34 101.167 -34 162.5
s11.333 115.333 34 162s54.667 82.834 96 108.501s89 38.5 143 38.5c54.667 0 102.667 -12.833 144 -38.5zM179.002 471c-33.333 -42 -50 -100.667 -50 -176c0 -76 16.667 -135 50 -177s79.666 -63 138.999 -63s105.666 21 138.999 63s50 101 50 177
c0 75.333 -16.667 134 -50 176s-79.666 63 -138.999 63s-105.666 -21 -138.999 -63zM268.002 762.5c11.333 -11 17 -24.167 17 -39.5s-5.5 -28.5 -16.5 -39.5s-24.167 -16.5 -39.5 -16.5s-28.5 5.5 -39.5 16.5s-16.5 24.167 -16.5 39.5s5.5 28.5 16.5 39.5
s24.167 16.5 39.5 16.5c14.667 0 27.667 -5.5 39 -16.5zM446.002 762.5c11.333 -11 17 -24.167 17 -39.5s-5.5 -28.5 -16.5 -39.5s-24.167 -16.5 -39.5 -16.5s-28.5 5.5 -39.5 16.5s-16.5 24.167 -16.5 39.5s5.5 28.5 16.5 39.5s24.167 16.5 39.5 16.5
c14.667 0 27.667 -5.5 39 -16.5zM168.002 879h299v-59h-299v59z" />
    <glyph glyph-name="uni022B" unicode="&#x22b;" horiz-adv-x="521" 
d="M375.5 416c33.667 -18.667 59.666 -45.1709 77.999 -79.5039s27.5 -75.166 27.5 -122.499c0 -70.667 -20.167 -126.5 -60.5 -167.5s-94.166 -61.5 -161.499 -61.5c-42.667 0 -80.5 9.16699 -113.5 27.5s-58.667 44.833 -77 79.5s-27.5 75.334 -27.5 122.001
s9.16699 87.334 27.5 122.001s44 61.334 77 80.001s70.833 28 113.5 28c44 0 82.833 -9.33301 116.5 -28zM156.499 336.996c-23.667 -28.667 -35.5 -69.667 -35.5 -123s11.833 -94.166 35.5 -122.499s58.167 -42.5 103.5 -42.5c46.667 0 81.834 14.167 105.501 42.5
s35.5 69.166 35.5 122.499s-11.833 94.333 -35.5 123s-58.834 43 -105.501 43c-45.333 0 -79.833 -14.333 -103.5 -43zM210.999 602.496c11.333 -11 17 -24.167 17 -39.5s-5.5 -28.5 -16.5 -39.5s-24.167 -16.5 -39.5 -16.5s-28.5 5.5 -39.5 16.5s-16.5 24.167 -16.5 39.5
s5.5 28.5 16.5 39.5s24.167 16.5 39.5 16.5c14.667 0 27.667 -5.5 39 -16.5zM388.999 602.496c11.333 -11 17 -24.167 17 -39.5s-5.5 -28.5 -16.5 -39.5s-24.167 -16.5 -39.5 -16.5s-28.5 5.5 -39.5 16.5s-16.5 24.167 -16.5 39.5s5.5 28.5 16.5 39.5s24.167 16.5 39.5 16.5
c14.667 0 27.667 -5.5 39 -16.5zM110.999 718.996h299v-59h-299v59z" />
    <glyph glyph-name="uni022C" unicode="&#x22c;" horiz-adv-x="636" 
d="M461 565.5c41.333 -25.667 73.502 -61.834 96.502 -108.501s34.5 -100.667 34.5 -162s-11.333 -115.5 -34 -162.5s-54.834 -83.333 -96.501 -109s-89.5 -38.5 -143.5 -38.5s-101.833 12.833 -143.5 38.5s-73.834 62 -96.501 109s-34 101.167 -34 162.5
s11.333 115.333 34 162s54.667 82.834 96 108.501s89 38.5 143 38.5c54.667 0 102.667 -12.833 144 -38.5zM179.002 471c-33.333 -42 -50 -100.667 -50 -176c0 -76 16.667 -135 50 -177s79.666 -63 138.999 -63s105.666 21 138.999 63s50 101 50 177
c0 75.333 -16.667 134 -50 176s-79.666 63 -138.999 63s-105.666 -21 -138.999 -63zM177.002 709c23.333 15.333 42.3301 25.999 56.9971 31.999s32.334 9 53.001 9c14.667 0 27.334 -1.83301 38.001 -5.5s23.334 -9.5 38.001 -17.5c10 -6 18.667 -10.333 26 -13
s15 -4 23 -4c10 0 18.667 2 26 6s20.333 13 39 27l24 -56c-19.333 -16.667 -35.833 -28 -49.5 -34s-28.5 -9 -44.5 -9c-10 0 -19.5 1.83301 -28.5 5.5s-19.5 8.83398 -31.5 15.501c-11.333 6.66699 -21.5 11.667 -30.5 15s-17.833 5 -26.5 5c-14.667 0 -27 -1.5 -37 -4.5
s-20.5 -7.16699 -31.5 -12.5s-18.833 -9 -23.5 -11zM166.999 892.999h299v-59h-299v59z" />
    <glyph glyph-name="uni022D" unicode="&#x22d;" horiz-adv-x="521" 
d="M375.5 416c33.667 -18.667 59.666 -45.1709 77.999 -79.5039s27.5 -75.166 27.5 -122.499c0 -70.667 -20.167 -126.5 -60.5 -167.5s-94.166 -61.5 -161.499 -61.5c-42.667 0 -80.5 9.16699 -113.5 27.5s-58.667 44.833 -77 79.5s-27.5 75.334 -27.5 122.001
s9.16699 87.334 27.5 122.001s44 61.334 77 80.001s70.833 28 113.5 28c44 0 82.833 -9.33301 116.5 -28zM156.499 336.996c-23.667 -28.667 -35.5 -69.667 -35.5 -123s11.833 -94.166 35.5 -122.499s58.167 -42.5 103.5 -42.5c46.667 0 81.834 14.167 105.501 42.5
s35.5 69.166 35.5 122.499s-11.833 94.333 -35.5 123s-58.834 43 -105.501 43c-45.333 0 -79.833 -14.333 -103.5 -43zM119.999 548.996c23.333 15.333 42.3301 25.999 56.9971 31.999s32.334 9 53.001 9c14.667 0 27.334 -1.83301 38.001 -5.5s23.334 -9.5 38.001 -17.5
c10 -6 18.667 -10.333 26 -13s15 -4 23 -4c10 0 18.667 2 26 6s20.333 13 39 27l24 -56c-19.333 -16.667 -35.833 -28 -49.5 -34s-28.5 -9 -44.5 -9c-10 0 -19.5 1.83301 -28.5 5.5s-19.5 8.83398 -31.5 15.501c-11.333 6.66699 -21.5 11.667 -30.5 15s-17.833 5 -26.5 5
c-14.667 0 -27 -1.5 -37 -4.5s-20.5 -7.16699 -31.5 -12.5s-18.833 -9 -23.5 -11zM109.996 732.995h299v-59h-299v59z" />
    <glyph glyph-name="uni0230" unicode="&#x230;" horiz-adv-x="636" 
d="M461 565.5c41.333 -25.667 73.502 -61.834 96.502 -108.501s34.5 -100.667 34.5 -162s-11.333 -115.5 -34 -162.5s-54.834 -83.333 -96.501 -109s-89.5 -38.5 -143.5 -38.5s-101.833 12.833 -143.5 38.5s-73.834 62 -96.501 109s-34 101.167 -34 162.5
s11.333 115.333 34 162s54.667 82.834 96 108.501s89 38.5 143 38.5c54.667 0 102.667 -12.833 144 -38.5zM179.002 471c-33.333 -42 -50 -100.667 -50 -176c0 -76 16.667 -135 50 -177s79.666 -63 138.999 -63s105.666 21 138.999 63s50 101 50 177
c0 75.333 -16.667 134 -50 176s-79.666 63 -138.999 63s-105.666 -21 -138.999 -63zM362.002 785c11.333 -11.333 17 -26.333 17 -45s-5.66699 -33.667 -17 -45s-26.333 -17 -45 -17s-33.5 5.66699 -44.5 17s-16.5 26.333 -16.5 45s5.5 33.667 16.5 45s25.833 17 44.5 17
s33.667 -5.66699 45 -17zM168.002 891h299v-59h-299v59z" />
    <glyph glyph-name="uni0231" unicode="&#x231;" horiz-adv-x="521" 
d="M375.5 416c33.667 -18.667 59.666 -45.1709 77.999 -79.5039s27.5 -75.166 27.5 -122.499c0 -70.667 -20.167 -126.5 -60.5 -167.5s-94.166 -61.5 -161.499 -61.5c-42.667 0 -80.5 9.16699 -113.5 27.5s-58.667 44.833 -77 79.5s-27.5 75.334 -27.5 122.001
s9.16699 87.334 27.5 122.001s44 61.334 77 80.001s70.833 28 113.5 28c44 0 82.833 -9.33301 116.5 -28zM156.499 336.996c-23.667 -28.667 -35.5 -69.667 -35.5 -123s11.833 -94.166 35.5 -122.499s58.167 -42.5 103.5 -42.5c46.667 0 81.834 14.167 105.501 42.5
s35.5 69.166 35.5 122.499s-11.833 94.333 -35.5 123s-58.834 43 -105.501 43c-45.333 0 -79.833 -14.333 -103.5 -43zM304.999 624.996c11.333 -11.333 17 -26.333 17 -45s-5.66699 -33.667 -17 -45s-26.333 -17 -45 -17s-33.5 5.66699 -44.5 17s-16.5 26.333 -16.5 45
s5.5 33.667 16.5 45s25.833 17 44.5 17s33.667 -5.66699 45 -17zM110.999 741.996h299v-59h-299v59z" />
    <glyph glyph-name="uni0232" unicode="&#x232;" horiz-adv-x="651" 
d="M4 589h239v-69h-53l139 -196l156 196h-75v69h237v-69h-68l-213 -263l-2 -188h94v-69h-267v69h94l1 185l-198 266h-84v69zM175 749h299v-59h-299v59z" />
    <glyph glyph-name="uni0233" unicode="&#x233;" horiz-adv-x="543" 
d="M542 429l0.000976562 -62h-72l-163 -457c-31.333 -89.333 -83 -134 -155 -134c-22 0 -44 3.66699 -66 11l12 60c18 -5.33301 34 -8 48 -8c19.333 0 34.833 2.83301 46.5 8.5s22.167 16.5 31.5 32.5s19.666 40.333 30.999 73l5 14l-188 400h-71v62h208v-62h-57l138 -313
l107 313h-55v62h200zM123.001 589h299v-59h-299v59z" />
    <glyph glyph-name="uni0237" unicode="&#x237;" horiz-adv-x="254" 
d="M175.5 -127c-6.33301 -26 -22.833 -48.5 -49.5 -67.5s-67.667 -28.5 -123 -28.5c-6 0 -14.667 0.5 -26 1.5s-19 1.83301 -23 2.5l10 61c17.333 -1.33301 31.333 -2 42 -2c33.333 0 57.333 6.16699 72 18.5s23.167 26 25.5 41s3.5 36.167 3.5 63.5v404h-84v62h162v-460
c0 -38 -3.16699 -70 -9.5 -96z" />
    </font>
</defs>
</svg>
