<svg id="Слой_1" data-name="Слой 1" xmlns="http://www.w3.org/2000/svg" viewBox="0 0 1024 768"><path d="M290.89,505.68c-.86-5.65-.55-11.83-2.83-16.83-5.07-11.13-3.33-22.61-3.61-34-.2-8-.72-8.91-8.49-11.45a3.32,3.32,0,0,1-1.95-1.33h42.6v18.18c-4.46-11.64-14.26-9.24-23.49-9.05-.44,18.24-.89,36.36-1.33,54.49Z"/><path d="M815.94,461.4c-.34-.3-.85-.53-1-.89-3.59-10.54-12.27-10-20.79-9.31-.92.07-2.35,2.34-2.37,3.61-.24,11.56-.13,23.13-.3,34.69-.08,5.4-.57,10.79-.87,16.18h-.9c-1.36-8.66-.94-17.72-6-25.58-.77-1.19-.3-3.22-.31-4.86,0-7.05,0-14.1,0-21.15s-.74-8-7.42-10.35c-1-.34-1.89-.7-2.84-1.05,0-.39.05-.78.07-1.17h42.73Z"/><path d="M492.36,480.35c3-2,4.92-3.07,6.68-4.44a10.92,10.92,0,0,0,4.44-9.34c-.17-15.5-.25-31,0-46.51.13-7.83-.44-10.7-10.17-15.79a22.92,22.92,0,0,1,3.17-.54c12.19,0,24.39-.08,36.58,0,9.81.07,14.59,4.95,14.62,14.81,0,13.85,0,27.69,0,41.54,0,7.83-2.85,14.07-9.6,18.23-1.5.93-3.28,1.93-5,1.95C520,480.42,506.75,480.35,492.36,480.35Zm21-67.08V471c5.19,0,10.11.15,15-.05,4-.16,6.23-2.65,7.17-6.38A91.23,91.23,0,0,0,535.6,420c-1.06-4.27-3.66-6.79-8.32-6.74C522.78,413.3,518.28,413.27,513.32,413.27Z"/><path d="M201.86,479.56c1.26-.74,2.57-1.41,3.77-2.23,4.19-2.89,6.68-6.46,6.58-12-.28-14.45-.44-28.92,0-43.37.27-8.27-1.69-14.51-10-18.25h7.34c10.55,0,21.09,0,31.63,0,10.24.07,14.86,4.78,14.87,15,0,13.85,0,27.71,0,41.56,0,7.84-2.89,14.09-9.77,18.11a11.7,11.7,0,0,1-5.43,1.87c-12.92.16-25.85.09-38.78.09Zm19.63-8.45c5.14,0,9.93.16,14.7-.05,3.79-.16,6.56-2.09,7.58-5.95a85.47,85.47,0,0,0-.24-46.22c-.62-2.13-3.38-4.84-5.43-5.11-5.39-.72-10.94-.25-16.61-.25Z"/><path d="M447.66,315.8v53.31l-1.28.18a15,15,0,0,1-.84-2.44c-1.19-7.53-1.14-15.33-5.57-22.08-.65-1-.41-2.62-.41-4,0-7.37,0-14.75,0-22.12,0-7.14-.68-8.09-7.36-10.48a8.35,8.35,0,0,1-3-1.69c10.36.44,20.69-1.88,31,1.6,4.4,1.48,10.12,1.79,14.41.28,10.65-3.74,21.3-1.5,32.18-2.37-.32.81-.36,1.24-.54,1.3-10.06,3.66-10.06,3.66-10.06,14.44,0,3.62,0,7.23,0,10.84,0,6.09.19,12-2.76,17.92-2.06,4.13-2,9.33-2.81,14.06-.27,1.53-.49,3.08-.73,4.61l-1.5-.08V316c-11.49-1.61-16.34,2.51-16.26,13.12.07,9,.34,18.07-3.06,26.7-.27.69-.52,1.38-.82,2.06,0,.08-.28.07-.71.18-2.51-7.5-4.59-15.05-3.9-23.13.16-1.79,0-3.61,0-5.42C463.64,318.5,459.91,315,447.66,315.8Z"/><path d="M408.58,229.89c-6.57,8-17.75,14-12.44,26.9-5.81,3.48-11.54,1.95-17.72-.79,4.8,4.94,3.45,9.88,1.22,14.87-8.38-.06-12.25,3.7-12.74,12.64-.12,2.11-.24,4.22-.16,6.33.31,8.55-.23,16.71-6.79,23.4-1.89,1.94-2.55,5.07-3.83,7.62a18.23,18.23,0,0,1-2.23,3.87c-3.15,3.63-6.45,7.12-9.59,10.56.31-6.77.65-14.28,1-21.79l.65-.05c.24,2.14.49,4.28.89,7.81a70.07,70.07,0,0,0,4.55-6.58q3.35-6.37,6.24-13a13,13,0,0,0,.85-4.78c.33-11.14,1-22.29.7-33.42-.14-6.12,3-8.79,7.72-11.2q15.24-7.75,30.22-16c3.76-2.07,7.17-4.78,10.74-7.2Z"/><path d="M327.16,320.4c.38-3.12.61-5,.84-6.85l.63,0,1.11,21.77-.76.32c-6-9.05-11.7-18.26-18-27.08a19.85,19.85,0,0,1-3.62-11.24c-.29-6.27-.12-12.69-1.43-18.77-1.5-7-4.19-8.35-11.34-8-2.58-5-4-10,1.07-15.06-6.13,2.22-11.76,4.62-17.84.78,5.27-12.63-5.44-18.76-11.82-27.32,2,1.05,4.2,1.84,5.94,3.21,10.52,8.21,22.27,14.2,34.48,19.35,5.46,2.31,8.71,5.5,8.36,12.13-.39,7.48,1.11,15.11.31,22.52-1.2,11.09,3.86,20,8.12,29.35C323.93,317.1,325.4,318.28,327.16,320.4Z"/><path d="M518.53,306.62c9.35,0,18-.74,26.44.17,12,1.3,17.33,8.13,17,19.71-.28,10.65-6.41,17.39-18,18-5.55.3-6.14,2.41-6.08,7,.14,11.88-.19,23.76-.39,35.64a19.71,19.71,0,0,1-1.45,7.58,82.39,82.39,0,0,0-1.33-8.79c-1.32-5-3-10-4.48-15a18.21,18.21,0,0,1-.67-4.82c0-16.1,0-32.2,0-48.3,0-7-.79-8.1-7.58-10.11C521.08,307.49,520.15,307.15,518.53,306.62Zm20.73,29.15c5-.46,10.37-.11,12.29-5.1a15.09,15.09,0,0,0-.51-11c-2.09-4.23-7.06-4.16-11.78-4Z"/><path d="M714.17,441.82h41.29v17.42c-1.92.11-3.79-.2-5.33.37-5.28,2-10.46,4.27-16.19,6.65-.26,4,.6,5,5.5,5.07,3,0,6-.14,9,.05,3.15.2,5.69-.34,7-3.82v12.77c-7.81,0-15.58.21-23.32-.18-1.64-.08-3.89-2.07-4.6-3.73a53.38,53.38,0,0,1-2.91-10.74,24,24,0,0,1-.1-6.29c.62-8.22.42-15.85-11.55-16.3Zm38,15.25c-2.19-5.84-8.95-7.76-18.57-5.33v5.33Z"/><path d="M334.62,441.81h41.31v17.36c-2.08.16-3.94-.1-5.49.49-5.13,2-10.15,4.22-16,6.69-.58,3.45.53,4.92,5.19,5a76.14,76.14,0,0,0,9.91-.09c2.14-.26,4.15-1.51,6.3-2.34v11.42c-7.74,0-15.54.45-23.23-.29-2.14-.21-4.95-3.63-5.69-6.11a46.89,46.89,0,0,1-1.86-14.15c.13-8.22.83-16.32-11.75-16.66ZM354,457h18.91c-3.14-5.91-9-7.48-18.91-5.28Z"/><path d="M671.32,306.38h41.36v17.51c-2.3.12-4.46-.23-6.25.42-5.15,1.89-10.16,4.19-15.88,6.6,0,2.8,1.28,5.35,6,4.92a69.88,69.88,0,0,1,7.66,0c3.4.07,7,.64,8.47-3.89v12.83c-8,0-15.9.44-23.73-.3-2.12-.2-4.93-3.71-5.6-6.2a50.69,50.69,0,0,1-1.78-15.06c.29-8.06-.16-15.05-11.17-15.67C670.71,307.12,671,306.75,671.32,306.38ZM690.66,316v5.41h18.56C706.55,315.59,701.11,314.08,690.66,316Z"/><path d="M607,442.09v17.55c-2.13,0-4.18-.51-5.84.09-5.3,1.92-10.45,4.24-16.3,6.68,0,2.8,1.24,5.41,6,5a65.24,65.24,0,0,1,7.66,0c3.44.1,7,.53,8.49-3.9v12.83c-8,0-15.87.25-23.75-.2-1.7-.09-4-2.41-4.74-4.23a49.5,49.5,0,0,1-2.67-11.27c-.41-2.95-.09-6-.09-9,0-8.8-.39-9.35-8.65-12.24a2.49,2.49,0,0,1-1.53-1.24Zm-3.22,15c-3.25-6-9.78-7.64-18.88-5.37v5.37Z"/><path d="M395.7,480.38V467.53c1.74,3.87,4.94,4.11,8.51,3.84,2.39-.18,4.81,0,7.22,0,5.39,0,6-.59,6.3-6.69H395.49c.21-4.33,0-8.22.64-12,1.46-9.07,4-11,13.16-11q8.13,0,16.26.06a7.36,7.36,0,0,1,1.25.36v12.43c-1.61-3.86-4.67-4.12-8.14-3.85a55,55,0,0,1-8.12,0c-4.49-.33-5.83,2-5.75,6.66h22.65c-.45,5-.32,9.43-1.31,13.59-2.09,8.69-4.69,9.91-11.63,9.53C408.37,480.11,402.22,480.38,395.7,480.38Z"/><path d="M477,441.67V453a56.14,56.14,0,0,0-7.72-2.21c-2.66-.39-5.42.07-8.12-.12-4.25-.29-6.24,1.46-5.81,6.42h21.6c0,4.34.35,8.08-.06,11.73-1,9.05-4.05,11.56-13.09,11.56H446.25V468.8c2.37.83,4.77,2.05,7.29,2.44,2.8.43,5.71.12,8.57.1,5,0,5.74-.8,5.76-6.7H445.79c.2-4.28.14-8,.59-11.67,1.07-8.76,4.09-11.3,12.9-11.3Z"/><path d="M658.69,440.93v27.3c0,7.53.52,8.24,7.64,10.47.82.26,1.62.58,2.43.87l-.14,1.33c-9.83-.6-19.8-.44-29.47-2-8.61-1.41-12.95-8.71-12.84-18.17s4.38-15.66,13-17.6C645.39,441.73,651.73,441.66,658.69,440.93Zm-9.37,9.82c-5.09.48-10.61.14-12.48,5.09a15.34,15.34,0,0,0,.78,11.39c2.15,3.95,7.18,3.77,11.7,3.82Z"/><path d="M352.47,332c1.68,10-3.09,19.39-12.21,22.9-1,9.88-2,19.95-3,30.47-1-10.37-2-20.33-3-30.23-10.1-2.31-14.52-12.8-13.34-23.89,3.55,4.81,5,11.86,13.21,11.46.08-1.7.21-3,.2-4.35-.16-19.26-.47-38.52-.42-57.78,0-3.35,1.54-6.69,2.36-10l2,.05c.8,3.35,2.28,6.7,2.28,10.05,0,19.26-.37,38.52-.51,57.78,0,1.43.87,2.85,1.33,4.28,1.45-.61,3.29-.85,4.25-1.9C348.11,338.11,350.19,335,352.47,332Z"/><path d="M412.13,305.24v27.51c0,7.36.65,8.21,7.83,10.43.84.26,1.66.57,2.5.86l-.14,1.42C412.2,344.73,402,344.8,392,343c-8.31-1.48-12.16-8.44-12.12-17.75,0-9.14,3.86-15.4,12-17.44C398.22,306.27,404.87,306.12,412.13,305.24Zm-9.41,10.21c-10.35-.08-14.13,3.26-13.44,11.69.49,6,5.66,9.11,13.44,7.91Z"/><path d="M676.62,404h19.12v63.69c0,7.64.5,8.31,7.87,10.94.8.29,1.57.65,3.62,1.49H686.71V416.69c0-7.78-.49-8.48-7.71-11-.83-.29-1.66-.55-2.49-.82C676.55,404.55,676.58,404.25,676.62,404Z"/><path d="M627.3,369.31c-.81-5.33-.47-11.2-2.67-15.89-5.19-11.08-3.44-22.56-3.7-34-.19-8.15-.57-8.89-8.3-11.58a3.48,3.48,0,0,1-2-1.36h42.48v18.26c-4.54-12.12-14.58-9.06-24.56-9.24v53.85Z"/><path d="M590.7,371.06c-.74-5-1.22-10.06-2.31-15-.76-3.46-2.39-6.73-3.54-10.12a15.76,15.76,0,0,1-1.11-4.66c-.12-7.53,0-15.06,0-22.59,0-6.93-.78-8-7.51-10.35a11.11,11.11,0,0,1-3.75-2h19.66v64.68Z"/><path d="M336.21,232.24c5.64,7.46,7.32,14.68,6.27,22.54-.61,4.62-4.58,8.09-8.06,7.51-3.25-.55-5.87-4.93-5.42-9.29a37,37,0,0,1,1-4.28l2.52,4.25C337.48,246.82,336.48,240.1,336.21,232.24Z"/><path d="M592.58,298.36h-8.06L589.2,287C593.18,289.28,592.88,293.62,592.58,298.36Z"/></svg>