<svg width="52" height="52" viewBox="0 0 52 52" fill="none" xmlns="http://www.w3.org/2000/svg">
<path fill-rule="evenodd" clip-rule="evenodd" d="M52 26C52 40.3594 40.3594 52 26 52C11.6406 52 0 40.3594 0 26C0 11.6406 11.6406 0 26 0C40.3594 0 52 11.6406 52 26ZM15.6 26.0876C15.6 25.7286 15.891 25.4376 16.25 25.4376H32.9367L32.7135 25.1833C32.5531 24.9885 32.3561 24.7708 32.1384 24.5302C31.6044 23.9401 30.9459 23.2123 30.397 22.3469C30.1416 21.9442 30.4491 21.45 30.926 21.45C31.1176 21.45 31.2993 21.5351 31.4246 21.6802C32.8654 23.3479 34.3677 24.6163 35.9316 25.4854C36.1183 25.5891 36.2378 25.784 36.2378 25.9977C36.2378 26.2137 36.1156 26.4104 35.9257 26.5135C34.3639 27.362 32.8635 28.6298 31.4244 30.317C31.2993 30.4637 31.1167 30.55 30.9239 30.55C30.448 30.55 30.1411 30.0568 30.3959 29.6549C30.945 28.7887 31.6041 28.0603 32.1384 27.4698C32.3561 27.2292 32.5531 27.0115 32.7135 26.8167L32.7829 26.7376H16.25C15.891 26.7376 15.6 26.4466 15.6 26.0876Z" fill="#333333"/>
</svg>
