<svg width="52" height="52" viewBox="0 0 52 52" fill="none" xmlns="http://www.w3.org/2000/svg">
<path fill-rule="evenodd" clip-rule="evenodd" d="M0 26C0 11.6406 11.6406 0 26 0C40.3594 0 52 11.6406 52 26C52 40.3594 40.3594 52 26 52C11.6406 52 0 40.3594 0 26ZM36.4 25.9124C36.4 26.2714 36.109 26.5624 35.75 26.5624H19.0633L19.2865 26.8167C19.4469 27.0115 19.6439 27.2292 19.8616 27.4698C20.3956 28.0599 21.0541 28.7877 21.603 29.6531C21.8584 30.0558 21.5509 30.55 21.074 30.55C20.8824 30.55 20.7007 30.4649 20.5754 30.3198C19.1346 28.6521 17.6323 27.3837 16.0684 26.5146C15.8817 26.4109 15.7622 26.216 15.7622 26.0023C15.7622 25.7863 15.8844 25.5896 16.0743 25.4865C17.6361 24.638 19.1365 23.3702 20.5756 21.683C20.7007 21.5363 20.8833 21.45 21.0761 21.45C21.552 21.45 21.8589 21.9432 21.6041 22.3451C21.055 23.2113 20.3959 23.9397 19.8616 24.5302C19.6439 24.7708 19.4469 24.9885 19.2865 25.1833L19.2171 25.2624H35.75C36.109 25.2624 36.4 25.5534 36.4 25.9124Z" fill="#333333"/>
</svg>
