<?xml version="1.0" encoding="utf-8"?>
<!-- Generator: Adobe Illustrator 18.0.0, SVG Export Plug-In . SVG Version: 6.00 Build 0)  -->
<!DOCTYPE svg PUBLIC "-//W3C//DTD SVG 1.1//EN" "http://www.w3.org/Graphics/SVG/1.1/DTD/svg11.dtd">
<svg version="1.1" xmlns="http://www.w3.org/2000/svg" xmlns:xlink="http://www.w3.org/1999/xlink" x="0px" y="0px"
	 viewBox="0 0 595.3 595.3" enable-background="new 0 0 595.3 595.3" xml:space="preserve">
<g id="Capa_1">
</g>
<g id="Capa_2">
	<g>
		<linearGradient id="SVGID_1_" gradientUnits="userSpaceOnUse" x1="28" y1="296.6432" x2="567.8263" y2="296.6432">
			<stop  offset="0" style="stop-color:#61C4E3"/>
			<stop  offset="1" style="stop-color:#D34915;stop-opacity:0"/>
		</linearGradient>
		<path opacity="0.6" fill="url(#SVGID_1_)" d="M295.6,566.1c-38.2,0-76.5,0.6-114.7-0.1c-83.5-1.6-150.9-68.4-152.1-152
			c-1.1-77.4-1-154.9,0-232.3C29.8,96.8,97,29.5,182.6,28c76.4-1.3,153-1.4,229.4-0.1c87.4,1.5,153.7,68.2,155,155.4
			c1.1,75.5,1.1,151,0.1,226.5c-1.2,90.3-68.7,155.6-159.6,156.2C370.1,566.2,332.9,566.1,295.6,566.1z"/>
		<linearGradient id="SVGID_2_" gradientUnits="userSpaceOnUse" x1="28.7862" y1="374.8085" x2="567.8263" y2="374.8085">
			<stop  offset="0" style="stop-color:#61C4E3"/>
			<stop  offset="1" style="stop-color:#D34915;stop-opacity:0"/>
		</linearGradient>
		<path opacity="0.6" fill="url(#SVGID_2_)" d="M567,183.3c1.1,75.5,1.1,151,0.1,226.5c-1.2,90.3-68.7,155.6-159.6,156.2
			c-37.3,0.2-74.6,0-111.8,0c-38.2,0-76.5,0.6-114.7-0.1c-83.5-1.6-150.9-68.4-152.1-152"/>
	</g>
	<path fill="#FFFFFF" stroke="#FFFFFF" stroke-width="8.7655" d="M433.5,201.7c-16.9,0-33.1-6.7-45-18.7
		c-11.9-12-18.6-28.2-18.6-45.1c0-1.2,0.1-2.5,0.2-4c0-0.2,0-0.5,0-0.8c0.1-1.8,0.2-3.9,0.2-5.9c-0.1-3.8-0.7-8.8-4.1-12.2
		c-3.3-3.3-8.4-4.3-12.4-4.6c-3.2-0.3-6.6-0.2-9.2-0.2c-0.8,0-1.5,0-2.1,0c-0.6,0-1.3,0-2.1,0c-2.6,0-5.8-0.1-8.8,0.2
		c-3.8,0.4-8.6,1.3-11.9,4.6c-3.4,3.4-4,8.5-4.1,12.2c0,2,0.1,4.1,0.2,5.9c0,0.3,0,0.5,0,0.8c0.1,1.6,0.2,2.9,0.2,4v227.2
		c0,12.6-3.7,24.9-10.7,35.4c-7,10.5-16.9,18.7-28.6,23.5c-11.6,4.8-24.4,6.1-36.8,3.6c-12.3-2.5-23.7-8.5-32.6-17.5
		c-8.9-8.9-15-20.3-17.4-32.7c-2.5-12.4-1.2-25.2,3.6-36.9c4.8-11.7,13-21.6,23.4-28.6c10.5-7,22.8-10.7,35.3-10.7
		c1,0,2.1,0,3.4,0.1c0.5,0,1,0,1.5,0.1c1.9,0.1,4,0.1,6.1,0c3.9-0.2,9-0.9,12.4-4.3c3.4-3.4,4.1-8.4,4.3-12.2c0.1-2,0-4.1,0-6
		c0-0.4,0-0.9-0.1-1.3c-0.1-1.4-0.1-2.5-0.1-3.6c0-0.3,0-0.6,0-0.9c0-2.8,0-6.4-0.4-9.9c-0.5-3.8-1.7-8.3-4.8-11.4
		c-3.3-3.3-7.9-4.2-11.6-4.6c-2.8-0.3-5.8-0.2-8.3-0.2c-0.9,0-1.6,0-2.3,0c-23.3,0-46,6.9-65.4,19.9c-19.4,13-34.4,31.4-43.4,52.9
		c-8.9,21.6-11.2,45.3-6.7,68.2c4.5,22.9,15.8,43.9,32.2,60.4c16.5,16.5,37.4,27.7,60.3,32.3c22.8,4.6,46.5,2.2,68-6.7
		c21.5-8.9,39.9-24.1,52.8-43.5c12.9-19.4,19.8-42.2,19.8-65.5V237.3c18.9,12.3,41,18.8,63.6,18.7c1.2,0,2.6,0.1,4.2,0.2
		c0.2,0,0.4,0,0.5,0c1.8,0.1,3.8,0.2,5.8,0.2c3.7-0.1,8.7-0.6,12.1-4.1c3.2-3.2,4.4-8.1,4.8-12.1c0.5-3.7,0.4-7.6,0.4-10.4
		c0-0.3,0-0.6,0-0.9c0-0.3,0-0.6,0-0.9c0-2.8,0-6.4-0.4-9.9c-0.5-3.8-1.7-8.3-4.8-11.5l-3.1,3.1l3.1-3.1c-3.3-3.3-8-4.3-11.8-4.6
		c-3-0.3-6.1-0.2-8.7-0.2C434.9,201.7,434.1,201.7,433.5,201.7z"/>
</g>
</svg>
